<?xml version="1.0" standalone="no"?>
<!DOCTYPE svg PUBLIC "-//W3C//DTD SVG 1.1//EN" "http://www.w3.org/Graphics/SVG/1.1/DTD/svg11.dtd" >
<svg xmlns="http://www.w3.org/2000/svg" xmlns:xlink="http://www.w3.org/1999/xlink" version="1.1">
<metadata>
Created by FontForge 20170731 at Wed Mar 21 16:13:53 2018
 By Aleksey,,,
Vogue is a CopyRight (c) 1993, AvantGarde Softwares Ltd . All rights reserved
</metadata>
<defs>
<font id="SVN-Vogue" horiz-adv-x="535" >
  <font-face 
    font-family="SVN-Vogue"
    font-weight="400"
    font-stretch="normal"
    units-per-em="1000"
    panose-1="2 0 0 0 0 0 0 0 0 0"
    ascent="800"
    descent="-200"
    x-height="533"
    cap-height="719"
    bbox="-55 -223 1049 1089"
    underline-thickness="50"
    underline-position="-175"
    unicode-range="U+0020-F002"
  />
<missing-glyph horiz-adv-x="925" 
d="M57 0v925h811v-925h-811zM811 57v811h-697v-811h697z" />
    <glyph glyph-name=".notdef" horiz-adv-x="925" 
d="M57 0v925h811v-925h-811zM811 57v811h-697v-811h697z" />
    <glyph glyph-name=".null" horiz-adv-x="0" 
 />
    <glyph glyph-name="nonmarkingreturn" horiz-adv-x="240" 
 />
    <glyph glyph-name="space" unicode=" " horiz-adv-x="240" 
 />
    <glyph glyph-name="exclam" unicode="!" horiz-adv-x="277" 
d="M104 236v438q0 43 42 43q20 0 32.5 -11t12.5 -32v-436q0 -44 -45 -49q-42 0 -42 47zM148 -6q-20 0 -36 16t-16 35q0 18 16 34.5t36 16.5q21 0 36 -15.5t15 -35.5q0 -17 -15 -35q-16 -16 -36 -16z" />
    <glyph glyph-name="quotedbl" unicode="&#x22;" horiz-adv-x="314" 
d="M55 676q0 20 11.5 31.5t29.5 11.5t29.5 -11t11.5 -32v-141q0 -35 -43 -39q-39 0 -39 39v141zM197 676q0 21 12 32t29 11t29 -11.5t12 -31.5v-141q0 -35 -43 -39q-39 0 -39 39v141z" />
    <glyph glyph-name="numbersign" unicode="#" 
d="M154 496l28 186q0 37 37 37q33 0 33 -35v-12l-23 -176h117l27 188q5 35 39 35q33 0 33 -36v-9l-25 -178h62q18 0 29 -11q12 -9 12 -24q0 -31 -41 -31h-70l-21 -149h62q39 0 39 -33q0 -31 -37 -31h-74l-26 -184q0 -19 -10 -31q-6 -8 -27 -8q-33 0 -37 37l2 10l26 176h-120
l-25 -184q-3 -22 -11.5 -30.5t-27.5 -8.5q-31 0 -35 37l2 12l23 174h-64q-35 0 -39 31q3 33 43 33h70l21 149h-64q-35 0 -41 31q3 35 39 35h74zM199 281h117l22 149h-119z" />
    <glyph glyph-name="dollar" unicode="$" horiz-adv-x="463" 
d="M219 719v49q0 17 19 17q22 0 22 -19v-47q88 -9 135 -47q17 -15 17 -37q0 -15 -12 -27t-29 -12q-18 6 -52.5 25t-58.5 22v-219q103 -33 155 -82q25 -23 35.5 -56t10.5 -81q-8 -85 -62 -141t-139 -66v-51q0 -10 -5 -14.5t-17 -6.5q-19 0 -19 21v47q-104 0 -170 47
q-26 17 -29 41q6 41 35 41q21 0 33 -8q34 -22 68 -33.5t63 -11.5v278q-101 32 -146.5 73t-45.5 118q0 31 14.5 61t42.5 58q53 53 135 61zM219 439v204q-40 -5 -69 -32t-29 -68q0 -68 98 -104zM260 332v-258q42 7 74 44q16 18 24.5 42t8.5 53q0 39 -21.5 67t-85.5 52z" />
    <glyph glyph-name="percent" unicode="%" horiz-adv-x="740" 
d="M201 37l276 662q9 28 31 28q14 0 25.5 -6.5t11.5 -21.5l-4 -19l-279 -670q-6 -24 -35 -24q-27 0 -34 28zM41 545q0 74 40 124t114 50q65 0 110 -48q41 -45 41 -126q0 -76 -44 -120t-109 -44q-64 0 -109 46q-43 48 -43 118zM107 547q0 -47 25 -80t61 -33q42 0 64 29t22 84
q0 54 -22.5 85.5t-61.5 31.5q-41 0 -64 -33q-11 -16 -17.5 -37.5t-6.5 -46.5zM395 156q0 74 39 124t115 50q66 0 110 -47q40 -44 40 -127q0 -76 -43 -120t-109 -44t-109 47.5t-43 116.5zM461 158q0 -48 23 -79.5t63 -31.5q43 0 64.5 33.5t21.5 81.5q0 53 -23 83t-63 30
q-43 0 -63 -32q-12 -18 -17.5 -37.5t-5.5 -47.5z" />
    <glyph glyph-name="ampersand" unicode="&#x26;" horiz-adv-x="668" 
d="M270 473q93 48 93 107q0 29 -24.5 48.5t-57.5 19.5q-35 0 -55 -20.5t-23 -51.5l2 -13q3 -12 13 -29l25 -31zM426 168l-182 209q-60 -31 -91.5 -72.5t-31.5 -93.5q0 -30 10.5 -53.5t31.5 -45.5q20 -19 43.5 -28.5t53.5 -9.5q49 0 90 23.5t76 70.5zM195 434
q-48 51 -63 81.5t-15 72.5q0 62 49 96.5t115 34.5q44 0 82 -15t61 -44.5t23 -71.5q0 -99 -129 -170l159 -189l32 46l26 41q25 43 47 43q37 0 37 -29t-14 -54q-5 -10 -15 -24.5t-20 -26.5l-43 -53l92 -111q12 -15 12 -34q0 -12 -12.5 -21.5t-26.5 -9.5q-17 0 -29 12l-86 101
q-94 -115 -225 -115q-91 0 -153 58q-31 29 -47.5 67t-16.5 84l2 24l2 17q9 54 40.5 97t115.5 93z" />
    <glyph glyph-name="quotesingle" unicode="'" horiz-adv-x="186" 
d="M33 564l61 122q16 31 43 31q16 0 30 -9q5 -4 9 -11.5t4 -16.5q0 -11 -1 -15.5t-7 -16.5l-63 -121q-13 -29 -41 -35q-39 6 -45 43q2 12 10 29z" />
    <glyph glyph-name="parenleft" unicode="(" horiz-adv-x="203" 
d="M125 699q12 37 43 37q33 0 33 -31q0 -11 -4.5 -29.5t-6.5 -27.5t-8 -24l-12 -40q-11 -54 -17.5 -119t-6.5 -135q0 -112 10 -202q5 -50 14 -90.5t27 -84.5l4 -21q0 -11 -11 -21t-24 -11q-24 0 -39 34q-63 141 -63 404q0 46 4 94.5t13 96.5q17 99 44 170z" />
    <glyph glyph-name="parenright" unicode=")" horiz-adv-x="203" 
d="M115 699q29 -75 45 -175t16 -219q0 -233 -63 -371q-15 -34 -39 -34q-33 0 -37 34q57 168 57 396q0 201 -53 359q0 10 -2 14q3 33 31 33q32 0 45 -37z" />
    <glyph glyph-name="asterisk" unicode="*" horiz-adv-x="389" 
d="M170 580l-12 98q0 18 11 29.5t26 11.5q35 0 35 -35l-4 -51l-5 -53l29 27q15 15 33 24.5t35 11.5q15 0 24.5 -10t9.5 -26q0 -18 -20 -27l-92 -39l96 -39q18 -6 18 -29q0 -35 -36 -35q-16 2 -33 15l-64 51l4 -53l5 -45q0 -39 -37 -43q-13 0 -22.5 10t-12.5 29q12 45 12 96
v6l-33 -29l-32 -23q-16 -11 -35 -14q-12 0 -22 11q-8 11 -11 26q3 21 20 27l93 39l-46 16q-15 5 -26.5 9t-21.5 10q-17 11 -21 31q0 15 9.5 24.5t27.5 11.5q14 0 31 -9.5t34 -25.5z" />
    <glyph glyph-name="plus" unicode="+" horiz-adv-x="600" 
d="M260 295v172q0 17 12 28t29 11q18 0 29 -11q12 -9 12 -28v-172h174q17 0 28 -11.5t11 -29.5q0 -19 -11 -30t-30 -11h-172v-174q0 -17 -13 -29q-11 -8 -28 -10q-15 0 -28 11t-13 30v172h-176q-16 0 -27 12q-9 12 -12 29q0 15 10.5 28t28.5 13h176z" />
    <glyph glyph-name="comma" unicode="," horiz-adv-x="240" 
d="M29 -59l65 127q16 28 41 28q39 0 39 -39q0 -15 -6 -30l-64 -125q-15 -29 -45 -29q-39 0 -39 39q0 15 9 29z" />
    <glyph glyph-name="hyphen" unicode="-" horiz-adv-x="352" 
d="M74 307h201q41 0 41 -39q0 -38 -41 -38h-199q-38 0 -43 36q0 15 11.5 28t29.5 13z" />
    <glyph glyph-name="period" unicode="." horiz-adv-x="240" 
d="M125 96q18 0 34.5 -16t16.5 -35q0 -18 -16 -34.5t-35 -16.5q-18 0 -34.5 16t-16.5 35q0 18 16 34.5t35 16.5z" />
    <glyph glyph-name="slash" unicode="/" horiz-adv-x="406" 
d="M23 55l284 634q11 30 41 30q16 0 27.5 -9.5t11.5 -27.5l-4 -20l-283 -637q-12 -31 -43 -31q-13 0 -24.5 9t-14.5 28l3 13z" />
    <glyph glyph-name="zero" unicode="0" 
d="M33 369q0 42 5 77.5t18 78.5q24 77 76 134q26 29 60.5 44.5t77.5 15.5q78 0 131 -53q50 -50 76.5 -133.5t26.5 -165.5q0 -55 -7 -104t-22 -91q-28 -83 -81.5 -130.5t-123.5 -47.5q-113 0 -175 106.5t-62 268.5zM127 365q0 -125 36 -210t107 -85q44 0 75.5 38t48.5 104
q8 34 12 65.5t4 70.5q0 147 -38.5 221t-105.5 74q-68 0 -103.5 -86t-35.5 -192z" />
    <glyph glyph-name="one" unicode="1" horiz-adv-x="352" 
d="M164 637h-90q-18 0 -29 10q-9 11 -12 27q0 39 43 39h151q25 0 25 -25v-647q0 -22 -12.5 -34.5t-32.5 -12.5q-17 0 -30 13t-13 34v596z" />
    <glyph glyph-name="two" unicode="2" 
d="M51 496q0 91 60.5 157t167.5 66q79 0 135.5 -52.5t56.5 -133.5q0 -73 -53 -144l-236 -313h271q37 0 37 -39q0 -37 -39 -37h-351q-39 0 -43 31q3 21 11 32l270 363q37 51 37 105q0 45 -34 77.5t-79 32.5q-53 0 -94 -45q-18 -22 -25.5 -45.5t-7.5 -54.5q0 -57 -43 -57l-3 2
q-38 0 -38 55z" />
    <glyph glyph-name="three" unicode="3" 
d="M66 557q9 75 63 120q26 22 59.5 32t75.5 10q51 0 90.5 -27t61.5 -69t22 -90q0 -97 -83 -150q60 -18 90 -64.5t30 -109.5v-28q-3 -15 -4 -23q-14 -69 -73 -116.5t-158 -47.5q-72 0 -125.5 40.5t-71.5 100.5q0 7 -2 11l-2 14q0 17 12.5 32t30.5 15q29 0 43 -39
q27 -87 121 -100q52 0 94.5 37.5t42.5 87.5q0 73 -28.5 108t-92.5 35q-55 0 -59 35q0 19 11 26l50 17q45 12 65.5 44t20.5 85q0 42 -31 73q-27 27 -69 27q-41 0 -68.5 -24.5t-33.5 -79.5q0 -18 -12 -30t-29 -15q-16 0 -31 18q-10 13 -10 45z" />
    <glyph glyph-name="four" unicode="4" 
d="M334 184h-283q-39 0 -43 25q3 21 21 51l258 418q24 41 68 41q32 0 49.5 -20t17.5 -51v-388h45q16 0 27.5 -12.5t11.5 -28.5q0 -35 -43 -35h-41v-143q0 -22 -12.5 -34.5t-32.5 -12.5q-19 0 -31 11.5t-12 33.5v145zM334 260v365l-211 -365h211z" />
    <glyph glyph-name="five" unicode="5" 
d="M148 674q5 27 8.5 33t23.5 6h252q19 0 28 -11.5t9 -27.5t-10.5 -26.5t-28.5 -10.5h-201l-30 -194q45 20 90 20q60 0 103.5 -33t65.5 -93q10 -28 13.5 -54t3.5 -62q0 -55 -20 -98t-55 -73q-64 -56 -154 -56q-65 0 -128.5 30t-74.5 87q0 11 9 24t22 13q21 0 37 -17
q60 -57 131 -57q56 0 97.5 40.5t41.5 108.5q0 40 -7.5 69.5t-24.5 48.5q-34 40 -93 40q-26 0 -64 -12t-57 -15q-27 0 -30 31l2 13z" />
    <glyph glyph-name="six" unicode="6" 
d="M309 705q14 12 31 14q15 0 25 -13.5t10 -29.5q0 -14 -11 -28l-33 -30q-21 -15 -28 -26q-35 -37 -62 -76l-52 -84q58 29 112 29q58 0 100.5 -35.5t62.5 -90.5t20 -114q0 -68 -30.5 -119t-81.5 -79.5t-108 -28.5q-93 0 -153 72q-29 36 -44.5 82t-15.5 100l2 31q0 15 2 24
q21 134 96.5 234t157.5 168zM143 260l-4 -35q0 -65 34 -107t91 -42q68 0 99 52q15 24 20.5 54t5.5 72q-6 64 -35.5 97.5t-83.5 33.5q-25 0 -46 -7t-39 -23q-35 -30 -42 -95z" />
    <glyph glyph-name="seven" unicode="7" horiz-adv-x="480" 
d="M68 643q-41 0 -45 37q0 39 43 39h364q45 0 45 -24l-10 -35l-276 -627q-15 -39 -54 -39q-31 0 -35 35l9 35l256 577l2 2h-299z" />
    <glyph glyph-name="eight" unicode="8" 
d="M143 213q0 -54 33 -98.5t90 -44.5q32 0 54.5 9.5t38.5 31.5q34 45 34 104q0 56 -33 99t-94 43q-59 0 -91 -43.5t-32 -100.5zM168 539q0 -48 26 -76.5t76 -28.5q48 0 73.5 31t25.5 76q0 28 -12 50.5t-34 37t-52 14.5q-46 0 -74.5 -27.5t-28.5 -76.5zM180 398
q-94 50 -94 153q0 67 48 117.5t130 50.5q86 0 135.5 -48.5t49.5 -119.5q0 -48 -23 -89.5t-69 -65.5q60 -13 94.5 -62.5t34.5 -116.5q0 -88 -59 -155.5t-157 -67.5q-100 0 -159 68q-62 71 -62 157q0 61 36 114q32 49 95 65z" />
    <glyph glyph-name="nine" unicode="9" 
d="M227 8q-18 -12 -34 -12q-14 0 -23 12.5t-12 26.5l2 12q3 8 33 35l41 39q50 55 112 160q-44 -23 -110 -29q-27 0 -48 5.5t-40 17.5q-51 33 -76 92q-21 55 -21 125q0 66 30.5 118t81.5 80.5t108 28.5q49 0 87 -18.5t66.5 -53.5t43 -82.5t14.5 -101.5q0 -127 -70.5 -243
t-184.5 -212zM395 453v29q0 68 -32.5 111.5t-91.5 43.5q-67 0 -99 -50q-14 -23 -20 -55.5t-6 -72.5q6 -62 35 -95q15 -16 36.5 -26t48.5 -10q51 0 85.5 30.5t43.5 94.5z" />
    <glyph glyph-name="colon" unicode=":" horiz-adv-x="240" 
d="M125 -6q-17 0 -35 15q-16 16 -16 36q0 18 16 34.5t35 16.5q21 0 36 -15t15 -36q0 -20 -15 -37q-16 -14 -36 -14zM125 330q-18 0 -34.5 16t-16.5 35q0 18 16 34.5t35 16.5q21 0 36 -15t15 -36t-15 -36t-36 -15z" />
    <glyph glyph-name="semicolon" unicode=";" horiz-adv-x="240" 
d="M125 330q-18 0 -34.5 16t-16.5 35q0 18 16 34.5t35 16.5q21 0 36 -15t15 -36t-15 -36t-36 -15zM27 -63l69 133q12 26 41 26q16 0 27.5 -9.5t11.5 -27.5q0 -11 -8 -30l-63 -127q-12 -27 -44 -27q-16 0 -27 10.5t-14 28.5q1 13 7 23z" />
    <glyph glyph-name="less" unicode="&#x3c;" horiz-adv-x="600" 
d="M78 297l414 207q16 6 31 8q14 0 24 -9t10 -24q0 -26 -32 -41l-375 -184l381 -190q24 -9 24 -37q0 -13 -8.5 -23t-25.5 -10q-8 0 -27 8l-422 209q-24 14 -27 39q3 29 33 47z" />
    <glyph glyph-name="equal" unicode="=" horiz-adv-x="600" 
d="M514 316h-426q-38 0 -43 39q0 43 43 43h428q18 0 27.5 -12.5t9.5 -28.5t-9.5 -28.5t-29.5 -12.5zM514 107h-426q-38 0 -43 39q0 43 43 43h428q18 0 27.5 -12.5t9.5 -28.5t-9.5 -28.5t-29.5 -12.5z" />
    <glyph glyph-name="greater" unicode="&#x3e;" horiz-adv-x="600" 
d="M523 297q32 -15 32 -47q0 -23 -28 -39l-420 -209q-15 -6 -29 -8q-12 0 -21 9t-12 24q3 30 25 37l381 190l-375 184q-29 14 -35 42q0 12 10 22q10 8 27 10q14 0 31 -8z" />
    <glyph glyph-name="question" unicode="?" horiz-adv-x="443" 
d="M215 -6q-20 0 -38 15q-15 15 -15 36q0 18 15.5 34.5t37.5 16.5q18 0 34.5 -16t16.5 -35q0 -18 -16 -34.5t-35 -16.5zM170 234v133q0 20 10 28.5t40 18.5l38 10q72 18 72 97q0 54 -32.5 85t-84.5 31q-42 0 -70 -19.5t-39 -57t-41 -40.5q-26 9 -35.5 17t-9.5 31l2 20
q12 52 67 91.5t132 39.5q75 0 140 -48q62 -45 69 -128q0 -84 -42.5 -134.5t-127.5 -70.5v-104q0 -19 -13.5 -32t-31.5 -13q-18 2 -30.5 14.5t-12.5 30.5z" />
    <glyph glyph-name="at" unicode="@" horiz-adv-x="801" 
d="M521 482l14 41q6 19 11 23.5t22 6.5q14 0 25 -5t12 -21l-1 -7v-6l-71 -243l-3 -15l-3 -18q0 -24 30 -29q63 15 97 73.5t34 129.5q0 70 -39 127t-106 87q-31 14 -66 20t-75 6t-74 -9.5t-71 -30.5q-66 -36 -106 -104q-20 -34 -30 -72t-10 -86q0 -85 44 -151t112 -102
q34 -17 69 -26.5t70 -9.5q83 0 127.5 18.5t101.5 63.5q33 27 53 27q9 0 16.5 -6t8.5 -18q0 -12 -16 -35q-12 -15 -58 -47q-41 -27 -106 -50q-57 -20 -129 -20q-95 0 -179.5 48t-136 130.5t-51.5 177.5q0 111 53.5 194.5t139.5 127.5q91 47 174 47q38 0 71.5 -4t64.5 -14
q63 -18 111 -57q47 -35 79 -90q15 -26 24.5 -55t9.5 -58q0 -44 -4.5 -75.5t-20.5 -65.5q-30 -67 -88 -112q-29 -22 -62.5 -34.5t-70.5 -12.5q-63 0 -71 58h-4q-22 -27 -52.5 -42.5t-66.5 -15.5q-64 0 -105 48t-41 112q0 31 8.5 62t23.5 63q27 57 77.5 94t116.5 37
q79 0 117 -75zM275 367l-9 -58q0 -73 82 -92q57 0 96.5 62.5t39.5 128.5q0 68 -60 74q-33 0 -55.5 -6.5t-42.5 -24.5q-36 -34 -51 -84z" />
    <glyph glyph-name="A" unicode="A" horiz-adv-x="611" 
d="M168 230h277l-138 387zM141 154l-47 -129q-9 -31 -45 -31q-37 0 -41 35l3 12l3 12l230 615q9 26 25.5 39.5t35.5 13.5q41 0 62 -51l233 -617l4 -26q0 -35 -41 -35q-34 0 -45 33l-47 129h-330z" />
    <glyph glyph-name="B" unicode="B" horiz-adv-x="537" 
d="M59 666q0 47 45 47h160q55 0 95 -23q42 -21 67 -62q27 -41 27 -83q0 -25 -5 -48t-18 -46q-24 -45 -76 -64q89 -20 121.5 -73.5t32.5 -108.5q0 -51 -26 -98t-78 -77t-121 -30h-176q-48 0 -48 47v619zM146 637v-225h102q53 0 86 34q16 18 23.5 37t7.5 42q0 47 -29 79
q-27 33 -78 33h-112zM146 340v-264h118q74 0 115 36q20 18 30.5 42t10.5 53q0 55 -37 94t-110 39h-127z" />
    <glyph glyph-name="C" unicode="C" horiz-adv-x="594" 
d="M543 643q12 -15 12 -34q0 -14 -11 -25t-26 -12q-16 3 -22 8l-71 49q-11 7 -29 10.5t-44 3.5q-74 0 -126 -42t-76 -108q-12 -33 -18.5 -64.5t-6.5 -65.5q0 -35 3 -61.5t14 -63.5q20 -66 68 -116q25 -25 56.5 -38.5t71.5 -13.5q34 0 49 1.5t32 8.5q33 14 87 45q13 8 29 8
q33 0 33 -39q0 -23 -13 -33q-73 -67 -211 -67q-156 0 -234.5 111.5t-78.5 240.5q0 80 19 144.5t61 119.5q83 109 235 109q25 0 36.5 -1.5t43 -8t64.5 -23.5t53 -43z" />
    <glyph glyph-name="D" unicode="D" horiz-adv-x="631" 
d="M150 637v-561h137q76 0 147.5 63t71.5 226q0 125 -63.5 198.5t-167.5 73.5h-125zM63 666q0 47 46 47h180q95 0 167 -47t108 -127.5t36 -179.5q0 -101 -35 -183t-104 -129t-164 -47h-188q-24 0 -34.5 12t-11.5 27v627z" />
    <glyph glyph-name="E" unicode="E" horiz-adv-x="443" 
d="M59 664q0 21 10.5 34.5t26.5 14.5h269q16 0 26.5 -12t10.5 -29q0 -19 -9.5 -30t-29.5 -11h-217v-235h198q16 0 27.5 -11.5t11.5 -29.5q0 -19 -11 -30q-9 -11 -30 -11h-196v-232h219q37 0 37 -43q0 -39 -43 -39h-257q-43 0 -43 47v617z" />
    <glyph glyph-name="F" unicode="F" horiz-adv-x="406" 
d="M59 664q0 21 10.5 34.5t26.5 14.5h269q13 0 23 -13t10 -30t-11 -28t-30 -11h-211v-235h190q16 0 27.5 -11.5t11.5 -30.5q0 -16 -9.5 -28t-27.5 -12h-192v-273q0 -21 -12.5 -34t-31.5 -13t-31 11.5t-12 33.5v625z" />
    <glyph glyph-name="G" unicode="G" horiz-adv-x="668" 
d="M590 631q10 -10 10 -29q0 -15 -13 -27t-30 -12q-18 0 -34 13q-39 30 -76.5 48.5t-94.5 18.5q-116 0 -171 -86q-27 -43 -41.5 -92.5t-14.5 -101.5q0 -36 3.5 -63.5t13.5 -62.5q20 -66 68 -114q25 -25 57 -39t71 -14q29 0 54 4.5t50 15.5q51 23 84 74.5t33 130.5v31h-127
q-35 0 -41 39q0 43 37 43h160q58 0 58 -66v-16q0 -122 -59 -227t-243 -105q-107 0 -177 56t-103 136q-16 43 -24.5 82t-8.5 78q0 51 8 97t26 88q36 85 107 135q38 26 80.5 39.5t93.5 13.5q40 0 71.5 -4.5t68.5 -16.5q68 -24 104 -67z" />
    <glyph glyph-name="H" unicode="H" horiz-adv-x="668" 
d="M59 668q0 22 12 36.5t31 14.5q18 0 31 -14q3 -4 8 -13.5t5 -23.5v-273h375v273q0 24 12.5 38.5t30.5 14.5t31.5 -13.5t13.5 -39.5v-625q0 -24 -12.5 -36.5t-32.5 -12.5q-17 0 -30 13t-13 36v275h-375v-275q0 -24 -12.5 -36.5t-31.5 -12.5q-17 0 -30 12t-13 37v625z" />
    <glyph glyph-name="I" unicode="I" horiz-adv-x="203" 
d="M59 672q0 47 45 47q18 0 30 -12t12 -35v-629q0 -29 -13.5 -38t-28.5 -11q-45 0 -45 47v631z" />
    <glyph glyph-name="J" unicode="J" horiz-adv-x="352" 
d="M225 674q0 21 12 33t31 12q17 0 31 -11.5t14 -33.5v-488q0 -93 -40.5 -142.5t-120.5 -49.5q-28 0 -55 5t-53 17q-52 24 -52 56q0 37 35 37q13 0 24 -4l40 -23q21 -12 57 -12q77 0 77 98v506z" />
    <glyph glyph-name="K" unicode="K" horiz-adv-x="557" 
d="M59 672q0 20 12.5 33.5t30.5 13.5q17 0 30.5 -11.5t13.5 -33.5v-262l315 289q21 18 39 18q16 0 26.5 -12t10.5 -29q0 -23 -17 -37l-293 -264l324 -313q15 -11 15 -35q0 -14 -13 -25.5t-30 -11.5q-23 0 -44 22l-333 326v-301q0 -21 -13 -34q-13 -11 -31 -11
q-19 0 -31 11.5t-12 33.5v633z" />
    <glyph glyph-name="L" unicode="L" horiz-adv-x="369" 
d="M59 672q0 47 45 47q42 0 42 -51v-586h180q22 0 36 -11q15 -9 15 -28q0 -28 -14 -36l-23 -7h-240l-12 2q-7 2 -16 10q-13 13 -13 41v619z" />
    <glyph glyph-name="M" unicode="M" horiz-adv-x="834" 
d="M133 658q3 29 23.5 46t42.5 17t40.5 -12.5t24.5 -36.5l152 -522l154 526q6 22 23.5 33.5t39.5 11.5q26 0 44 -15t24 -44l104 -611q1 -8 1 -11q0 -18 -10 -33q-12 -15 -34 -15q-39 0 -45 39l-82 576l-174 -580q-9 -35 -43 -35q-35 0 -45 35l-172 580l-84 -580
q-3 -20 -17 -31.5t-32 -11.5q-36 0 -41 51l2 20z" />
    <glyph glyph-name="N" unicode="N" horiz-adv-x="666" 
d="M59 674q0 21 10 34t27 13q29 0 50 -30l374 -537l1 518q0 21 13 34t30 13t32 -12q13 -13 13 -35v-635q0 -22 -10 -33.5t-29 -11.5q-27 0 -49 28l-373 537l-2 2v-522q0 -20 -13 -31.5t-31 -11.5t-30.5 11t-12.5 34v635z" />
    <glyph glyph-name="O" unicode="O" horiz-adv-x="684" 
d="M31 355q0 149 84 256.5t229 107.5q97 0 166 -48.5t107 -134.5q18 -40 28.5 -87t10.5 -94q0 -96 -37.5 -180t-109 -132.5t-165.5 -48.5q-132 0 -222.5 101t-90.5 260zM125 357q0 -107 50.5 -197t168.5 -90q94 0 156.5 74.5t62.5 212.5q0 141 -61.5 213.5t-157.5 72.5
q-32 0 -58.5 -7t-52.5 -25q-49 -33 -78.5 -99.5t-29.5 -154.5z" />
    <glyph glyph-name="P" unicode="P" horiz-adv-x="520" 
d="M59 666q0 47 43 47h177q32 0 60 -6t55 -20q50 -23 83 -75q15 -24 24 -55.5t9 -66.5q0 -59 -28.5 -110.5t-79 -82.5t-111.5 -31h-145v-229q0 -18 -12.5 -30.5t-31.5 -12.5t-31 11.5t-12 33.5v627zM146 637v-295h125q66 0 108.5 42t42.5 108q0 65 -42 105t-105 40h-129z
" />
    <glyph glyph-name="Q" unicode="Q" horiz-adv-x="684" 
d="M31 355q0 149 84 256.5t229 107.5q97 0 166 -48.5t107 -134.5q18 -40 28.5 -87t10.5 -94q0 -30 -4 -60.5t-13 -61.5q-16 -60 -45 -102l82 -82q8 -11 8 -28q0 -12 -11 -21.5t-28 -11.5q-15 0 -30 12l-72 70q-82 -76 -199 -76q-132 0 -222.5 101t-90.5 260zM125 357
q0 -107 50.5 -197t168.5 -90q83 0 142 57l-64 62q-12 12 -16 32q0 13 11 25t26 12q17 0 34 -12l52 -53q16 37 25 79t9 85q0 141 -61.5 213.5t-157.5 72.5q-32 0 -58.5 -7t-52.5 -25q-49 -33 -78.5 -99.5t-29.5 -154.5z" />
    <glyph glyph-name="R" unicode="R" horiz-adv-x="520" 
d="M146 637v-254h124q73 0 100 33q13 16 20.5 41t7.5 55q0 56 -38 90.5t-94 34.5h-120zM59 666q0 47 43 47h171q52 0 103 -24.5t84 -73.5q15 -23 20.5 -50t5.5 -65q0 -49 -16.5 -84t-48.5 -58q-57 -42 -167 -42l228 -250q18 -15 18 -39q0 -12 -12.5 -21.5t-28.5 -9.5
q-24 0 -41 18l-272 299v-276q0 -20 -13 -31.5t-31 -11.5t-30.5 11t-12.5 34v627z" />
    <glyph glyph-name="S" unicode="S" horiz-adv-x="463" 
d="M383 682q29 -18 29 -47q0 -15 -13 -27t-28 -12q-19 5 -48 18l-47 21q-19 8 -42 8q-48 0 -78.5 -27.5t-36.5 -76.5q0 -59 84 -96l77 -29q58 -18 95 -41q36 -20 59 -55q27 -45 27 -101q0 -89 -64 -156t-176 -67q-56 0 -104 14q-26 7 -43.5 15t-34 21t-19.5 38q0 17 10.5 30
t28.5 13q10 0 25 -8q71 -47 148 -47q54 0 93.5 41.5t39.5 97.5q0 38 -21.5 64.5t-54.5 41.5q-7 3 -30.5 13t-38.5 16l-72 25q-60 30 -90.5 64.5t-30.5 97.5q0 55 29 96.5t80.5 66.5t103.5 25q87 0 143 -37z" />
    <glyph glyph-name="T" unicode="T" horiz-adv-x="426" 
d="M178 631h-137q-16 0 -28 12q-10 12 -13 29q0 41 43 41h357q20 0 31.5 -11.5t11.5 -29.5q0 -19 -9.5 -30t-29.5 -11h-138v-592q0 -21 -13 -34q-13 -11 -32 -11t-31 11.5t-12 33.5v592z" />
    <glyph glyph-name="U" unicode="U" horiz-adv-x="666" 
d="M59 674q0 21 12 33t31 12q17 0 30.5 -11.5t13.5 -33.5v-428q0 -84 54 -130t140 -46q81 0 132 49t51 127v428q0 21 12 33t29 12t31 -11.5t14 -33.5v-399q0 -87 -30 -149.5t-91 -97t-150 -34.5q-138 0 -208.5 75t-70.5 204v401z" />
    <glyph glyph-name="V" unicode="V" horiz-adv-x="557" 
d="M8 652l-8 32q0 18 11 32q12 12 28 13q34 0 51 -45l187 -541l190 543q12 35 47 35q39 0 39 -43l-4 -24l-221 -617q-11 -25 -20 -34t-29 -9q-34 -3 -49 39z" />
    <glyph glyph-name="W" unicode="W" horiz-adv-x="816" 
d="M701 53q-3 -29 -23 -46t-45 -17q-51 0 -63 47l-152 524l-154 -526q-6 -20 -24 -34q-19 -11 -41 -11q-23 0 -41.5 14.5t-24.5 44.5l-104 611q-1 8 -1 11q0 17 10 32q13 16 32 16q39 0 47 -39l82 -576l174 580q9 35 41 35q35 0 47 -35l172 -580l84 580q3 18 16.5 30.5
t30.5 12.5t29 -12.5t12 -40.5v-18z" />
    <glyph glyph-name="X" unicode="X" horiz-adv-x="594" 
d="M246 383l-187 263q-13 23 -16 38q0 15 11 25q11 8 28 10q30 0 45 -24l170 -248l170 248q15 24 43 24q15 0 26 -9.5t11 -27.5t-12 -36l-187 -263l226 -319q12 -15 12 -35q0 -13 -12 -25q-13 -10 -29 -10q-23 0 -39 22l-209 297l-209 -297q-14 -22 -41 -22q-12 0 -24 9.5
t-15 27.5q3 15 12 30z" />
    <glyph glyph-name="Y" unicode="Y" horiz-adv-x="482" 
d="M207 336l-195 316q-9 19 -12 32q0 15 11 25q11 8 28 10q26 0 43 -24l168 -273l168 271q14 26 41 26q17 0 28 -9.5t11 -27.5q0 -16 -8 -28l-195 -318v-295q0 -24 -13 -36.5t-32 -12.5q-16 0 -30 13q-13 15 -13 36v295z" />
    <glyph glyph-name="Z" unicode="Z" horiz-adv-x="557" 
d="M406 637h-324q-39 0 -43 37q0 39 45 39h391q45 0 45 -35q0 -16 -16 -41l-373 -561h361q20 0 30 -11q11 -9 11 -26q0 -13 -11.5 -26t-31.5 -13h-418q-46 0 -51 39q2 18 14 37z" />
    <glyph glyph-name="bracketleft" unicode="[" horiz-adv-x="223" 
d="M76 670q0 49 47 49h68q17 0 29 -12q8 -10 10 -27q0 -13 -11 -25t-26 -12h-35v-649h33q18 0 27.5 -11t11.5 -28q0 -14 -11.5 -25.5t-30.5 -11.5h-65q-47 0 -47 47v705z" />
    <glyph glyph-name="backslash" unicode="\" horiz-adv-x="406" 
d="M27 652l-9 32q0 19 11 27.5t26 9.5q30 0 43 -26l285 -640q6 -15 6 -30q0 -14 -11 -23.5t-26 -11.5q-29 0 -41 28z" />
    <glyph glyph-name="bracketright" unicode="]" horiz-adv-x="223" 
d="M164 -33q0 -24 -13 -36.5t-32 -12.5h-70q-39 0 -39 39q0 13 11 25t26 12h35v649h-33q-17 0 -27.5 10.5t-13.5 28.5q0 37 45 37h64q47 0 47 -47v-705z" />
    <glyph glyph-name="asciicircum" unicode="^" horiz-adv-x="600" 
d="M63 346l191 342q18 33 45 33q29 0 49 -35l191 -340q6 -12 6 -24q0 -14 -10 -23t-27 -12q-24 3 -39 31l-168 313l-174 -318q-10 -22 -37 -26q-11 0 -23 9q-9 9 -12 26q3 17 8 24z" />
    <glyph glyph-name="underscore" unicode="_" horiz-adv-x="500" 
d="M0 -125q-31 0 -31 29q0 22 29 22h502q15 0 22 -6t9 -20q0 -25 -31 -25h-500z" />
    <glyph glyph-name="grave" unicode="`" horiz-adv-x="203" 
d="M227 824q-26 9 -32 37q0 15 13 28q13 11 30 13q13 0 16 -2l133 -56q33 -11 33 -39q0 -33 -43 -37l-13 3l-10 2z" />
    <glyph glyph-name="a" unicode="a" horiz-adv-x="557" 
d="M123 266q0 -41 8 -75t27 -63q38 -58 106 -58q80 0 115 57t35 139q0 90 -39 143.5t-105 53.5q-37 0 -64 -14.5t-45 -41.5t-28 -62.5t-10 -78.5zM416 496q0 17 12 30t29 13q15 0 28 -12t13 -33v-455q0 -21 -13 -34q-11 -9 -28 -11q-15 0 -29 10q-12 11 -12 31v39
q-60 -80 -141 -80q-36 0 -65 7t-57 24q-53 33 -85.5 95t-32.5 144q0 89 33.5 151t87.5 93t108 31q49 0 82 -17q34 -15 68 -55z" />
    <glyph glyph-name="b" unicode="b" horiz-adv-x="557" 
d="M434 268q0 83 -38 138q-19 28 -44 42.5t-59 14.5q-43 0 -77.5 -21.5t-54.5 -65.5q-10 -22 -16 -47.5t-6 -58.5l2 -3q0 -83 38 -142q35 -55 116 -55q34 0 59.5 15t44.5 45q35 58 35 138zM150 467q59 72 145 72q66 0 117 -36t80 -100t29 -139q0 -29 -4 -56.5t-13 -52.5
q-15 -46 -46.5 -84t-77.5 -59q-44 -18 -95 -18q-95 0 -133 72l-2 -29q0 -19 -13.5 -31t-31.5 -12t-30 11.5t-12 33.5v688q0 21 12.5 33.5t29.5 12.5q19 0 32 -11t13 -33v-262z" />
    <glyph glyph-name="c" unicode="c" horiz-adv-x="443" 
d="M414 490l4 -19q0 -32 -39 -37l-53 18q-27 9 -51 9q-68 0 -110 -57q-21 -29 -31.5 -61t-10.5 -70q0 -39 6 -70t22.5 -63t44 -51t61.5 -19q14 0 18 -2q17 0 33 5t26.5 9.5t23.5 11t23 6.5q15 0 24 -9.5t9 -27.5q0 -39 -47 -54t-92 -15q-73 0 -126.5 34.5t-83.5 94.5
q-15 32 -22.5 63t-7.5 68q0 120 58 200q31 42 75 63.5t103 21.5q58 0 93 -14q37 -13 50 -35z" />
    <glyph glyph-name="d" unicode="d" horiz-adv-x="557" 
d="M123 268q0 -41 8.5 -75.5t25.5 -62.5q38 -60 105 -60q82 0 116 55q19 30 28.5 64.5t9.5 76.5q0 89 -40 143t-106 54q-72 0 -109.5 -60.5t-37.5 -134.5zM406 729q0 20 13.5 32t29.5 12q17 0 31 -11.5t14 -34.5v-688q0 -21 -13 -34q-13 -11 -32 -11q-15 0 -30 12
q-13 13 -13 31v29q-38 -72 -135 -72q-36 0 -66 7t-57 25q-52 34 -82 95q-15 33 -23 66t-8 77q0 72 27.5 136t79.5 101.5t118 37.5q90 0 144 -72z" />
    <glyph glyph-name="e" unicode="e" horiz-adv-x="520" 
d="M92 458q63 81 168 81q72 0 123 -38q52 -35 81.5 -97.5t29.5 -128.5q0 -43 -49 -43h-332q0 -77 46 -119.5t116 -42.5q78 0 143 55q20 14 33 16q15 0 22 -10t9 -27q0 -15 -13 -32q-28 -30 -83 -55q-25 -11 -54.5 -17t-61.5 -6q-123 0 -185 84t-62 188l2 4q0 55 16.5 99.5
t50.5 88.5zM113 299h293q0 73 -38.5 118.5t-103.5 45.5q-66 0 -108 -43q-20 -21 -31.5 -52t-11.5 -69z" />
    <glyph glyph-name="f" unicode="f" horiz-adv-x="240" 
d="M86 457h-37q-43 0 -43 41q3 35 45 35h35v127q0 48 33 80q18 16 37.5 24.5t44.5 8.5q78 0 78 -41q0 -13 -12 -25q-13 -10 -33 -10h-27q-33 0 -33 -39v-125h56q39 0 43 -35q0 -41 -43 -41h-56v-418q0 -21 -13 -34q-13 -11 -32 -11t-31 11.5t-12 33.5v418z" />
    <glyph glyph-name="g" unicode="g" horiz-adv-x="557" 
d="M123 266q0 -84 38 -140t103 -56q34 0 60.5 11.5t48.5 36.5q43 52 43 142q0 79 -38 141t-116 62q-34 0 -60.5 -15.5t-44.5 -45.5q-34 -54 -34 -136zM406 70q-45 -76 -144 -76q-66 0 -117.5 36t-80.5 99.5t-29 140.5q0 118 67 196q63 73 169 73q97 0 133 -74l2 29
q0 19 12 31t31 12q20 0 32.5 -11t12.5 -34v-455q0 -110 -63 -182q-32 -37 -73.5 -54.5t-99.5 -17.5q-87 0 -166 47q-39 25 -43 55q6 30 35 37q26 -3 59 -24q54 -39 119 -39q76 0 113 65q16 29 23.5 65.5t7.5 80.5z" />
    <glyph glyph-name="h" unicode="h" 
d="M59 727q0 21 12.5 33.5t30.5 12.5q17 0 30.5 -12.5t13.5 -33.5v-256l2 -2q20 29 58.5 49.5t84.5 20.5q52 0 95 -26.5t69 -72.5q11 -21 18 -46.5t7 -51.5v-303q0 -21 -13 -34q-13 -11 -31 -11q-19 0 -31 11.5t-12 33.5v291q0 56 -34 94.5t-88 38.5q-51 0 -88 -34t-37 -97
v-293q0 -21 -13 -34q-13 -11 -31 -11q-19 0 -31 11.5t-12 33.5v688z" />
    <glyph glyph-name="i" unicode="i" horiz-adv-x="203" 
d="M59 492q0 20 12.5 33.5t30.5 13.5q17 0 30.5 -11.5t13.5 -33.5v-455q0 -21 -13 -34q-13 -11 -31 -11q-19 0 -31 11.5t-12 33.5v453zM102 609q-25 0 -44 18q-18 20 -18 44q0 23 17 42.5t45 19.5q25 0 43 -18.5t18 -43.5t-18.5 -43.5t-42.5 -18.5z" />
    <glyph glyph-name="j" unicode="j" horiz-adv-x="203" 
d="M59 492q0 20 12.5 33.5t30.5 13.5q17 0 30.5 -11.5t13.5 -33.5v-664q0 -21 -13 -34t-31 -13t-30.5 12.5t-12.5 34.5v662zM102 609q-25 0 -44 18q-18 20 -18 44q0 23 17 42.5t45 19.5q25 0 43 -18.5t18 -43.5t-18.5 -43.5t-42.5 -18.5z" />
    <glyph glyph-name="k" unicode="k" horiz-adv-x="443" 
d="M59 729q0 20 12.5 31t30.5 11q44 0 44 -44v-377l206 173q16 14 35 14q16 0 26.5 -12t10.5 -29q0 -18 -16 -31l-205 -162l235 -231q17 -17 17 -43q0 -15 -10 -25t-27 -10q-23 0 -45 22l-227 236v-213q0 -21 -13 -34q-13 -11 -31 -11q-19 0 -31 11.5t-12 33.5v690z" />
    <glyph glyph-name="l" unicode="l" horiz-adv-x="203" 
d="M59 725q0 21 12.5 33.5t30.5 12.5q19 0 31.5 -11t12.5 -33v-686q0 -21 -12.5 -34t-31.5 -13q-17 0 -30 12t-13 35v684z" />
    <glyph glyph-name="m" unicode="m" horiz-adv-x="832" 
d="M59 496q0 18 13.5 29.5t31.5 11.5t30 -11.5t12 -33.5v-17q53 64 139 64q45 0 80.5 -22.5t62.5 -67.5q65 90 168 90q75 0 128 -53t53 -140v-309q0 -19 -13.5 -31t-31.5 -12q-15 0 -30 12q-13 13 -13 31v303q0 60 -31.5 91.5t-79.5 31.5q-51 0 -84 -29t-33 -94v-303
q0 -20 -13.5 -30.5t-31.5 -10.5q-16 0 -29.5 11t-13.5 30v299q0 64 -33 95.5t-80 31.5t-80.5 -28.5t-33.5 -88.5v-309q0 -18 -12.5 -30.5t-31.5 -12.5q-16 0 -29.5 12.5t-13.5 30.5v459z" />
    <glyph glyph-name="n" unicode="n" 
d="M59 492q0 20 12.5 33.5t30.5 13.5t31 -13t13 -34v-21l2 -2q24 33 64 51.5t81 18.5q50 0 92 -23q43 -21 69 -67.5t26 -112.5v-297q0 -20 -13 -31.5t-31 -11.5q-43 0 -43 43v295q0 60 -37 93.5t-86 33.5t-86.5 -34t-37.5 -95v-293q0 -20 -12.5 -33.5t-29.5 -13.5t-31 12.5
t-14 34.5v453z" />
    <glyph glyph-name="o" unicode="o" 
d="M123 266q0 -73 36.5 -134.5t108.5 -61.5t109 55q18 27 28.5 64t10.5 77q0 85 -38 141t-108 56q-69 0 -108 -55.5t-39 -141.5zM35 266q0 117 66 195t169 78q73 0 124 -38q53 -36 81.5 -100t28.5 -135q0 -36 -7 -70t-22 -66q-27 -62 -80.5 -99t-124.5 -37
q-106 0 -170.5 80.5t-64.5 191.5z" />
    <glyph glyph-name="p" unicode="p" horiz-adv-x="557" 
d="M434 266q0 47 -15 93t-47 75t-77 29q-79 0 -116 -55q-19 -29 -28.5 -64t-9.5 -76q0 -91 40 -144q19 -27 45.5 -41.5t58.5 -14.5l8 2q64 0 103 58q19 28 28.5 62t9.5 76zM150 -170q0 -53 -43 -53q-16 0 -31 15q-13 15 -13 36v664q0 20 12.5 33.5t29.5 13.5t31 -11.5
t14 -33.5v-27q20 35 53 53.5t82 18.5q36 0 66 -7t57 -25q51 -32 82 -95t31 -142q0 -74 -27 -137.5t-82 -102.5q-51 -36 -117 -36q-87 0 -143 72z" />
    <glyph glyph-name="q" unicode="q" horiz-adv-x="557" 
d="M123 266q0 -82 36 -138q18 -27 45 -42.5t60 -15.5q68 0 109 50.5t41 141.5q0 82 -37 141.5t-117 59.5q-34 0 -59.5 -15t-44.5 -45q-33 -55 -33 -137zM406 66h-4q-48 -72 -142 -72q-99 0 -163 80.5t-64 195.5q0 117 68 196q64 73 169 73q56 0 89 -23q33 -21 45 -49l2 27
q0 21 12.5 33t30.5 12q17 0 32 -12q13 -13 13 -35v-664q0 -23 -12.5 -37t-34.5 -14q-16 0 -28.5 14t-12.5 39v236z" />
    <glyph glyph-name="r" unicode="r" horiz-adv-x="314" 
d="M59 492q0 21 12 33t31 12q17 0 30.5 -11.5t13.5 -33.5v-45q21 33 53 62q17 14 33.5 22t33.5 8q18 0 34 -13t16 -32q0 -24 -16 -33.5t-47 -18.5q-30 -7 -36 -12q-71 -39 -71 -133v-258q0 -21 -12 -33t-30 -12q-17 0 -32 12q-13 13 -13 35v451z" />
    <glyph glyph-name="s" unicode="s" horiz-adv-x="443" 
d="M47 53q-20 14 -24 43q0 16 11 27.5t27 11.5q17 0 46 -21l38 -24q28 -15 74 -20q23 0 39 3t35 13q35 18 35 57q0 37 -41 60q-14 8 -44.5 21t-48.5 20q-70 28 -108.5 59.5t-38.5 87.5q0 60 49 102q24 21 56.5 33.5t68.5 12.5q49 0 93.5 -15.5t67 -37t22.5 -41.5
q0 -15 -10.5 -25.5t-28.5 -13.5q-16 3 -60 30t-75 27q-49 0 -71.5 -18.5t-25.5 -48.5q6 -31 34 -52q30 -19 83 -39q56 -18 57 -20q111 -45 111 -135q0 -62 -52.5 -109t-144.5 -47q-106 0 -174 59z" />
    <glyph glyph-name="t" unicode="t" horiz-adv-x="240" 
d="M86 457h-39q-39 0 -43 37q0 39 43 39h39v119q0 19 12.5 30t30.5 11q20 0 32.5 -10.5t12.5 -32.5v-117h39q41 0 41 -39q0 -16 -10.5 -26.5t-26.5 -10.5h-43v-420q0 -19 -14 -32q-14 -11 -33 -11q-15 0 -29 11q-12 12 -12 34v418z" />
    <glyph glyph-name="u" unicode="u" 
d="M59 494q0 21 12 33t31 12q17 0 30.5 -11.5t13.5 -33.5v-291q0 -60 30.5 -96.5t91.5 -36.5q125 0 125 133v291q0 21 12 33t31 12q17 0 30.5 -11.5t13.5 -33.5v-293q0 -88 -52 -147.5t-162 -59.5q-102 0 -154.5 60t-52.5 147v293z" />
    <glyph glyph-name="v" unicode="v" horiz-adv-x="426" 
d="M10 473l-8 31q0 18 12.5 30.5t28.5 12.5q34 0 47 -37l123 -375l125 375q9 31 41 31q19 0 30 -11q13 -10 13 -30l-4 -21l-158 -448q-15 -37 -47 -37t-45 35z" />
    <glyph glyph-name="w" unicode="w" horiz-adv-x="740" 
d="M4 479q-1 7 -2 9l-2 10q0 17 12.5 28t30.5 11q37 0 47 -31l117 -375l2 -2l117 373q12 41 45 41t45 -41l119 -371l117 369q12 39 47 39q15 0 28 -13t13 -30l-4 -21l-150 -438q-15 -43 -49 -43q-35 0 -51 49l-113 355l-113 -347q-17 -57 -55 -57q-34 0 -53 53z" />
    <glyph glyph-name="x" unicode="x" horiz-adv-x="463" 
d="M182 281l-141 184q-11 14 -16 37q0 15 11 26q11 9 28 11q22 0 38 -19l130 -174l129 172q14 21 37 21q16 0 27 -11t11 -30q0 -14 -12 -31l-141 -186l160 -209q18 -21 18 -49q0 -14 -11 -24q-9 -11 -26 -11q-24 0 -47 30l-145 201l-146 -203q-16 -22 -43 -22
q-12 0 -25.5 11t-13.5 28q3 22 17 41z" />
    <glyph glyph-name="y" unicode="y" horiz-adv-x="426" 
d="M180 20l-159 455q0 8 -5 23q0 17 12 28t29 11q35 0 45 -31l121 -365l123 367q9 31 41 31q18 0 29.5 -11t11.5 -32l-4 -21l-231 -657q-11 -39 -48 -39q-36 0 -36 41l6 28z" />
    <glyph glyph-name="z" unicode="z" horiz-adv-x="443" 
d="M70 533h301q41 0 41 -31q0 -18 -17 -45l-258 -381h246q43 0 43 -39q0 -14 -13 -25.5t-30 -11.5h-320q-44 0 -47 25q3 25 23 53l254 379h-225q-15 0 -28 10q-10 10 -13 27q0 39 43 39z" />
    <glyph glyph-name="braceleft" unicode="{" horiz-adv-x="258" 
d="M66 320v-4q46 0 69 -34.5t23 -101.5v-147q0 -42 26 -51q8 -4 28 -4q21 0 32.5 -6.5t11.5 -24.5q0 -29 -39 -29h-43q-46 0 -72 28.5t-26 73.5v154q0 51 -11.5 75.5t-46 33.5t-34.5 35q0 27 34 35t46 32t12 78v154q0 46 26.5 74t71.5 28h43q39 0 39 -31q0 -16 -11.5 -22.5
t-29.5 -6.5q-21 0 -31 -5q-26 -9 -26 -50v-147q0 -128 -92 -137z" />
    <glyph glyph-name="bar" unicode="|" horiz-adv-x="223" 
d="M70 734q0 18 12.5 27.5t28.5 9.5q41 0 41 -39v-699q0 -16 -12 -26.5t-29 -12.5q-15 0 -29 10q-12 11 -12 31v699z" />
    <glyph glyph-name="braceright" unicode="}" horiz-adv-x="258" 
d="M174 316v4q-47 0 -69.5 40.5t-22.5 96.5v147q0 40 -25 50l-38 6q-35 5 -35 29q0 13 11 20.5t28 9.5h45q45 0 70.5 -29t25.5 -73l2 -154q0 -52 10.5 -76t45 -33t34.5 -38q0 -24 -35 -33t-45 -33t-10 -76l-2 -154q0 -44 -26 -73q-24 -29 -70 -29h-45q-39 0 -39 29
q0 18 9.5 23t34.5 8q24 0 29 4q25 9 25 51v147q0 55 22 95.5t70 40.5z" />
    <glyph glyph-name="asciitilde" unicode="~" horiz-adv-x="600" 
d="M64 211q0 42 42.5 77.5t86.5 35.5q54 0 117 -33t94 -33q14 0 25 9l23 25q11 15 22.5 23.5t27.5 8.5q15 0 24 -7.5t11 -19.5q0 -41 -42 -78t-89 -37q-55 0 -117 33l-46 22q-29 13 -46 13q-21 0 -46 -34t-51 -34q-14 0 -26 9q-9 9 -10 20z" />
    <glyph glyph-name="nonbreakingspace" unicode="&#xa0;" horiz-adv-x="500" 
 />
    <glyph glyph-name="exclamdown" unicode="&#xa1;" horiz-adv-x="277" 
d="M104 297q0 18 12.5 30.5t29.5 12.5q18 0 31.5 -11.5t13.5 -33.5v-438q0 -21 -13.5 -32t-31.5 -11q-42 0 -42 43v440zM148 537q21 0 36 -14.5t15 -36.5q0 -18 -15 -34t-36 -16q-19 0 -35.5 15.5t-16.5 34.5q0 21 15 36t37 15z" />
    <glyph glyph-name="cent" unicode="&#xa2;" horiz-adv-x="443" 
d="M227 455q-50 -19 -77 -70q-12 -24 -19.5 -53.5t-7.5 -58.5q0 -30 5 -58t18 -58q25 -56 81 -79v377zM270 70q29 0 44 5t45 19q12 6 22 6q15 0 24 -9.5t9 -27.5q0 -39 -47 -55q-47 -14 -97 -14v-55q0 -19 -24 -19q-19 0 -19 21v57q-103 21 -150 101q-21 37 -31.5 84
t-10.5 100q0 99 56 169q52 66 136 83v59q0 19 19 19q24 0 24 -21v-55q53 0 100.5 -14t47.5 -52q0 -32 -39 -37l-61 21q-22 8 -48 8v-393z" />
    <glyph glyph-name="sterling" unicode="&#xa3;" horiz-adv-x="594" 
d="M174 316h-104q-38 0 -43 39q0 43 43 43h80q-26 43 -38 76.5t-12 66.5q0 78 72 131q66 47 152 47q27 0 52 -7.5t54 -22.5q52 -26 81 -64q30 -36 36 -76q0 -25 -9 -34l-38 -17q-14 1 -23 12l-20 33q-22 46 -52 70q-27 24 -91 24q-51 0 -88 -27.5t-37 -82.5q0 -19 7 -39
t16 -36l30 -54h133q16 0 27.5 -11.5t11.5 -29.5q0 -19 -11 -30q-9 -11 -28 -11h-113q6 -24 6 -58q0 -87 -84 -176h339q18 0 29.5 -11.5t11.5 -29.5q0 -19 -11 -30q-9 -11 -30 -11h-414q-15 0 -27.5 8.5t-15.5 26.5q3 24 24 47q41 39 66.5 79.5t25.5 92.5q0 17 -3 34.5
t-5 27.5z" />
    <glyph glyph-name="currency" unicode="&#xa4;" 
d="M270 184q63 0 113.5 48.5t50.5 124.5q0 72 -46 121q-23 24 -52.5 37.5t-65.5 13.5q-63 0 -115.5 -46t-52.5 -126q0 -68 45.5 -120.5t122.5 -52.5zM68 506l-37 39q-8 8 -11 23q0 15 9.5 24.5t25.5 11.5q14 0 19 -8l43 -45q56 53 153 53q46 0 84 -13.5t64 -39.5l45 45
q6 6 19 8q11 0 21 -11t11 -27q0 -13 -8 -21l-39 -39q49 -57 49 -151q0 -90 -49 -148l39 -39q9 -8 10 -25q0 -12 -11 -23t-25 -13q-12 3 -17 8l-45 47q-28 -26 -65.5 -40.5t-84.5 -14.5q-89 0 -149 55l-45 -43q-9 -9 -21 -12q-11 0 -20 10.5t-12 27.5q3 16 10 23l37 39
q-23 29 -35.5 66t-12.5 81q0 47 13 86t35 66z" />
    <glyph glyph-name="yen" unicode="&#xa5;" 
d="M225 262v70h-139q-38 0 -43 33q3 33 41 33h100l-166 254q-8 14 -12 32q0 14 11 23.5t26 11.5q26 0 45 -28l180 -269l177 266q22 31 49 31q33 0 33 -35q0 -8 -9 -32l-164 -254h97q39 0 39 -33q0 -14 -9.5 -23.5t-29.5 -9.5h-138v-70h138q18 0 28 -9.5t11 -23.5
q0 -34 -41 -34h-136v-156q0 -21 -13 -34q-13 -11 -32 -11t-31 11.5t-12 33.5v156h-141q-35 0 -39 32q3 35 39 35h141z" />
    <glyph glyph-name="brokenbar" unicode="&#xa6;" horiz-adv-x="156" 
d="M78 725q0 18 10.5 29.5t26.5 11.5q35 0 35 -34v-709q0 -35 -37 -35q-13 0 -23 9t-12 26v702z" />
    <glyph glyph-name="section" unicode="&#xa7;" horiz-adv-x="557" 
d="M150 441q-66 39 -66 116q0 64 57 115q54 47 158 47q87 0 142 -45.5t61 -101.5q0 -22 -11.5 -37t-29.5 -15q-29 0 -46 42.5t-49.5 61.5t-84.5 19q-44 0 -77 -24q-32 -26 -32 -60q3 -33 29 -55t112 -64l117 -57q32 -15 64.5 -55t32.5 -101q0 -105 -107 -170q64 -46 64 -116
q0 -61 -54 -108q-28 -25 -64.5 -37.5t-86.5 -12.5q-29 0 -41.5 1.5t-36.5 7.5q-37 10 -71 31q-34 19 -53.5 43t-25.5 50q-2 14 -2 19q0 14 7 25q12 16 34 19q32 -3 47 -34q24 -47 54 -66q15 -10 35.5 -15t50.5 -5q58 0 88 23t30 57q0 45 -49 73q-20 11 -86 39.5t-118 56.5
t-83 67q-15 20 -24.5 45t-9.5 51q0 52 31 97.5t94 72.5zM227 395q-52 -18 -82 -50.5t-30 -67.5q0 -61 94 -107l145 -72q87 60 87 131q0 68 -82 105z" />
    <glyph glyph-name="dieresis" unicode="&#xa8;" horiz-adv-x="203" 
d="M-45 658q0 23 16 39t39 16q22 0 37.5 -15.5t15.5 -39.5q0 -21 -15 -37t-38 -16q-22 0 -38.5 15.5t-16.5 37.5zM141 658q0 20 15 37.5t39 17.5q23 0 39 -16t16 -39q0 -22 -15.5 -37.5t-39.5 -15.5q-22 0 -38 15t-16 38z" />
    <glyph glyph-name="copyright" unicode="&#xa9;" horiz-adv-x="801" 
d="M271 357q0 -61 36.5 -107.5t94.5 -46.5q47 0 66 15.5t41 46t40 30.5q33 0 33 -27q0 -20 -21.5 -51.5t-62.5 -56.5q-41 -23 -96 -23q-94 0 -153.5 64t-59.5 156q0 65 25.5 114.5t75 79t112.5 29.5q58 0 98.5 -23t61 -52.5t20.5 -51.5q0 -12 -9 -19.5t-24 -9.5
q-20 0 -44 30q-22 31 -39.5 45.5t-63.5 14.5q-43 0 -71.5 -19.5t-44 -55.5t-15.5 -82zM400 68q76 0 139 38.5t102 105.5t39 143q0 77 -37 143t-101 105.5t-142 39.5q-74 0 -139 -39t-103.5 -106t-38.5 -143q0 -77 38 -143t103 -105t140 -39zM400 -6q-95 0 -179.5 48
t-134 132t-49.5 181q0 99 48.5 182t133.5 132.5t181 49.5q75 0 140 -27.5t116 -78.5t80 -118q14 -33 21 -67t7 -73q0 -98 -48.5 -181t-133 -131.5t-182.5 -48.5z" />
    <glyph glyph-name="ordfeminine" unicode="&#xaa;" horiz-adv-x="463" 
d="M383 682q29 -18 29 -47q0 -15 -13 -27t-28 -12q-19 5 -48 18l-47 21q-19 8 -42 8q-48 0 -78.5 -27.5t-36.5 -76.5q0 -59 84 -96l77 -29q58 -18 95 -41q36 -20 59 -55q27 -45 27 -101q0 -89 -64 -156t-176 -67q-56 0 -104 14q-26 7 -43.5 15t-34 21t-19.5 38q0 17 10.5 30
t28.5 13q10 0 25 -8q71 -47 148 -47q54 0 93.5 41.5t39.5 97.5q0 38 -21.5 64.5t-54.5 41.5q-7 3 -30.5 13t-38.5 16l-72 25q-60 30 -90.5 64.5t-30.5 97.5q0 55 29 96.5t80.5 66.5t103.5 25q87 0 143 -37zM129 -151l46 89q11 20 29 20q27 0 27 -28q0 -7 -4 -21l-45 -87
q-11 -20 -32 -20q-24 0 -27 27q2 13 6 20z" />
    <glyph glyph-name="guillemotleft" unicode="&#xab;" horiz-adv-x="389" 
d="M37 268l100 179q12 26 35 26q13 0 25 -11.5t12 -23.5t-10 -32l-82 -138l86 -143l8 -27q0 -28 -41 -35q-20 0 -31 25zM195 268l100 179q12 26 37 26q13 0 24 -9.5t13 -24.5q0 -12 -12 -33l-82 -138l86 -143q8 -13 8 -29q0 -25 -39 -33q-19 0 -33 25z" />
    <glyph glyph-name="logicalnot" unicode="&#xac;" horiz-adv-x="600" 
d="M471 316h-385q-18 0 -29 11q-9 12 -12 30q1 15 11 28t28 13h428q41 0 41 -43v-209q0 -35 -41 -39q-41 0 -41 41v168z" />
    <glyph glyph-name="registered" unicode="&#xae;" horiz-adv-x="801" 
d="M381 320h-65v-144q0 -28 -33 -31q-31 0 -31 31v363q0 20 21 20h133q78 0 114.5 -27.5t36.5 -92.5q0 -100 -102 -115l90 -138q6 -10 8 -24q0 -13 -37 -17q-27 0 -39 23zM316 381h77q47 0 73 12t26 50q0 32 -26.5 43.5t-67.5 11.5h-82v-117zM400 -6q-96 0 -180.5 48
t-133.5 132t-49 181q0 99 48 183t133.5 132.5t181.5 48.5q74 0 140.5 -27.5t117 -79t77.5 -117t27 -140.5q0 -96 -48.5 -179.5t-132 -132.5t-181.5 -49zM400 70q76 0 140.5 38.5t103 103.5t38.5 143t-38.5 144t-103.5 105t-140 39q-73 0 -137.5 -38.5t-104 -105.5
t-39.5 -144q0 -79 37.5 -143t104.5 -103t139 -39z" />
    <glyph glyph-name="plusminus" unicode="&#xb1;" horiz-adv-x="600" 
d="M260 354v109q0 43 39 43q43 0 43 -43v-109h174q16 0 26.5 -12.5t10.5 -30.5q0 -17 -10 -28.5t-29 -11.5h-172v-111q0 -39 -41 -43q-41 0 -41 43v111h-170q-41 0 -47 42q2 17 14 29t33 12h170zM516 0h-426q-20 0 -32 11q-10 11 -13 30q0 41 45 41h426q18 0 29.5 -12.5
t11.5 -30.5q0 -16 -11 -27.5t-30 -11.5z" />
    <glyph glyph-name="twosuperior" unicode="&#xb2;" horiz-adv-x="348" 
d="M131 352h152q35 0 35 -32q0 -29 -35 -29h-222q-28 0 -32 20q3 13 8 19l178 223q25 31 25 54t-19 38q-20 13 -45 13q-34 0 -59 -26.5t-25 -55.5q0 -21 -31 -25q-30 3 -30 35q0 54 41 93.5t108 39.5q63 0 98 -30.5t35 -77.5q0 -43 -38 -84z" />
    <glyph glyph-name="threesuperior" unicode="&#xb3;" horiz-adv-x="348" 
d="M43 623q0 42 38 71q32 25 91 25q54 0 87.5 -34t33.5 -78q0 -60 -53 -89q38 -11 58 -38q10 -14 15 -29t5 -35q0 -59 -48 -97q-44 -34 -110 -34q-48 0 -81.5 23.5t-45.5 62.5l-2 8l-2 10q3 33 28 33q18 0 27 -20q21 -45 55 -52q7 0 11 -2l14 -2q34 0 56.5 19.5t25.5 46.5
q0 38 -16 55t-54 17q-43 0 -43 26q0 20 35 29q55 14 55 70q0 24 -19 36q-5 3 -16.5 8t-27.5 5q-24 0 -43 -13t-19 -34q0 -22 -30 -27q-25 3 -25 39z" />
    <glyph glyph-name="acute" unicode="&#xb4;" horiz-adv-x="203" 
d="M234 848l118 48q4 2 8.5 3t14.5 1q14 0 26.5 -11t14.5 -28q0 -23 -33 -37l-117 -49l-30 -5q-35 0 -41 35q3 28 39 43z" />
    <glyph glyph-name="mu" unicode="&#xb5;" 
d="M59 494q0 21 12 33t31 12q17 0 30.5 -11.5t13.5 -33.5v-283q0 -72 26 -106.5t109 -34.5q75 0 93.5 42.5t18.5 96.5v285q0 21 12 33t31 12q17 0 30.5 -11.5t13.5 -33.5v-451q0 -24 -12.5 -36.5t-31.5 -12.5q-14 0 -26 8t-15 21q-55 -29 -125 -29q-87 0 -124 47v-213
q0 -20 -13 -31.5t-31 -11.5t-30.5 10.5t-12.5 30.5v668z" />
    <glyph glyph-name="paragraph" unicode="&#xb6;" horiz-adv-x="600" 
d="M242 344q-45 0 -81 11.5t-70 36.5q-64 52 -64 141q0 53 30 94.5t87 63.5q27 10 58.5 16t65.5 6h207q46 0 46 -51v-838q0 -39 -41 -39q-16 0 -28.5 9.5t-12.5 27.5v824h-115v-826q0 -17 -12 -26t-29 -11q-15 0 -28 10t-13 29v522z" />
    <glyph glyph-name="periodcentered" unicode="&#xb7;" horiz-adv-x="240" 
d="M70 303q0 21 17.5 37.5t37.5 16.5t37.5 -15t17.5 -39q0 -22 -17 -37.5t-38 -15.5t-38 15.5t-17 37.5z" />
    <glyph glyph-name="periodcentered" unicode="&#x2219;" horiz-adv-x="240" 
d="M70 303q0 21 17.5 37.5t37.5 16.5t37.5 -15t17.5 -39q0 -22 -17 -37.5t-38 -15.5t-38 15.5t-17 37.5z" />
    <glyph glyph-name="cedilla" unicode="&#xb8;" horiz-adv-x="203" 
d="M184 0l-30 -43l11 3l11 1q27 0 48 -16q17 -13 20 -39q0 -86 -111 -86q-30 0 -51 9.5t-21 25.5q0 28 19 28q11 0 29 -5l24 -5q35 0 35 27q0 11 -10 17q-9 3 -35 3q-25 0 -29 17l10 26l27 37h53z" />
    <glyph glyph-name="onesuperior" unicode="&#xb9;" horiz-adv-x="229" 
d="M88 652h-53q-23 0 -29 30q3 31 29 31h106q16 0 17 -14v-383q0 -27 -35 -31q-35 3 -35 31v336z" />
    <glyph glyph-name="ordmasculine" unicode="&#xba;" horiz-adv-x="443" 
d="M47 53q-20 14 -24 43q0 16 11 27.5t27 11.5q17 0 46 -21l38 -24q28 -15 74 -20q23 0 39 3t35 13q35 18 35 57q0 37 -41 60q-14 8 -44.5 21t-48.5 20q-70 28 -108.5 59.5t-38.5 87.5q0 60 49 102q24 21 56.5 33.5t68.5 12.5q49 0 93.5 -15.5t67 -37t22.5 -41.5
q0 -15 -10.5 -25.5t-28.5 -13.5q-16 3 -60 30t-75 27q-49 0 -71.5 -18.5t-25.5 -48.5q6 -31 34 -52q30 -19 83 -39q56 -18 57 -20q111 -45 111 -135q0 -62 -52.5 -109t-144.5 -47q-106 0 -174 59zM129 -151l46 89q11 20 29 20q27 0 27 -28q0 -7 -4 -21l-45 -87
q-11 -20 -32 -20q-24 0 -27 27q2 13 6 20z" />
    <glyph glyph-name="guillemotright" unicode="&#xbb;" horiz-adv-x="389" 
d="M369 268l-99 -180q-12 -22 -36 -25q-33 5 -39 33q3 19 10 29l86 143l-84 138q-8 16 -12 32q0 9 11.5 22t25.5 13q24 0 38 -26zM211 268l-102 -180q-9 -22 -33 -25q-33 5 -39 33q3 19 10 29l86 143l-84 138q-8 16 -12 32q0 9 11.5 22t25.5 13q24 0 37 -26z" />
    <glyph glyph-name="onequarter" unicode="&#xbc;" horiz-adv-x="805" 
d="M195 41l274 658q11 28 35 28q12 0 22.5 -8t10.5 -22q0 -10 -12 -43l-267 -638q-12 -30 -37 -30q-29 0 -35 26q1 14 9 29zM115 652h-51q-23 0 -29 30q3 31 28 31h105q19 0 20 -14v-383q0 -27 -38 -31q-35 3 -35 31v336zM646 98h-179q-17 0 -22 21q3 18 16 37l160 242
q18 30 51 30q21 0 34 -11t13 -28v-233h23q28 0 28 -29q0 -13 -6 -20t-20 -9h-25v-75q0 -29 -35 -29q-38 0 -38 31v73zM646 156v199l-117 -199h117z" />
    <glyph glyph-name="onehalf" unicode="&#xbd;" horiz-adv-x="805" 
d="M115 652h-51q-26 0 -31 30q3 31 30 31h105q19 0 20 -14v-383q0 -27 -38 -31q-35 3 -35 31v336zM164 41l274 658q9 28 35 28q12 0 22.5 -8t10.5 -22q0 -10 -12 -43l-267 -638q-12 -30 -38 -30q-28 0 -35 26q2 12 10 29zM553 61h154q33 0 33 -32q0 -29 -35 -29h-221
q-27 0 -31 20l8 17l176 225q25 34 25 54q0 23 -18.5 37t-43.5 14q-35 0 -62 -27q-24 -26 -24 -55q0 -20 -30 -25q-29 3 -29 35q0 54 39.5 93.5t109.5 39.5q63 0 96.5 -31.5t33.5 -78.5q0 -40 -35 -84z" />
    <glyph glyph-name="threequarters" unicode="&#xbe;" horiz-adv-x="805" 
d="M646 156v199l-117 -199h117zM646 98h-179q-17 0 -22 21q3 18 16 37l160 242q18 30 51 30q21 0 34 -11t13 -28v-233h25q26 0 26 -29t-24 -29h-27v-75q0 -29 -35 -29q-38 0 -38 31v73zM256 41l273 658q11 28 35 28q15 0 24.5 -8t9.5 -22q0 -10 -12 -43l-268 -638
q-11 -30 -37 -30q-27 0 -33 26q3 20 8 29zM57 623q0 42 38 71q32 25 91 25q54 0 87.5 -34t33.5 -78q0 -56 -55 -89q37 -10 57.5 -38.5t20.5 -65.5q0 -40 -23 -70q-21 -30 -58 -46q-17 -7 -36 -10t-39 -3q-51 0 -83 24t-44 62l-2 8l-2 10q3 33 27 33q18 0 28 -20
q16 -43 54 -52q8 0 12 -2l14 -2q33 0 55 18.5t27 47.5q0 72 -71 72q-43 0 -43 26q0 20 29.5 27.5t44 22t14.5 38.5v11q0 24 -18 36.5t-42 12.5q-25 0 -43.5 -12t-21.5 -35q0 -22 -27 -27q-25 3 -25 39z" />
    <glyph glyph-name="questiondown" unicode="&#xbf;" horiz-adv-x="443" 
d="M230 537q21 0 36 -14.5t15 -36.5q0 -18 -15 -34t-36 -16q-22 0 -36 15t-14 35q0 23 14 37t36 14zM273 297v-131q0 -21 -10 -30.5t-30 -15.5l-47 -11q-75 -22 -75 -101l2 -24q6 -35 35.5 -61.5t83.5 -26.5q42 0 69 20q27 18 39 53q12 41 41 41q17 0 30 -12t13 -33
q0 -65 -63 -108t-136 -43q-77 0 -138 45.5t-69 130.5q0 165 168 203v104q0 20 11.5 31.5t29.5 11.5q17 0 31.5 -11.5t14.5 -31.5z" />
    <glyph glyph-name="Agrave" unicode="&#xc0;" horiz-adv-x="611" 
d="M168 230h277l-138 387zM141 154l-47 -129q-9 -31 -45 -31q-37 0 -41 35l3 12l3 12l230 615q9 26 25.5 39.5t35.5 13.5q41 0 62 -51l233 -617l4 -26q0 -35 -41 -35q-34 0 -45 33l-47 129h-330zM204 824q-26 9 -32 37q0 15 13 28q13 11 30 13q13 0 16 -2l133 -56
q33 -11 33 -39q0 -33 -43 -37l-13 3l-10 2z" />
    <glyph glyph-name="Aacute" unicode="&#xc1;" horiz-adv-x="611" 
d="M168 230h277l-138 387zM141 154l-47 -129q-9 -31 -45 -31q-37 0 -41 35l3 12l3 12l230 615q9 26 25.5 39.5t35.5 13.5q41 0 62 -51l233 -617l4 -26q0 -35 -41 -35q-34 0 -45 33l-47 129h-330zM252 847l118 48q4 2 8.5 3t14.5 1q14 0 26.5 -11t14.5 -28q0 -23 -33 -37
l-117 -49l-30 -5q-35 0 -41 35q3 28 39 43z" />
    <glyph glyph-name="Acircumflex" unicode="&#xc2;" horiz-adv-x="611" 
d="M168 230h277l-138 387zM141 154l-47 -129q-9 -31 -45 -31q-37 0 -41 35l3 12l3 12l230 615q9 26 25.5 39.5t35.5 13.5q41 0 62 -51l233 -617l4 -26q0 -35 -41 -35q-34 0 -45 33l-47 129h-330zM303 896l130 -56q26 -9 26 -39q0 -36 -37 -36l-12 3l-12 3l-95 39l-94 -37
l-29 -8q-34 0 -34 36q0 30 24 39z" />
    <glyph glyph-name="Atilde" unicode="&#xc3;" horiz-adv-x="611" 
d="M168 230h277l-138 387zM141 154l-47 -129q-9 -31 -45 -31q-37 0 -41 35l3 12l3 12l230 615q9 26 25.5 39.5t35.5 13.5q41 0 62 -51l233 -617l4 -26q0 -35 -41 -35q-34 0 -45 33l-47 129h-330zM169 848q26 29 78 29q17 0 55 -9l54 -11q12 0 31 9t34 11q13 0 22.5 -10.5
t10.5 -26.5q0 -29 -31 -47q-18 -9 -32.5 -13.5t-32.5 -4.5l-9 2q-9 0 -42.5 9t-53.5 9l-18 -3l-24 -9l-21 -8q-31 16 -31 39q0 21 10 34z" />
    <glyph glyph-name="Adieresis" unicode="&#xc4;" horiz-adv-x="611" 
d="M168 230h277l-138 387zM141 154l-47 -129q-9 -31 -45 -31q-37 0 -41 35l3 12l3 12l230 615q9 26 25.5 39.5t35.5 13.5q41 0 62 -51l233 -617l4 -26q0 -35 -41 -35q-34 0 -45 33l-47 129h-330zM160 818q0 23 16 39t39 16q22 0 37.5 -15.5t15.5 -39.5q0 -21 -15 -37
t-38 -16q-22 0 -38.5 15.5t-16.5 37.5zM346 818q0 20 15 37.5t39 17.5q23 0 39 -16t16 -39q0 -22 -15.5 -37.5t-39.5 -15.5q-22 0 -38 15t-16 38z" />
    <glyph glyph-name="Aring" unicode="&#xc5;" horiz-adv-x="611" 
d="M168 230h277l-138 387zM141 154l-47 -129q-9 -31 -45 -31q-37 0 -41 35l3 12l3 12l230 615q9 26 25.5 39.5t35.5 13.5q41 0 62 -51l233 -617l4 -26q0 -35 -41 -35q-34 0 -45 33l-47 129h-330zM303 785q17 0 31.5 12t14.5 33q0 11 -6 22t-15.5 17.5t-24.5 7.5
q-19 0 -32 -14.5t-13 -32.5t13 -31.5t32 -13.5zM303 736q-38 0 -66 28t-28 66q0 39 28 67t66 28q39 0 67 -28t28 -67q0 -38 -28 -66t-67 -28z" />
    <glyph glyph-name="AE" unicode="&#xc6;" horiz-adv-x="740" 
d="M316 678q12 20 24 28q14 7 33 7h293q19 0 30 -11.5t11 -29.5t-11.5 -29.5t-31.5 -11.5h-203v-233h197q17 0 29 -12q10 -13 10 -32q0 -17 -10 -28.5t-31 -11.5h-195v-232h215q43 0 43 -43q0 -15 -12 -27t-33 -12h-254q-47 0 -47 49v105h-230l-73 -138q-9 -22 -39 -22
q-39 0 -39 33q0 13 8 32zM180 230h193v381z" />
    <glyph glyph-name="Ccedilla" unicode="&#xc7;" horiz-adv-x="594" 
d="M307 -4q-138 15 -207 123t-69 227q0 80 19 144.5t61 119.5q83 109 235 109q25 0 36.5 -1.5t43 -8t64.5 -23.5t53 -43q12 -15 12 -34q0 -14 -11 -25t-26 -12q-16 3 -22 8l-71 49q-11 7 -29 10.5t-44 3.5q-74 0 -126 -42t-76 -108q-12 -33 -18.5 -64.5t-6.5 -65.5
q0 -35 3 -61.5t14 -63.5q20 -66 68 -116q25 -25 56.5 -38.5t71.5 -13.5q34 0 49 1.5t32 8.5q33 14 87 45q13 8 29 8q33 0 33 -39q0 -23 -13 -33q-34 -32 -83.5 -49.5t-112.5 -17.5l-25 -37l11 3l10 1q28 0 49 -16q17 -13 20 -39q0 -86 -111 -86q-31 0 -52 9.5t-21 25.5
q0 28 22 28q11 0 27 -5l24 -5q35 0 35 27q0 11 -9 17l-22 4q-13 0 -27 3.5t-17 14.5q2 9 10 24z" />
    <glyph glyph-name="Egrave" unicode="&#xc8;" horiz-adv-x="443" 
d="M59 664q0 21 10.5 34.5t26.5 14.5h269q16 0 26.5 -12t10.5 -29q0 -19 -9.5 -30t-29.5 -11h-217v-235h198q16 0 27.5 -11.5t11.5 -29.5q0 -19 -11 -30q-9 -11 -30 -11h-196v-232h219q37 0 37 -43q0 -39 -43 -39h-257q-43 0 -43 47v617zM148 824q-26 9 -32 37q0 15 13 28
q13 11 30 13q13 0 16 -2l133 -56q33 -11 33 -39q0 -33 -43 -37l-13 3l-10 2z" />
    <glyph glyph-name="Eacute" unicode="&#xc9;" horiz-adv-x="443" 
d="M59 664q0 21 10.5 34.5t26.5 14.5h269q16 0 26.5 -12t10.5 -29q0 -19 -9.5 -30t-29.5 -11h-217v-235h198q16 0 27.5 -11.5t11.5 -29.5q0 -19 -11 -30q-9 -11 -30 -11h-196v-232h219q37 0 37 -43q0 -39 -43 -39h-257q-43 0 -43 47v617zM149 847l118 48q4 2 8.5 3t14.5 1
q14 0 26.5 -11t14.5 -28q0 -23 -33 -37l-117 -49l-30 -5q-35 0 -41 35q3 28 39 43z" />
    <glyph glyph-name="Ecircumflex" unicode="&#xca;" horiz-adv-x="443" 
d="M59 664q0 21 10.5 34.5t26.5 14.5h269q16 0 26.5 -12t10.5 -29q0 -19 -9.5 -30t-29.5 -11h-217v-235h198q16 0 27.5 -11.5t11.5 -29.5q0 -19 -11 -30q-9 -11 -30 -11h-196v-232h219q37 0 37 -43q0 -39 -43 -39h-257q-43 0 -43 47v617zM225 896l130 -56q26 -9 26 -39
q0 -36 -37 -36l-12 3l-12 3l-95 39l-94 -37l-29 -8q-34 0 -34 36q0 30 24 39z" />
    <glyph glyph-name="Edieresis" unicode="&#xcb;" horiz-adv-x="443" 
d="M59 664q0 21 10.5 34.5t26.5 14.5h269q16 0 26.5 -12t10.5 -29q0 -19 -9.5 -30t-29.5 -11h-217v-235h198q16 0 27.5 -11.5t11.5 -29.5q0 -19 -11 -30q-9 -11 -30 -11h-196v-232h219q37 0 37 -43q0 -39 -43 -39h-257q-43 0 -43 47v617zM78 816q0 23 16 39t39 16
q22 0 37.5 -15.5t15.5 -39.5q0 -21 -15 -37t-38 -16q-22 0 -38.5 15.5t-16.5 37.5zM264 816q0 20 15 37.5t39 17.5q23 0 39 -16t16 -39q0 -22 -15.5 -37.5t-39.5 -15.5q-22 0 -38 15t-16 38z" />
    <glyph glyph-name="Igrave" unicode="&#xcc;" horiz-adv-x="203" 
d="M59 672q0 47 45 47q18 0 30 -12t12 -35v-629q0 -29 -13.5 -38t-28.5 -11q-45 0 -45 47v631zM25 819q-26 9 -32 37q0 15 13 28q13 11 30 13q13 0 16 -2l133 -56q33 -11 33 -39q0 -33 -43 -37l-13 3l-10 2z" />
    <glyph glyph-name="Iacute" unicode="&#xcd;" horiz-adv-x="203" 
d="M59 672q0 47 45 47q18 0 30 -12t12 -35v-629q0 -29 -13.5 -38t-28.5 -11q-45 0 -45 47v631zM22 845l118 48q4 2 8.5 3t14.5 1q14 0 26.5 -11t14.5 -28q0 -23 -33 -37l-117 -49l-30 -5q-35 0 -41 35q3 28 39 43z" />
    <glyph glyph-name="Icircumflex" unicode="&#xce;" horiz-adv-x="203" 
d="M59 672q0 47 45 47q18 0 30 -12t12 -35v-629q0 -29 -13.5 -38t-28.5 -11q-45 0 -45 47v631zM102 896l130 -56q26 -9 26 -39q0 -36 -37 -36l-12 3l-12 3l-95 39l-94 -37l-29 -8q-34 0 -34 36q0 30 24 39z" />
    <glyph glyph-name="Idieresis" unicode="&#xcf;" horiz-adv-x="203" 
d="M59 672q0 47 45 47q18 0 30 -12t12 -35v-629q0 -29 -13.5 -38t-28.5 -11q-45 0 -45 47v631zM-45 818q0 23 16 39t39 16q22 0 37.5 -15.5t15.5 -39.5q0 -21 -15 -37t-38 -16q-22 0 -38.5 15.5t-16.5 37.5zM141 818q0 20 15 37.5t39 17.5q23 0 39 -16t16 -39
q0 -22 -15.5 -37.5t-39.5 -15.5q-22 0 -38 15t-16 38z" />
    <glyph glyph-name="Eth" unicode="&#xd0;" horiz-adv-x="631" 
d="M150 637v-241h123q20 0 30 -11q11 -9 11 -26q0 -15 -12 -27q-12 -10 -29 -10h-123v-246h137q76 0 147.5 63t71.5 226q0 125 -63.5 198.5t-167.5 73.5h-125zM63 666q0 47 46 47h180q95 0 167 -47t108 -127.5t36 -179.5q0 -101 -35 -183t-104 -129t-164 -47h-188
q-24 0 -34.5 12t-11.5 27v283h-42q-16 0 -27.5 11.5t-11.5 25.5t11 25q9 12 30 12h40v270z" />
    <glyph glyph-name="Ntilde" unicode="&#xd1;" horiz-adv-x="666" 
d="M59 674q0 21 10 34t27 13q29 0 50 -30l374 -537l1 518q0 21 13 34t30 13t32 -12q13 -13 13 -35v-635q0 -22 -10 -33.5t-29 -11.5q-27 0 -49 28l-373 537l-2 2v-522q0 -20 -13 -31.5t-31 -11.5t-30.5 11t-12.5 34v635zM197 848q26 29 78 29q17 0 55 -9l54 -11q12 0 31 9
t34 11q13 0 22.5 -10.5t10.5 -26.5q0 -29 -31 -47q-18 -9 -32.5 -13.5t-32.5 -4.5l-9 2q-9 0 -42.5 9t-53.5 9l-18 -3l-24 -9l-21 -8q-31 16 -31 39q0 21 10 34z" />
    <glyph glyph-name="Ograve" unicode="&#xd2;" horiz-adv-x="684" 
d="M31 355q0 149 84 256.5t229 107.5q97 0 166 -48.5t107 -134.5q18 -40 28.5 -87t10.5 -94q0 -96 -37.5 -180t-109 -132.5t-165.5 -48.5q-132 0 -222.5 101t-90.5 260zM125 357q0 -107 50.5 -197t168.5 -90q94 0 156.5 74.5t62.5 212.5q0 141 -61.5 213.5t-157.5 72.5
q-32 0 -58.5 -7t-52.5 -25q-49 -33 -78.5 -99.5t-29.5 -154.5zM247 826q-26 9 -32 37q0 15 13 28q13 11 30 13q13 0 16 -2l133 -56q33 -11 33 -39q0 -33 -43 -37l-13 3l-10 2z" />
    <glyph glyph-name="Oacute" unicode="&#xd3;" horiz-adv-x="684" 
d="M31 355q0 149 84 256.5t229 107.5q97 0 166 -48.5t107 -134.5q18 -40 28.5 -87t10.5 -94q0 -96 -37.5 -180t-109 -132.5t-165.5 -48.5q-132 0 -222.5 101t-90.5 260zM125 357q0 -107 50.5 -197t168.5 -90q94 0 156.5 74.5t62.5 212.5q0 141 -61.5 213.5t-157.5 72.5
q-32 0 -58.5 -7t-52.5 -25q-49 -33 -78.5 -99.5t-29.5 -154.5zM301 848l118 48q4 2 8.5 3t14.5 1q14 0 26.5 -11t14.5 -28q0 -23 -33 -37l-117 -49l-30 -5q-35 0 -41 35q3 28 39 43z" />
    <glyph glyph-name="Ocircumflex" unicode="&#xd4;" horiz-adv-x="684" 
d="M31 355q0 149 84 256.5t229 107.5q97 0 166 -48.5t107 -134.5q18 -40 28.5 -87t10.5 -94q0 -96 -37.5 -180t-109 -132.5t-165.5 -48.5q-132 0 -222.5 101t-90.5 260zM125 357q0 -107 50.5 -197t168.5 -90q94 0 156.5 74.5t62.5 212.5q0 141 -61.5 213.5t-157.5 72.5
q-32 0 -58.5 -7t-52.5 -25q-49 -33 -78.5 -99.5t-29.5 -154.5zM344 898l130 -56q26 -9 26 -39q0 -36 -37 -36l-12 3l-12 3l-95 39l-94 -37l-29 -8q-34 0 -34 36q0 30 24 39z" />
    <glyph glyph-name="Otilde" unicode="&#xd5;" horiz-adv-x="684" 
d="M31 355q0 149 84 256.5t229 107.5q97 0 166 -48.5t107 -134.5q18 -40 28.5 -87t10.5 -94q0 -96 -37.5 -180t-109 -132.5t-165.5 -48.5q-132 0 -222.5 101t-90.5 260zM125 357q0 -107 50.5 -197t168.5 -90q94 0 156.5 74.5t62.5 212.5q0 141 -61.5 213.5t-157.5 72.5
q-32 0 -58.5 -7t-52.5 -25q-49 -33 -78.5 -99.5t-29.5 -154.5zM209 848q26 29 78 29q17 0 55 -9l54 -11q12 0 31 9t34 11q13 0 22.5 -10.5t10.5 -26.5q0 -29 -31 -47q-18 -9 -32.5 -13.5t-32.5 -4.5l-9 2q-9 0 -42.5 9t-53.5 9l-18 -3l-24 -9l-21 -8q-31 16 -31 39
q0 21 10 34z" />
    <glyph glyph-name="Odieresis" unicode="&#xd6;" horiz-adv-x="684" 
d="M31 355q0 149 84 256.5t229 107.5q97 0 166 -48.5t107 -134.5q18 -40 28.5 -87t10.5 -94q0 -96 -37.5 -180t-109 -132.5t-165.5 -48.5q-132 0 -222.5 101t-90.5 260zM125 357q0 -107 50.5 -197t168.5 -90q94 0 156.5 74.5t62.5 212.5q0 141 -61.5 213.5t-157.5 72.5
q-32 0 -58.5 -7t-52.5 -25q-49 -33 -78.5 -99.5t-29.5 -154.5zM197 818q0 23 16 39t39 16q22 0 37.5 -15.5t15.5 -39.5q0 -21 -15 -37t-38 -16q-22 0 -38.5 15.5t-16.5 37.5zM383 818q0 20 15 37.5t39 17.5q23 0 39 -16t16 -39q0 -22 -15.5 -37.5t-39.5 -15.5q-22 0 -38 15
t-16 38z" />
    <glyph glyph-name="Oslash" unicode="&#xd8;" horiz-adv-x="684" 
d="M31 355q0 149 84 256.5t229 107.5q120 0 201 -80l62 74q11 14 28 14q13 0 21 -8q10 -7 10 -22q0 -7 -8 -19l-72 -84q33 -48 51.5 -109t18.5 -130q0 -96 -37.5 -180t-109 -132.5t-165.5 -48.5q-117 0 -203 80l-61 -72q-15 -18 -35 -18q-23 0 -27 28q3 16 11 25l71 82
q-69 101 -69 236zM527 523l-334 -388q57 -65 151 -65t156.5 74.5t62.5 212.5q0 95 -36 166zM158 189l334 389q-59 65 -148 65q-32 0 -58.5 -7t-52.5 -25q-49 -33 -78.5 -99.5t-29.5 -154.5q0 -94 33 -168z" />
    <glyph glyph-name="Ugrave" unicode="&#xd9;" horiz-adv-x="666" 
d="M59 674q0 21 12 33t31 12q17 0 30.5 -11.5t13.5 -33.5v-428q0 -84 54 -130t140 -46q81 0 132 49t51 127v428q0 21 12 33t29 12t31 -11.5t14 -33.5v-399q0 -87 -30 -149.5t-91 -97t-150 -34.5q-138 0 -208.5 75t-70.5 204v401zM225 824q-26 9 -32 37q0 15 13 28
q13 11 30 13q13 0 16 -2l133 -56q33 -11 33 -39q0 -33 -43 -37l-13 3l-10 2z" />
    <glyph glyph-name="Uacute" unicode="&#xda;" horiz-adv-x="666" 
d="M59 674q0 21 12 33t31 12q17 0 30.5 -11.5t13.5 -33.5v-428q0 -84 54 -130t140 -46q81 0 132 49t51 127v428q0 21 12 33t29 12t31 -11.5t14 -33.5v-399q0 -87 -30 -149.5t-91 -97t-150 -34.5q-138 0 -208.5 75t-70.5 204v401zM291 848l118 48q4 2 8.5 3t14.5 1
q14 0 26.5 -11t14.5 -28q0 -23 -33 -37l-117 -49l-30 -5q-35 0 -41 35q3 28 39 43z" />
    <glyph glyph-name="Ucircumflex" unicode="&#xdb;" horiz-adv-x="666" 
d="M59 674q0 21 12 33t31 12q17 0 30.5 -11.5t13.5 -33.5v-428q0 -84 54 -130t140 -46q81 0 132 49t51 127v428q0 21 12 33t29 12t31 -11.5t14 -33.5v-399q0 -87 -30 -149.5t-91 -97t-150 -34.5q-138 0 -208.5 75t-70.5 204v401zM396 848l118 48q4 2 8.5 3t14.5 1
q14 0 26.5 -11t14.5 -28q0 -23 -33 -37l-117 -49l-30 -5q-35 0 -41 35q3 28 39 43zM157 848l118 48q4 2 8.5 3t14.5 1q14 0 26.5 -11t14.5 -28q0 -23 -33 -37l-117 -49l-30 -5q-35 0 -41 35q3 28 39 43z" />
    <glyph glyph-name="Udieresis" unicode="&#xdc;" horiz-adv-x="666" 
d="M59 674q0 21 12 33t31 12q17 0 30.5 -11.5t13.5 -33.5v-428q0 -84 54 -130t140 -46q81 0 132 49t51 127v428q0 21 12 33t29 12t31 -11.5t14 -33.5v-399q0 -87 -30 -149.5t-91 -97t-150 -34.5q-138 0 -208.5 75t-70.5 204v401zM187 818q0 23 16 39t39 16q22 0 37.5 -15.5
t15.5 -39.5q0 -21 -15 -37t-38 -16q-22 0 -38.5 15.5t-16.5 37.5zM373 818q0 20 15 37.5t39 17.5q23 0 39 -16t16 -39q0 -22 -15.5 -37.5t-39.5 -15.5q-22 0 -38 15t-16 38z" />
    <glyph glyph-name="Yacute" unicode="&#xdd;" horiz-adv-x="482" 
d="M207 336l-195 316q-9 19 -12 32q0 15 11 25q11 8 28 10q26 0 43 -24l168 -273l168 271q14 26 41 26q17 0 28 -9.5t11 -27.5q0 -16 -8 -28l-195 -318v-295q0 -24 -13 -36.5t-32 -12.5q-16 0 -30 13q-13 15 -13 36v295zM180 850l118 48q4 2 8.5 3t14.5 1q14 0 26.5 -11
t14.5 -28q0 -23 -33 -37l-117 -49l-30 -5q-35 0 -41 35q3 28 39 43z" />
    <glyph glyph-name="Thorn" unicode="&#xde;" horiz-adv-x="426" 
d="M178 631h-137q-16 0 -28 12q-10 12 -13 29q0 41 43 41h357q20 0 31.5 -11.5t11.5 -29.5q0 -19 -9.5 -30t-29.5 -11h-138v-592q0 -21 -13 -34q-13 -11 -32 -11t-31 11.5t-12 33.5v592zM149 -161l46 89q11 20 29 20q27 0 27 -28q0 -7 -4 -21l-45 -87q-11 -20 -32 -20
q-24 0 -27 27q2 13 6 20z" />
    <glyph glyph-name="germandbls" unicode="&#xdf;" horiz-adv-x="557" 
d="M59 35v539q0 79 49 139t142 60q50 0 96 -23.5t74.5 -67.5t28.5 -96q0 -107 -76 -164q67 -18 100 -75t33 -128q0 -88 -56.5 -156.5t-146.5 -68.5q-53 0 -53 45q6 33 39 33q74 0 98.5 46t24.5 109q0 31 -6.5 54t-22.5 46t-38 35.5t-52 12.5q-26 0 -36.5 10t-10.5 29
q0 27 40.5 39t54.5 35.5t20 79.5q0 27 -6.5 50t-21 41t-34 28t-45.5 10q-66 0 -84.5 -42.5t-24.5 -93.5l1 -2v-524q0 -19 -13 -31q-13 -10 -31 -10q-17 0 -30 10.5t-13 30.5z" />
    <glyph glyph-name="agrave" unicode="&#xe0;" horiz-adv-x="557" 
d="M123 266q0 -41 8 -75t27 -63q38 -58 106 -58q80 0 115 57t35 139q0 90 -39 143.5t-105 53.5q-37 0 -64 -14.5t-45 -41.5t-28 -62.5t-10 -78.5zM416 496q0 17 12 30t29 13q15 0 28 -12t13 -33v-455q0 -21 -13 -34q-11 -9 -28 -11q-15 0 -29 10q-12 11 -12 31v39
q-60 -80 -141 -80q-36 0 -65 7t-57 24q-53 33 -85.5 95t-32.5 144q0 89 33.5 151t87.5 93t108 31q49 0 82 -17q34 -15 68 -55zM197 669q-26 9 -32 37q0 15 13 28q13 11 30 13q13 0 16 -2l133 -56q33 -11 33 -39q0 -33 -43 -37l-13 3l-10 2z" />
    <glyph glyph-name="aacute" unicode="&#xe1;" horiz-adv-x="557" 
d="M123 266q0 -41 8 -75t27 -63q38 -58 106 -58q80 0 115 57t35 139q0 90 -39 143.5t-105 53.5q-37 0 -64 -14.5t-45 -41.5t-28 -62.5t-10 -78.5zM416 496q0 17 12 30t29 13q15 0 28 -12t13 -33v-455q0 -21 -13 -34q-11 -9 -28 -11q-15 0 -29 10q-12 11 -12 31v39
q-60 -80 -141 -80q-36 0 -65 7t-57 24q-53 33 -85.5 95t-32.5 144q0 89 33.5 151t87.5 93t108 31q49 0 82 -17q34 -15 68 -55zM265 689l118 48q4 2 8.5 3t14.5 1q14 0 26.5 -11t14.5 -28q0 -23 -33 -37l-117 -49l-30 -5q-35 0 -41 35q3 28 39 43z" />
    <glyph glyph-name="acircumflex" unicode="&#xe2;" horiz-adv-x="557" 
d="M123 266q0 -41 8 -75t27 -63q38 -58 106 -58q80 0 115 57t35 139q0 90 -39 143.5t-105 53.5q-37 0 -64 -14.5t-45 -41.5t-28 -62.5t-10 -78.5zM416 496q0 17 12 30t29 13q15 0 28 -12t13 -33v-455q0 -21 -13 -34q-11 -9 -28 -11q-15 0 -29 10q-12 11 -12 31v39
q-60 -80 -141 -80q-36 0 -65 7t-57 24q-53 33 -85.5 95t-32.5 144q0 89 33.5 151t87.5 93t108 31q49 0 82 -17q34 -15 68 -55zM298 736l130 -56q26 -9 26 -39q0 -36 -37 -36l-12 3l-12 3l-95 39l-94 -37l-29 -8q-34 0 -34 36q0 30 24 39z" />
    <glyph glyph-name="atilde" unicode="&#xe3;" horiz-adv-x="557" 
d="M123 266q0 -41 8 -75t27 -63q38 -58 106 -58q80 0 115 57t35 139q0 90 -39 143.5t-105 53.5q-37 0 -64 -14.5t-45 -41.5t-28 -62.5t-10 -78.5zM416 496q0 17 12 30t29 13q15 0 28 -12t13 -33v-455q0 -21 -13 -34q-11 -9 -28 -11q-15 0 -29 10q-12 11 -12 31v39
q-60 -80 -141 -80q-36 0 -65 7t-57 24q-53 33 -85.5 95t-32.5 144q0 89 33.5 151t87.5 93t108 31q49 0 82 -17q34 -15 68 -55zM159 688q26 29 78 29q17 0 55 -9l54 -11q12 0 31 9t34 11q13 0 22.5 -10.5t10.5 -26.5q0 -29 -31 -47q-18 -9 -32.5 -13.5t-32.5 -4.5l-9 2
q-9 0 -42.5 9t-53.5 9l-18 -3l-24 -9l-21 -8q-31 16 -31 39q0 21 10 34z" />
    <glyph glyph-name="adieresis" unicode="&#xe4;" horiz-adv-x="557" 
d="M123 266q0 -41 8 -75t27 -63q38 -58 106 -58q80 0 115 57t35 139q0 90 -39 143.5t-105 53.5q-37 0 -64 -14.5t-45 -41.5t-28 -62.5t-10 -78.5zM416 496q0 17 12 30t29 13q15 0 28 -12t13 -33v-455q0 -21 -13 -34q-11 -9 -28 -11q-15 0 -29 10q-12 11 -12 31v39
q-60 -80 -141 -80q-36 0 -65 7t-57 24q-53 33 -85.5 95t-32.5 144q0 89 33.5 151t87.5 93t108 31q49 0 82 -17q34 -15 68 -55zM131 658q0 23 16 39t39 16q22 0 37.5 -15.5t15.5 -39.5q0 -21 -15 -37t-38 -16q-22 0 -38.5 15.5t-16.5 37.5zM317 658q0 20 15 37.5t39 17.5
q23 0 39 -16t16 -39q0 -22 -15.5 -37.5t-39.5 -15.5q-22 0 -38 15t-16 38z" />
    <glyph glyph-name="aring" unicode="&#xe5;" horiz-adv-x="557" 
d="M123 266q0 -41 8 -75t27 -63q38 -58 106 -58q80 0 115 57t35 139q0 90 -39 143.5t-105 53.5q-37 0 -64 -14.5t-45 -41.5t-28 -62.5t-10 -78.5zM416 496q0 17 12 30t29 13q15 0 28 -12t13 -33v-455q0 -21 -13 -34q-11 -9 -28 -11q-15 0 -29 10q-12 11 -12 31v39
q-60 -80 -141 -80q-36 0 -65 7t-57 24q-53 33 -85.5 95t-32.5 144q0 89 33.5 151t87.5 93t108 31q49 0 82 -17q34 -15 68 -55zM278 635q17 0 31.5 12t14.5 33q0 11 -6 22t-15.5 17.5t-24.5 7.5q-19 0 -32 -14.5t-13 -32.5t13 -31.5t32 -13.5zM278 586q-38 0 -66 28t-28 66
q0 39 28 67t66 28q39 0 67 -28t28 -67q0 -38 -28 -66t-67 -28z" />
    <glyph glyph-name="ae" unicode="&#xe6;" horiz-adv-x="889" 
d="M123 268q0 -84 39 -141t108 -57q71 0 108.5 58t37.5 134q0 90 -39.5 145.5t-110.5 55.5q-39 0 -66.5 -16.5t-44.5 -49.5q-32 -62 -32 -129zM416 496q0 19 11 30q11 9 28 11q43 0 43 -43v-21q20 22 60 44t85 22q61 0 112.5 -38.5t79.5 -99.5t28 -120q0 -49 -49 -49h-324
q0 -36 11.5 -63t36.5 -53q46 -44 108 -44q45 0 79 15.5t78 49.5l17 4q15 0 23.5 -11t8.5 -26q0 -10 -4 -22q-24 -34 -81 -62q-29 -13 -54.5 -19.5t-50.5 -6.5q-31 0 -48 2.5t-43 11.5q-42 16 -71 51l-2 -20q0 -21 -12 -33t-29 -12q-15 0 -28 12t-13 31v37q-56 -78 -150 -78
q-105 0 -168 79q-30 39 -46.5 87t-16.5 102q0 84 34 147t87.5 95.5t107.5 32.5q87 0 150 -72zM775 299q0 52 -21 90q-18 36 -50 55t-67 19q-60 0 -100 -41q-20 -21 -30.5 -51.5t-10.5 -71.5h279z" />
    <glyph glyph-name="ccedilla" unicode="&#xe7;" horiz-adv-x="443" 
d="M285 -6l-25 -37l11 3l10 1q26 0 47 -16q17 -13 22 -39q0 -86 -112 -86q-74 0 -74 35q0 28 22 28q11 0 29 -5l23 -5q35 0 35 27q0 11 -9 17q-9 3 -35 3q-27 0 -30 19q2 9 10 24l23 35q-66 9 -111.5 51t-64.5 97q-10 30 -15.5 56.5t-5.5 51.5q0 60 12.5 106.5t40.5 84.5
q30 46 76.5 70t106.5 24q51 0 99 -15t48 -53q0 -32 -39 -37l-53 18q-27 9 -51 9q-68 0 -110 -57q-21 -29 -31.5 -61t-10.5 -70q0 -39 6 -70t22.5 -63t44 -51t61.5 -19q14 0 18 -2q17 0 33 5t26.5 9.5t23.5 11t23 6.5q15 0 24 -9.5t9 -27.5q0 -35 -44 -53q-46 -16 -85 -16z
" />
    <glyph glyph-name="egrave" unicode="&#xe8;" horiz-adv-x="520" 
d="M92 458q63 81 168 81q72 0 123 -38q52 -35 81.5 -97.5t29.5 -128.5q0 -43 -49 -43h-332q0 -77 46 -119.5t116 -42.5q78 0 143 55q20 14 33 16q15 0 22 -10t9 -27q0 -15 -13 -32q-28 -30 -83 -55q-25 -11 -54.5 -17t-61.5 -6q-123 0 -185 84t-62 188l2 4q0 55 16.5 99.5
t50.5 88.5zM113 299h293q0 73 -38.5 118.5t-103.5 45.5q-66 0 -108 -43q-20 -21 -31.5 -52t-11.5 -69zM163 665q-26 9 -32 37q0 15 13 28q13 11 30 13q13 0 16 -2l133 -56q33 -11 33 -39q0 -33 -43 -37l-13 3l-10 2z" />
    <glyph glyph-name="eacute" unicode="&#xe9;" horiz-adv-x="520" 
d="M92 458q63 81 168 81q72 0 123 -38q52 -35 81.5 -97.5t29.5 -128.5q0 -43 -49 -43h-332q0 -77 46 -119.5t116 -42.5q78 0 143 55q20 14 33 16q15 0 22 -10t9 -27q0 -15 -13 -32q-28 -30 -83 -55q-25 -11 -54.5 -17t-61.5 -6q-123 0 -185 84t-62 188l2 4q0 55 16.5 99.5
t50.5 88.5zM113 299h293q0 73 -38.5 118.5t-103.5 45.5q-66 0 -108 -43q-20 -21 -31.5 -52t-11.5 -69zM221 691l118 48q4 2 8.5 3t14.5 1q14 0 26.5 -11t14.5 -28q0 -23 -33 -37l-117 -49l-30 -5q-35 0 -41 35q3 28 39 43z" />
    <glyph glyph-name="ecircumflex" unicode="&#xea;" horiz-adv-x="520" 
d="M92 458q63 81 168 81q72 0 123 -38q52 -35 81.5 -97.5t29.5 -128.5q0 -43 -49 -43h-332q0 -77 46 -119.5t116 -42.5q78 0 143 55q20 14 33 16q15 0 22 -10t9 -27q0 -15 -13 -32q-28 -30 -83 -55q-25 -11 -54.5 -17t-61.5 -6q-123 0 -185 84t-62 188l2 4q0 55 16.5 99.5
t50.5 88.5zM113 299h293q0 73 -38.5 118.5t-103.5 45.5q-66 0 -108 -43q-20 -21 -31.5 -52t-11.5 -69zM258 738l130 -56q26 -9 26 -39q0 -36 -37 -36l-12 3l-12 3l-95 39l-94 -37l-29 -8q-34 0 -34 36q0 30 24 39z" />
    <glyph glyph-name="edieresis" unicode="&#xeb;" horiz-adv-x="520" 
d="M92 458q63 81 168 81q72 0 123 -38q52 -35 81.5 -97.5t29.5 -128.5q0 -43 -49 -43h-332q0 -77 46 -119.5t116 -42.5q78 0 143 55q20 14 33 16q15 0 22 -10t9 -27q0 -15 -13 -32q-28 -30 -83 -55q-25 -11 -54.5 -17t-61.5 -6q-123 0 -185 84t-62 188l2 4q0 55 16.5 99.5
t50.5 88.5zM113 299h293q0 73 -38.5 118.5t-103.5 45.5q-66 0 -108 -43q-20 -21 -31.5 -52t-11.5 -69zM113 658q0 23 16 39t39 16q22 0 37.5 -15.5t15.5 -39.5q0 -21 -15 -37t-38 -16q-22 0 -38.5 15.5t-16.5 37.5zM299 658q0 20 15 37.5t39 17.5q23 0 39 -16t16 -39
q0 -22 -15.5 -37.5t-39.5 -15.5q-22 0 -38 15t-16 38z" />
    <glyph glyph-name="igrave" unicode="&#xec;" horiz-adv-x="203" 
d="M59 494q0 21 12 33t31 12q18 0 31 -13t13 -34v-453q0 -21 -13 -34q-13 -11 -31 -11q-19 0 -31 11.5t-12 33.5v455zM1 667q-26 9 -32 37q0 15 13 28q13 11 30 13q13 0 16 -2l133 -56q33 -11 33 -39q0 -33 -43 -37l-13 3l-10 2z" />
    <glyph glyph-name="iacute" unicode="&#xed;" horiz-adv-x="203" 
d="M59 494q0 21 12 33t31 12q18 0 31 -13t13 -34v-453q0 -21 -13 -34q-13 -11 -31 -11q-19 0 -31 11.5t-12 33.5v455zM48 689l118 48q4 2 8.5 3t14.5 1q14 0 26.5 -11t14.5 -28q0 -23 -33 -37l-117 -49l-30 -5q-35 0 -41 35q3 28 39 43z" />
    <glyph glyph-name="icircumflex" unicode="&#xee;" horiz-adv-x="203" 
d="M59 494q0 21 12 33t31 12q18 0 31 -13t13 -34v-453q0 -21 -13 -34q-13 -11 -31 -11q-19 0 -31 11.5t-12 33.5v455zM104 736l130 -56q26 -9 26 -39q0 -36 -37 -36l-12 3l-12 3l-95 39l-94 -37l-29 -8q-34 0 -34 36q0 30 24 39z" />
    <glyph glyph-name="idieresis" unicode="&#xef;" horiz-adv-x="203" 
d="M59 494q0 21 12 33t31 12q18 0 31 -13t13 -34v-453q0 -21 -13 -34q-13 -11 -31 -11q-19 0 -31 11.5t-12 33.5v455zM-43 658q0 23 16 39t39 16q22 0 37.5 -15.5t15.5 -39.5q0 -21 -15 -37t-38 -16q-22 0 -38.5 15.5t-16.5 37.5zM143 658q0 20 15 37.5t39 17.5q23 0 39 -16
t16 -39q0 -22 -15.5 -37.5t-39.5 -15.5q-22 0 -38 15t-16 38z" />
    <glyph glyph-name="eth" unicode="&#xf0;" 
d="M35 262q0 68 27 130.5t79.5 101.5t122.5 39q36 0 69.5 -15.5t55.5 -44.5l2 2q-31 84 -121 160l-86 -41l-32 -10q-11 3 -15 10l-8 15q3 19 17 26l79 37q-16 11 -46 25q-10 4 -21.5 9t-19 12t-7.5 24q0 31 37 31q25 0 63.5 -18.5t71.5 -43.5l92 47q11 6 27 8
q11 0 17.5 -6.5t7.5 -17.5q0 -20 -21 -29l-78 -37q78 -69 117 -168t39 -209q0 -139 -60.5 -222t-179.5 -83q-102 0 -165.5 81.5t-63.5 186.5zM123 262q0 -76 38 -134t109 -58q69 0 107.5 58t38.5 134t-38 134.5t-108 58.5q-71 0 -109 -58.5t-38 -134.5z" />
    <glyph glyph-name="ntilde" unicode="&#xf1;" 
d="M59 492q0 20 12.5 33.5t30.5 13.5t31 -13t13 -34v-21l2 -2q24 33 64 51.5t81 18.5q50 0 92 -23q43 -21 69 -67.5t26 -112.5v-297q0 -20 -13 -31.5t-31 -11.5q-43 0 -43 43v295q0 60 -37 93.5t-86 33.5t-86.5 -34t-37.5 -95v-293q0 -20 -12.5 -33.5t-29.5 -13.5t-31 12.5
t-14 34.5v453zM133 688q26 29 78 29q17 0 55 -9l54 -11q12 0 31 9t34 11q13 0 22.5 -10.5t10.5 -26.5q0 -29 -31 -47q-18 -9 -32.5 -13.5t-32.5 -4.5l-9 2q-9 0 -42.5 9t-53.5 9l-18 -3l-24 -9l-21 -8q-31 16 -31 39q0 21 10 34z" />
    <glyph glyph-name="ograve" unicode="&#xf2;" 
d="M123 266q0 -73 36.5 -134.5t108.5 -61.5t109 55q18 27 28.5 64t10.5 77q0 85 -38 141t-108 56q-69 0 -108 -55.5t-39 -141.5zM35 266q0 117 66 195t169 78q73 0 124 -38q53 -36 81.5 -100t28.5 -135q0 -36 -7 -70t-22 -66q-27 -62 -80.5 -99t-124.5 -37
q-106 0 -170.5 80.5t-64.5 191.5zM173 663q-26 9 -32 37q0 15 13 28q13 11 30 13q13 0 16 -2l133 -56q33 -11 33 -39q0 -33 -43 -37l-13 3l-10 2z" />
    <glyph glyph-name="oacute" unicode="&#xf3;" 
d="M123 266q0 -73 36.5 -134.5t108.5 -61.5t109 55q18 27 28.5 64t10.5 77q0 85 -38 141t-108 56q-69 0 -108 -55.5t-39 -141.5zM35 266q0 117 66 195t169 78q73 0 124 -38q53 -36 81.5 -100t28.5 -135q0 -36 -7 -70t-22 -66q-27 -62 -80.5 -99t-124.5 -37
q-106 0 -170.5 80.5t-64.5 191.5zM230 691l118 48q4 2 8.5 3t14.5 1q14 0 26.5 -11t14.5 -28q0 -23 -33 -37l-117 -49l-30 -5q-35 0 -41 35q3 28 39 43z" />
    <glyph glyph-name="ocircumflex" unicode="&#xf4;" 
d="M123 266q0 -73 36.5 -134.5t108.5 -61.5t109 55q18 27 28.5 64t10.5 77q0 85 -38 141t-108 56q-69 0 -108 -55.5t-39 -141.5zM35 266q0 117 66 195t169 78q73 0 124 -38q53 -36 81.5 -100t28.5 -135q0 -36 -7 -70t-22 -66q-27 -62 -80.5 -99t-124.5 -37
q-106 0 -170.5 80.5t-64.5 191.5zM270 738l130 -56q26 -9 26 -39q0 -36 -37 -36l-12 3l-12 3l-95 39l-94 -37l-29 -8q-34 0 -34 36q0 30 24 39z" />
    <glyph glyph-name="otilde" unicode="&#xf5;" 
d="M123 266q0 -73 36.5 -134.5t108.5 -61.5t109 55q18 27 28.5 64t10.5 77q0 85 -38 141t-108 56q-69 0 -108 -55.5t-39 -141.5zM35 266q0 117 66 195t169 78q73 0 124 -38q53 -36 81.5 -100t28.5 -135q0 -36 -7 -70t-22 -66q-27 -62 -80.5 -99t-124.5 -37
q-106 0 -170.5 80.5t-64.5 191.5zM137 688q26 29 78 29q17 0 55 -9l54 -11q12 0 31 9t34 11q13 0 22.5 -10.5t10.5 -26.5q0 -29 -31 -47q-18 -9 -32.5 -13.5t-32.5 -4.5l-9 2q-9 0 -42.5 9t-53.5 9l-18 -3l-24 -9l-21 -8q-31 16 -31 39q0 21 10 34z" />
    <glyph glyph-name="odieresis" unicode="&#xf6;" 
d="M123 266q0 -73 36.5 -134.5t108.5 -61.5t109 55q18 27 28.5 64t10.5 77q0 85 -38 141t-108 56q-69 0 -108 -55.5t-39 -141.5zM35 266q0 117 66 195t169 78q73 0 124 -38q53 -36 81.5 -100t28.5 -135q0 -36 -7 -70t-22 -66q-27 -62 -80.5 -99t-124.5 -37
q-106 0 -170.5 80.5t-64.5 191.5zM123 660q0 23 16 39t39 16q22 0 37.5 -15.5t15.5 -39.5q0 -21 -15 -37t-38 -16q-22 0 -38.5 15.5t-16.5 37.5zM309 660q0 20 15 37.5t39 17.5q23 0 39 -16t16 -39q0 -22 -15.5 -37.5t-39.5 -15.5q-22 0 -38 15t-16 38z" />
    <glyph glyph-name="oslash" unicode="&#xf8;" 
d="M395 369l-217 -262q37 -37 93 -37q63 0 102 51q20 26 31.5 62.5t11.5 80.5q0 57 -21 105zM143 162l218 264q-37 37 -91 37q-62 0 -104 -49q-20 -25 -31.5 -61t-11.5 -80l-2 -13q0 -28 5.5 -52.5t16.5 -45.5zM35 262q0 74 27 138t82 101.5t127 37.5q91 0 141 -53l43 53
q15 18 29 18q11 0 21.5 -8.5t10.5 -21.5q0 -9 -10 -23l-53 -65q51 -72 51 -175q0 -112 -64 -191t-170 -79q-81 0 -143 51l-45 -53q-9 -15 -29 -15q-9 0 -19 7t-14 20q1 11 15 29l51 61q-51 65 -51 168z" />
    <glyph glyph-name="ugrave" unicode="&#xf9;" 
d="M59 494q0 21 12 33t31 12q17 0 30.5 -11.5t13.5 -33.5v-291q0 -60 30.5 -96.5t91.5 -36.5q125 0 125 133v291q0 21 12 33t31 12q17 0 30.5 -11.5t13.5 -33.5v-293q0 -88 -52 -147.5t-162 -59.5q-102 0 -154.5 60t-52.5 147v293zM151 663q-26 9 -32 37q0 15 13 28
q13 11 30 13q13 0 16 -2l133 -56q33 -11 33 -39q0 -33 -43 -37l-13 3l-10 2z" />
    <glyph glyph-name="uacute" unicode="&#xfa;" 
d="M59 494q0 21 12 33t31 12q17 0 30.5 -11.5t13.5 -33.5v-291q0 -60 30.5 -96.5t91.5 -36.5q125 0 125 133v291q0 21 12 33t31 12q17 0 30.5 -11.5t13.5 -33.5v-293q0 -88 -52 -147.5t-162 -59.5q-102 0 -154.5 60t-52.5 147v293zM241 687l118 48q4 2 8.5 3t14.5 1
q14 0 26.5 -11t14.5 -28q0 -23 -33 -37l-117 -49l-30 -5q-35 0 -41 35q3 28 39 43z" />
    <glyph glyph-name="ucircumflex" unicode="&#xfb;" 
d="M59 494q0 21 12 33t31 12q17 0 30.5 -11.5t13.5 -33.5v-291q0 -60 30.5 -96.5t91.5 -36.5q125 0 125 133v291q0 21 12 33t31 12q17 0 30.5 -11.5t13.5 -33.5v-293q0 -88 -52 -147.5t-162 -59.5q-102 0 -154.5 60t-52.5 147v293zM324 691l118 48q4 2 8.5 3t14.5 1
q14 0 26.5 -11t14.5 -28q0 -23 -33 -37l-117 -49l-30 -5q-35 0 -41 35q3 28 39 43zM85 696l118 48q4 2 8.5 3t14.5 1q14 0 26.5 -11t14.5 -28q0 -23 -33 -37l-117 -49l-30 -5q-35 0 -41 35q3 28 39 43z" />
    <glyph glyph-name="udieresis" unicode="&#xfc;" 
d="M59 494q0 21 12 33t31 12q17 0 30.5 -11.5t13.5 -33.5v-291q0 -60 30.5 -96.5t91.5 -36.5q125 0 125 133v291q0 21 12 33t31 12q17 0 30.5 -11.5t13.5 -33.5v-293q0 -88 -52 -147.5t-162 -59.5q-102 0 -154.5 60t-52.5 147v293zM125 657q0 23 16 39t39 16
q22 0 37.5 -15.5t15.5 -39.5q0 -21 -15 -37t-38 -16q-22 0 -38.5 15.5t-16.5 37.5zM311 657q0 20 15 37.5t39 17.5q23 0 39 -16t16 -39q0 -22 -15.5 -37.5t-39.5 -15.5q-22 0 -38 15t-16 38z" />
    <glyph glyph-name="yacute" unicode="&#xfd;" horiz-adv-x="426" 
d="M180 20l-159 455q0 8 -5 23q0 17 12 28t29 11q35 0 45 -31l121 -365l123 367q9 31 41 31q18 0 29.5 -11t11.5 -32l-4 -21l-231 -657q-11 -39 -48 -39q-36 0 -36 41l6 28zM181 689l118 48q4 2 8.5 3t14.5 1q14 0 26.5 -11t14.5 -28q0 -23 -33 -37l-117 -49l-30 -5
q-35 0 -41 35q3 28 39 43z" />
    <glyph glyph-name="thorn" unicode="&#xfe;" horiz-adv-x="240" 
d="M86 457h-39q-39 0 -43 37q0 39 43 39h39v119q0 19 12.5 30t30.5 11q20 0 32.5 -10.5t12.5 -32.5v-117h39q41 0 41 -39q0 -16 -10.5 -26.5t-26.5 -10.5h-43v-420q0 -19 -14 -32q-14 -11 -33 -11q-15 0 -29 11q-12 12 -12 34v418zM64 -161l46 89q11 20 29 20q27 0 27 -28
q0 -7 -4 -21l-45 -87q-11 -20 -32 -20q-24 0 -27 27q2 13 6 20z" />
    <glyph glyph-name="ydieresis" unicode="&#xff;" horiz-adv-x="426" 
d="M180 20l-159 455q0 8 -5 23q0 17 12 28t29 11q35 0 45 -31l121 -365l123 367q9 31 41 31q18 0 29.5 -11t11.5 -32l-4 -21l-231 -657q-11 -39 -48 -39q-36 0 -36 41l6 28zM72 658q0 23 16 39t39 16q22 0 37.5 -15.5t15.5 -39.5q0 -21 -15 -37t-38 -16q-22 0 -38.5 15.5
t-16.5 37.5zM258 658q0 20 15 37.5t39 17.5q23 0 39 -16t16 -39q0 -22 -15.5 -37.5t-39.5 -15.5q-22 0 -38 15t-16 38z" />
    <glyph glyph-name="Abreve" unicode="&#x102;" horiz-adv-x="611" 
d="M218 875q16 -10 40 -17t47 -7v0v0q25 0 49.5 7t39.5 17q7 3 14.5 9.5t16.5 8.5q17 4 26 -12q11 -19 5 -41q-2 -11 -19 -25q-16 -15 -33 -23q-17 -9 -47 -13.5t-52 -3.5v0v0q-20 -1 -50 3.5t-47 13.5q-17 8 -33 23q-16 14 -19 25q-6 22 5 41q9 16 26 12q9 -2 16.5 -8.5
t14.5 -9.5zM168 230h277l-138 387zM141 154l-47 -129q-9 -31 -45 -31q-37 0 -41 35l3 12l3 12l230 615q9 26 25.5 39.5t35.5 13.5q41 0 62 -51l233 -617l4 -26q0 -35 -41 -35q-34 0 -45 33l-47 129h-330z" />
    <glyph glyph-name="abreve" unicode="&#x103;" horiz-adv-x="557" 
d="M217 700q16 -10 40 -17t47 -7v0v0q25 0 49.5 7t39.5 17q7 3 14.5 9.5t16.5 8.5q17 4 26 -12q11 -19 5 -41q-2 -11 -19 -25q-16 -15 -33 -23q-17 -9 -47 -13.5t-52 -3.5v0v0q-20 -1 -50 3.5t-47 13.5q-17 8 -33 23q-16 14 -19 25q-6 22 5 41q9 16 26 12q9 -2 16.5 -8.5
t14.5 -9.5zM123 266q0 -41 8 -75t27 -63q38 -58 106 -58q80 0 115 57t35 139q0 90 -39 143.5t-105 53.5q-37 0 -64 -14.5t-45 -41.5t-28 -62.5t-10 -78.5zM416 496q0 17 12 30t29 13q15 0 28 -12t13 -33v-455q0 -21 -13 -34q-11 -9 -28 -11q-15 0 -29 10q-12 11 -12 31v39
q-60 -80 -141 -80q-36 0 -65 7t-57 24q-53 33 -85.5 95t-32.5 144q0 89 33.5 151t87.5 93t108 31q49 0 82 -17q34 -15 68 -55z" />
    <glyph glyph-name="Dcroat" unicode="&#x110;" horiz-adv-x="631" 
d="M27 394h36v272q0 47 46 47h180q95 0 167 -47t108 -127.5t36 -179.5q0 -101 -35 -183t-104 -129t-164 -47h-188q-24 0 -34.5 12t-11.5 27v278h-34q-38 0 -43 36q0 15 11.5 28t29.5 13zM150 637v-243h121q41 0 41 -39q0 -38 -41 -38h-121v-241h137q76 0 147.5 63t71.5 226
q0 125 -63.5 198.5t-167.5 73.5h-125z" />
    <glyph glyph-name="dcroat" unicode="&#x111;" horiz-adv-x="557" 
d="M292 687h113l1 42q0 20 13.5 32t29.5 12q17 0 31 -11.5t14 -34.5v-40h32q41 0 41 -39q0 -38 -41 -38h-32v-571q0 -21 -13 -34q-13 -11 -32 -11q-15 0 -30 12q-13 13 -13 31v29q-38 -72 -135 -72q-36 0 -66 7t-57 25q-52 34 -82 95q-15 33 -23 66t-8 77q0 72 27.5 136
t79.5 101.5t118 37.5q90 0 144 -72l1 143h-111q-38 0 -43 36q0 15 11.5 28t29.5 13zM123 268q0 -41 8.5 -75.5t25.5 -62.5q38 -60 105 -60q82 0 116 55q19 30 28.5 64.5t9.5 76.5q0 89 -40 143t-106 54q-72 0 -109.5 -60.5t-37.5 -134.5z" />
    <glyph glyph-name="Itilde" unicode="&#x128;" horiz-adv-x="203" 
d="M59 672q0 47 45 47q18 0 30 -12t12 -35v-629q0 -29 -13.5 -38t-28.5 -11q-45 0 -45 47v631zM-35 862q26 29 78 29q17 0 55 -9l54 -11q12 0 31 9t34 11q13 0 22.5 -10.5t10.5 -26.5q0 -29 -31 -47q-18 -9 -32.5 -13.5t-32.5 -4.5l-9 2q-9 0 -42.5 9t-53.5 9l-18 -3l-24 -9
l-21 -8q-31 16 -31 39q0 21 10 34z" />
    <glyph glyph-name="itilde" unicode="&#x129;" horiz-adv-x="203" 
d="M59 492q0 20 12.5 33.5t30.5 13.5q17 0 30.5 -11.5t13.5 -33.5v-455q0 -21 -13 -34q-13 -11 -31 -11q-19 0 -31 11.5t-12 33.5v453zM102 609q-25 0 -44 18q-18 20 -18 44q0 23 17 42.5t45 19.5q25 0 43 -18.5t18 -43.5t-18.5 -43.5t-42.5 -18.5zM-35 688q26 29 78 29
q17 0 55 -9l54 -11q12 0 31 9t34 11q13 0 22.5 -10.5t10.5 -26.5q0 -29 -31 -47q-18 -9 -32.5 -13.5t-32.5 -4.5l-9 2q-9 0 -42.5 9t-53.5 9l-18 -3l-24 -9l-21 -8q-31 16 -31 39q0 21 10 34z" />
    <glyph glyph-name="dotlessi" unicode="&#x131;" horiz-adv-x="203" 
d="M59 494q0 21 12 33t31 12q18 0 31 -13t13 -34v-453q0 -21 -13 -34q-13 -11 -31 -11q-19 0 -31 11.5t-12 33.5v455z" />
    <glyph glyph-name="OE" unicode="&#x152;" horiz-adv-x="926" 
d="M346 70q105 0 160 82.5t55 206.5q0 82 -24.5 145t-74 101t-118.5 38q-101 0 -160 -81.5t-59 -206.5t57 -205t164 -80zM555 49v55q-38 -48 -94 -79t-117 -31q-73 0 -131 29.5t-98.5 79.5t-62 117t-21.5 135q0 96 36 178t108.5 134t168.5 52q117 0 211 -100v45q0 49 47 49
h248q17 0 28 -11.5t11 -29.5t-11.5 -29.5t-33.5 -11.5h-201v-235h197q16 0 27.5 -11.5t11.5 -29.5q0 -19 -11 -30t-32 -11h-193v-232h214q39 0 39 -43q0 -16 -11 -27.5t-31 -11.5h-252q-47 0 -47 49z" />
    <glyph glyph-name="oe" unicode="&#x153;" horiz-adv-x="908" 
d="M793 299q0 78 -42 121t-103 43q-60 0 -103 -43.5t-43 -120.5h291zM459 434q14 23 32.5 41.5t44.5 33.5q50 30 116 30q48 0 89 -20.5t75 -60.5q65 -77 65 -177q0 -49 -49 -49h-330q0 -66 37 -108t96 -50q24 0 31 -2q37 0 73.5 15t73.5 44q11 8 25 10q11 0 21 -11.5
t10 -25.5l-4 -20q-20 -35 -81 -62q-28 -13 -59 -20.5t-63 -7.5q-66 0 -118.5 25.5t-84.5 78.5q-39 -55 -89.5 -79.5t-119.5 -24.5q-41 0 -78 19.5t-72 58.5q-65 74 -65 192q0 133 70 204t166 71q69 0 116 -34t72 -71zM123 268q0 -58 17 -103t50 -71q33 -24 78 -24
q71 0 108.5 58t37.5 136q0 91 -39 145t-109 54q-39 0 -66.5 -16.5t-44.5 -49.5q-32 -62 -32 -129z" />
    <glyph glyph-name="Utilde" unicode="&#x168;" horiz-adv-x="666" 
d="M59 674q0 21 12 33t31 12q17 0 30.5 -11.5t13.5 -33.5v-428q0 -84 54 -130t140 -46q81 0 132 49t51 127v428q0 21 12 33t29 12t31 -11.5t14 -33.5v-399q0 -87 -30 -149.5t-91 -97t-150 -34.5q-138 0 -208.5 75t-70.5 204v401zM195 862q26 29 78 29q17 0 55 -9l54 -11
q12 0 31 9t34 11q13 0 22.5 -10.5t10.5 -26.5q0 -29 -31 -47q-18 -9 -32.5 -13.5t-32.5 -4.5l-9 2q-9 0 -42.5 9t-53.5 9l-18 -3l-24 -9l-21 -8q-31 16 -31 39q0 21 10 34z" />
    <glyph glyph-name="utilde" unicode="&#x169;" 
d="M59 494q0 21 12 33t31 12q17 0 30.5 -11.5t13.5 -33.5v-291q0 -60 30.5 -96.5t91.5 -36.5q125 0 125 133v291q0 21 12 33t31 12q17 0 30.5 -11.5t13.5 -33.5v-293q0 -88 -52 -147.5t-162 -59.5q-102 0 -154.5 60t-52.5 147v293zM130 688q26 29 78 29q17 0 55 -9l54 -11
q12 0 31 9t34 11q13 0 22.5 -10.5t10.5 -26.5q0 -29 -31 -47q-18 -9 -32.5 -13.5t-32.5 -4.5l-9 2q-9 0 -42.5 9t-53.5 9l-18 -3l-24 -9l-21 -8q-31 16 -31 39q0 21 10 34z" />
    <glyph glyph-name="florin" unicode="&#x192;" 
d="M213 418h-63q-33 0 -37 31q3 31 37 31h71l31 157q15 83 61 105q22 10 51 16t62 6q20 0 30 -11q9 -8 11 -24q0 -14 -12 -26q-12 -10 -29 -10q-48 0 -70 -13.5t-34 -66.5l-31 -133h63q35 0 35 -31t-35 -31h-71l-78 -418q-15 -100 -62.5 -137t-111.5 -37q-47 0 -47 39
q0 33 39 33q46 0 72 21.5t40 96.5z" />
    <glyph glyph-name="Ohorn" unicode="&#x1a0;" horiz-adv-x="684" 
d="M31 355q0 149 84 256.5t229 107.5q67 0 120 -23q20 -2 37 2.5t27 11.5q11 8 7 20t-10 24q-8 13 -3 30t25 22q14 5 28 -0.5t22 -15.5q8 -9 12 -26t3 -36t-7.5 -37t-19.5 -29q-16 -16 -38 -24q43 -42 70 -102q18 -40 28.5 -87t10.5 -94q0 -96 -37.5 -180t-109 -132.5
t-165.5 -48.5q-132 0 -222.5 101t-90.5 260zM125 357q0 -107 50.5 -197t168.5 -90q94 0 156.5 74.5t62.5 212.5q0 141 -61.5 213.5t-157.5 72.5q-32 0 -58.5 -7t-52.5 -25q-49 -33 -78.5 -99.5t-29.5 -154.5z" />
    <glyph glyph-name="ohorn" unicode="&#x1a1;" 
d="M35 266q0 117 66 195t169 78q52 0 93 -20q23 -3 41.5 1t29.5 12t7 20t-10 24q-8 13 -3 30t25 22q14 5 28 -0.5t22 -15.5q8 -9 12 -26t3 -36t-7.5 -37t-19.5 -29q-21 -21 -50 -27q20 -25 34 -56q29 -64 29 -135q0 -36 -7 -70t-22 -66q-27 -62 -80.5 -99t-124.5 -37
q-106 0 -170.5 80.5t-64.5 191.5zM123 266q0 -73 36.5 -134.5t108.5 -61.5t109 55q18 27 28.5 64t10.5 77q0 85 -38 141t-108 56q-69 0 -108 -55.5t-39 -141.5z" />
    <glyph glyph-name="Uhorn" unicode="&#x1af;" horiz-adv-x="666" 
d="M59 674q0 21 12 33t31 12q17 0 30.5 -11.5t13.5 -33.5v-428q0 -84 54 -130t140 -46q81 0 132 49t51 127v428q0 21 12 33t29 12t31 -12q1 -1 3 -2q7 1 18 9t7 20t-10 24q-8 13 -3 30t25 22q14 5 28 -0.5t22 -15.5q8 -9 12 -26t3 -36t-7.5 -37t-19.5 -29q-26 -26 -64 -29
v-362q0 -87 -30 -149.5t-91 -97t-150 -34.5q-138 0 -208.5 75t-70.5 204v401z" />
    <glyph glyph-name="uhorn" unicode="&#x1b0;" 
d="M59 494q0 21 12 33t31 12q17 0 30.5 -11.5t13.5 -33.5v-291q0 -60 30.5 -96.5t91.5 -36.5q125 0 125 133v291q0 21 12 33t31 12q17 0 30 -12q2 -1 4 -3q6 1 17 9t7 20t-10 24q-8 13 -3 30t25 22q14 5 28 -0.5t22 -15.5q8 -9 12 -26t3 -36t-7.5 -37t-19.5 -29
q-26 -26 -64 -29v-255q0 -88 -52 -147.5t-162 -59.5q-102 0 -154.5 60t-52.5 147v293z" />
    <glyph glyph-name="circumflex" unicode="&#x2c6;" horiz-adv-x="203" 
d="M102 736l130 -56q26 -9 26 -39q0 -36 -37 -36l-12 3l-12 3l-95 39l-94 -37l-29 -8q-34 0 -34 36q0 30 24 39z" />
    <glyph glyph-name="breve" unicode="&#x2d8;" horiz-adv-x="203" 
d="M-33 697q0 14 8 24.5t23 12.5q14 0 44.5 -29t59.5 -29q31 0 60.5 28t44.5 30q13 0 20 -10t9 -27q0 -40 -44.5 -68.5t-89.5 -28.5q-46 0 -90.5 28.5t-44.5 68.5z" />
    <glyph glyph-name="ring" unicode="&#x2da;" horiz-adv-x="203" 
d="M102 633q17 0 31.5 12t14.5 33q0 11 -6 22t-15.5 17.5t-24.5 7.5q-19 0 -32 -14.5t-13 -32.5t13 -31.5t32 -13.5zM102 584q-38 0 -66 28t-28 66q0 39 28 67t66 28q39 0 67 -28t28 -67q0 -38 -28 -66t-67 -28z" />
    <glyph glyph-name="tilde" unicode="&#x2dc;" horiz-adv-x="203" 
d="M-35 688q26 29 78 29q17 0 55 -9l54 -11q12 0 31 9t34 11q13 0 22.5 -10.5t10.5 -26.5q0 -29 -31 -47q-18 -9 -32.5 -13.5t-32.5 -4.5l-9 2q-9 0 -42.5 9t-53.5 9l-18 -3l-24 -9l-21 -8q-31 16 -31 39q0 21 10 34z" />
    <glyph glyph-name="uni1EA0" unicode="&#x1ea0;" horiz-adv-x="611" 
d="M300 -206q-25 0 -44 18q-18 20 -18 44q0 23 17 42.5t45 19.5q25 0 43 -18.5t18 -43.5t-18.5 -43.5t-42.5 -18.5zM168 230h277l-138 387zM141 154l-47 -129q-9 -31 -45 -31q-37 0 -41 35l3 12l3 12l230 615q9 26 25.5 39.5t35.5 13.5q41 0 62 -51l233 -617l4 -26
q0 -35 -41 -35q-34 0 -45 33l-47 129h-330z" />
    <glyph glyph-name="uni1EA1" unicode="&#x1ea1;" horiz-adv-x="557" 
d="M268 -206q-25 0 -44 18q-18 20 -18 44q0 23 17 42.5t45 19.5q25 0 43 -18.5t18 -43.5t-18.5 -43.5t-42.5 -18.5zM123 266q0 -41 8 -75t27 -63q38 -58 106 -58q80 0 115 57t35 139q0 90 -39 143.5t-105 53.5q-37 0 -64 -14.5t-45 -41.5t-28 -62.5t-10 -78.5zM416 496
q0 17 12 30t29 13q15 0 28 -12t13 -33v-455q0 -21 -13 -34q-11 -9 -28 -11q-15 0 -29 10q-12 11 -12 31v39q-60 -80 -141 -80q-36 0 -65 7t-57 24q-53 33 -85.5 95t-32.5 144q0 89 33.5 151t87.5 93t108 31q49 0 82 -17q34 -15 68 -55z" />
    <glyph glyph-name="uni1EA2" unicode="&#x1ea2;" horiz-adv-x="611" 
d="M274 819q0 12 7 17t25 10l15 4q10 2 17.5 8.5t6.5 15.5q-1 13 -10 18.5t-24 5.5q-12 0 -26 -3.5t-18 -12.5q-3 -12 -11 -17t-19 -3q-17 2 -24 6.5t-7 18.5l1 9q3 12 10.5 22.5t20.5 18.5q13 9 33 13t38 4q17 0 38.5 -4.5t35.5 -13.5q15 -11 23 -24.5t10 -35.5
q0 -38 -21.5 -55t-56.5 -27v-9q0 -21 -31 -22q-14 -1 -23.5 6.5t-9.5 18.5v31zM168 230h277l-138 387zM141 154l-47 -129q-9 -31 -45 -31q-37 0 -41 35l3 12l3 12l230 615q9 26 25.5 39.5t35.5 13.5q41 0 62 -51l233 -617l4 -26q0 -35 -41 -35q-34 0 -45 33l-47 129h-330z
" />
    <glyph glyph-name="uni1EA3" unicode="&#x1ea3;" horiz-adv-x="557" 
d="M279 662q0 12 7 17t25 10l15 4q10 2 17.5 8.5t6.5 15.5q-1 13 -10 18.5t-24 5.5q-12 0 -26 -3.5t-18 -12.5q-3 -12 -11 -17t-19 -3q-17 2 -24 6.5t-7 18.5l1 9q3 12 10.5 22.5t20.5 18.5q13 9 33 13t38 4q17 0 38.5 -4.5t35.5 -13.5q15 -11 23 -24.5t10 -35.5
q0 -38 -21.5 -55t-56.5 -27v-9q0 -21 -31 -22q-14 -1 -23.5 6.5t-9.5 18.5v31zM123 266q0 -41 8 -75t27 -63q38 -58 106 -58q80 0 115 57t35 139q0 90 -39 143.5t-105 53.5q-37 0 -64 -14.5t-45 -41.5t-28 -62.5t-10 -78.5zM416 496q0 17 12 30t29 13q15 0 28 -12t13 -33
v-455q0 -21 -13 -34q-11 -9 -28 -11q-15 0 -29 10q-12 11 -12 31v39q-60 -80 -141 -80q-36 0 -65 7t-57 24q-53 33 -85.5 95t-32.5 144q0 89 33.5 151t87.5 93t108 31q49 0 82 -17q34 -15 68 -55z" />
    <glyph glyph-name="uni1EA4" unicode="&#x1ea4;" horiz-adv-x="611" 
d="M268 925l-10 -2l-13 -3q-43 4 -43 37q0 28 33 39l133 56q3 2 16 2q17 -2 30 -13q13 -13 13 -28q-6 -28 -32 -37zM303 896l130 -56q26 -9 26 -39q0 -36 -37 -36l-12 3l-12 3l-95 39l-94 -37l-29 -8q-34 0 -34 36q0 30 24 39zM168 230h277l-138 387zM141 154l-47 -129
q-9 -31 -45 -31q-37 0 -41 35l3 12l3 12l230 615q9 26 25.5 39.5t35.5 13.5q41 0 62 -51l233 -617l4 -26q0 -35 -41 -35q-34 0 -45 33l-47 129h-330z" />
    <glyph glyph-name="uni1EA5" unicode="&#x1ea5;" horiz-adv-x="557" 
d="M263 765l-10 -2l-13 -3q-43 4 -43 37q0 28 33 39l133 56q3 2 16 2q17 -2 30 -13q13 -13 13 -28q-6 -28 -32 -37zM123 266q0 -41 8 -75t27 -63q38 -58 106 -58q80 0 115 57t35 139q0 90 -39 143.5t-105 53.5q-37 0 -64 -14.5t-45 -41.5t-28 -62.5t-10 -78.5zM416 496
q0 17 12 30t29 13q15 0 28 -12t13 -33v-455q0 -21 -13 -34q-11 -9 -28 -11q-15 0 -29 10q-12 11 -12 31v39q-60 -80 -141 -80q-36 0 -65 7t-57 24q-53 33 -85.5 95t-32.5 144q0 89 33.5 151t87.5 93t108 31q49 0 82 -17q34 -15 68 -55zM298 736l130 -56q26 -9 26 -39
q0 -36 -37 -36l-12 3l-12 3l-95 39l-94 -37l-29 -8q-34 0 -34 36q0 30 24 39z" />
    <glyph glyph-name="uni1EA6" unicode="&#x1ea6;" horiz-adv-x="611" 
d="M240 976q-26 9 -32 37q0 15 13 28q13 11 30 13q13 0 16 -2l133 -56q33 -11 33 -39q0 -33 -43 -37l-13 3l-10 2zM303 896l130 -56q26 -9 26 -39q0 -36 -37 -36l-12 3l-12 3l-95 39l-94 -37l-29 -8q-34 0 -34 36q0 30 24 39zM168 230h277l-138 387zM141 154l-47 -129
q-9 -31 -45 -31q-37 0 -41 35l3 12l3 12l230 615q9 26 25.5 39.5t35.5 13.5q41 0 62 -51l233 -617l4 -26q0 -35 -41 -35q-34 0 -45 33l-47 129h-330z" />
    <glyph glyph-name="uni1EA7" unicode="&#x1ea7;" horiz-adv-x="557" 
d="M235 816q-26 9 -32 37q0 15 13 28q13 11 30 13q13 0 16 -2l133 -56q33 -11 33 -39q0 -33 -43 -37l-13 3l-10 2zM123 266q0 -41 8 -75t27 -63q38 -58 106 -58q80 0 115 57t35 139q0 90 -39 143.5t-105 53.5q-37 0 -64 -14.5t-45 -41.5t-28 -62.5t-10 -78.5zM416 496
q0 17 12 30t29 13q15 0 28 -12t13 -33v-455q0 -21 -13 -34q-11 -9 -28 -11q-15 0 -29 10q-12 11 -12 31v39q-60 -80 -141 -80q-36 0 -65 7t-57 24q-53 33 -85.5 95t-32.5 144q0 89 33.5 151t87.5 93t108 31q49 0 82 -17q34 -15 68 -55zM298 736l130 -56q26 -9 26 -39
q0 -36 -37 -36l-12 3l-12 3l-95 39l-94 -37l-29 -8q-34 0 -34 36q0 30 24 39z" />
    <glyph glyph-name="uni1EA8" unicode="&#x1ea8;" horiz-adv-x="611" 
d="M388 947q0 12 7 17t25 10l15 4q10 2 17.5 8.5t6.5 15.5q-1 13 -10 18.5t-24 5.5q-12 0 -26 -3.5t-18 -12.5q-3 -12 -11 -17t-19 -3q-17 2 -24 6.5t-7 18.5l1 9q3 12 10.5 22.5t20.5 18.5q13 9 33 13t38 4q17 0 38.5 -4.5t35.5 -13.5q15 -11 23 -24.5t10 -35.5
q0 -38 -21.5 -55t-56.5 -27v-9q0 -21 -31 -22q-14 -1 -23.5 6.5t-9.5 18.5v31zM303 896l130 -56q26 -9 26 -39q0 -36 -37 -36l-12 3l-12 3l-95 39l-94 -37l-29 -8q-34 0 -34 36q0 30 24 39zM168 230h277l-138 387zM141 154l-47 -129q-9 -31 -45 -31q-37 0 -41 35l3 12l3 12
l230 615q9 26 25.5 39.5t35.5 13.5q41 0 62 -51l233 -617l4 -26q0 -35 -41 -35q-34 0 -45 33l-47 129h-330z" />
    <glyph glyph-name="uni1EA9" unicode="&#x1ea9;" horiz-adv-x="557" 
d="M382 787q0 12 7 17t25 10l15 4q10 2 17.5 8.5t6.5 15.5q-1 13 -10 18.5t-24 5.5q-12 0 -26 -3.5t-18 -12.5q-3 -12 -11 -17t-19 -3q-17 2 -24 6.5t-7 18.5l1 9q3 12 10.5 22.5t20.5 18.5q13 9 33 13t38 4q17 0 38.5 -4.5t35.5 -13.5q15 -11 23 -24.5t10 -35.5
q0 -38 -21.5 -55t-56.5 -27v-9q0 -21 -31 -22q-14 -1 -23.5 6.5t-9.5 18.5v31zM123 266q0 -41 8 -75t27 -63q38 -58 106 -58q80 0 115 57t35 139q0 90 -39 143.5t-105 53.5q-37 0 -64 -14.5t-45 -41.5t-28 -62.5t-10 -78.5zM416 496q0 17 12 30t29 13q15 0 28 -12t13 -33
v-455q0 -21 -13 -34q-11 -9 -28 -11q-15 0 -29 10q-12 11 -12 31v39q-60 -80 -141 -80q-36 0 -65 7t-57 24q-53 33 -85.5 95t-32.5 144q0 89 33.5 151t87.5 93t108 31q49 0 82 -17q34 -15 68 -55zM298 736l130 -56q26 -9 26 -39q0 -36 -37 -36l-12 3l-12 3l-95 39l-94 -37
l-29 -8q-34 0 -34 36q0 30 24 39z" />
    <glyph glyph-name="uni1EAA" unicode="&#x1eaa;" horiz-adv-x="611" 
d="M303 896l130 -56q26 -9 26 -39q0 -36 -37 -36l-12 3l-12 3l-95 39l-94 -37l-29 -8q-34 0 -34 36q0 30 24 39zM156 989q26 29 78 29q17 0 55 -9l54 -11q12 0 31 9t34 11q13 0 22.5 -10.5t10.5 -26.5q0 -29 -31 -47q-18 -9 -32.5 -13.5t-32.5 -4.5l-9 2q-9 0 -42.5 9
t-53.5 9l-18 -3l-24 -9l-21 -8q-31 16 -31 39q0 21 10 34zM168 230h277l-138 387zM141 154l-47 -129q-9 -31 -45 -31q-37 0 -41 35l3 12l3 12l230 615q9 26 25.5 39.5t35.5 13.5q41 0 62 -51l233 -617l4 -26q0 -35 -41 -35q-34 0 -45 33l-47 129h-330z" />
    <glyph glyph-name="uni1EAB" unicode="&#x1eab;" horiz-adv-x="557" 
d="M151 829q26 29 78 29q17 0 55 -9l54 -11q12 0 31 9t34 11q13 0 22.5 -10.5t10.5 -26.5q0 -29 -31 -47q-18 -9 -32.5 -13.5t-32.5 -4.5l-9 2q-9 0 -42.5 9t-53.5 9l-18 -3l-24 -9l-21 -8q-31 16 -31 39q0 21 10 34zM123 266q0 -41 8 -75t27 -63q38 -58 106 -58
q80 0 115 57t35 139q0 90 -39 143.5t-105 53.5q-37 0 -64 -14.5t-45 -41.5t-28 -62.5t-10 -78.5zM416 496q0 17 12 30t29 13q15 0 28 -12t13 -33v-455q0 -21 -13 -34q-11 -9 -28 -11q-15 0 -29 10q-12 11 -12 31v39q-60 -80 -141 -80q-36 0 -65 7t-57 24q-53 33 -85.5 95
t-32.5 144q0 89 33.5 151t87.5 93t108 31q49 0 82 -17q34 -15 68 -55zM298 736l130 -56q26 -9 26 -39q0 -36 -37 -36l-12 3l-12 3l-95 39l-94 -37l-29 -8q-34 0 -34 36q0 30 24 39z" />
    <glyph glyph-name="uni1EAC" unicode="&#x1eac;" horiz-adv-x="611" 
d="M300 -206q-25 0 -44 18q-18 20 -18 44q0 23 17 42.5t45 19.5q25 0 43 -18.5t18 -43.5t-18.5 -43.5t-42.5 -18.5zM168 230h277l-138 387zM141 154l-47 -129q-9 -31 -45 -31q-37 0 -41 35l3 12l3 12l230 615q9 26 25.5 39.5t35.5 13.5q41 0 62 -51l233 -617l4 -26
q0 -35 -41 -35q-34 0 -45 33l-47 129h-330zM303 896l130 -56q26 -9 26 -39q0 -36 -37 -36l-12 3l-12 3l-95 39l-94 -37l-29 -8q-34 0 -34 36q0 30 24 39z" />
    <glyph glyph-name="uni1EAD" unicode="&#x1ead;" horiz-adv-x="557" 
d="M268 -206q-25 0 -44 18q-18 20 -18 44q0 23 17 42.5t45 19.5q25 0 43 -18.5t18 -43.5t-18.5 -43.5t-42.5 -18.5zM123 266q0 -41 8 -75t27 -63q38 -58 106 -58q80 0 115 57t35 139q0 90 -39 143.5t-105 53.5q-37 0 -64 -14.5t-45 -41.5t-28 -62.5t-10 -78.5zM416 496
q0 17 12 30t29 13q15 0 28 -12t13 -33v-455q0 -21 -13 -34q-11 -9 -28 -11q-15 0 -29 10q-12 11 -12 31v39q-60 -80 -141 -80q-36 0 -65 7t-57 24q-53 33 -85.5 95t-32.5 144q0 89 33.5 151t87.5 93t108 31q49 0 82 -17q34 -15 68 -55zM298 736l130 -56q26 -9 26 -39
q0 -36 -37 -36l-12 3l-12 3l-95 39l-94 -37l-29 -8q-34 0 -34 36q0 30 24 39z" />
    <glyph glyph-name="uni1EAE" unicode="&#x1eae;" horiz-adv-x="611" 
d="M290 988l118 48q4 2 8.5 3t14.5 1q14 0 26.5 -11t14.5 -28q0 -23 -33 -37l-117 -49l-30 -5q-35 0 -41 35q3 28 39 43zM218 875q16 -10 40 -17t47 -7v0v0q25 0 49.5 7t39.5 17q7 3 14.5 9.5t16.5 8.5q17 4 26 -12q11 -19 5 -41q-2 -11 -19 -25q-16 -15 -33 -23
q-17 -9 -47 -13.5t-52 -3.5v0v0q-20 -1 -50 3.5t-47 13.5q-17 8 -33 23q-16 14 -19 25q-6 22 5 41q9 16 26 12q9 -2 16.5 -8.5t14.5 -9.5zM168 230h277l-138 387zM141 154l-47 -129q-9 -31 -45 -31q-37 0 -41 35l3 12l3 12l230 615q9 26 25.5 39.5t35.5 13.5q41 0 62 -51
l233 -617l4 -26q0 -35 -41 -35q-34 0 -45 33l-47 129h-330z" />
    <glyph glyph-name="uni1EAF" unicode="&#x1eaf;" horiz-adv-x="557" 
d="M289 813l118 48q4 2 8.5 3t14.5 1q14 0 26.5 -11t14.5 -28q0 -23 -33 -37l-117 -49l-30 -5q-35 0 -41 35q3 28 39 43zM217 700q16 -10 40 -17t47 -7v0v0q25 0 49.5 7t39.5 17q7 3 14.5 9.5t16.5 8.5q17 4 26 -12q11 -19 5 -41q-2 -11 -19 -25q-16 -15 -33 -23
q-17 -9 -47 -13.5t-52 -3.5v0v0q-20 -1 -50 3.5t-47 13.5q-17 8 -33 23q-16 14 -19 25q-6 22 5 41q9 16 26 12q9 -2 16.5 -8.5t14.5 -9.5zM123 266q0 -41 8 -75t27 -63q38 -58 106 -58q80 0 115 57t35 139q0 90 -39 143.5t-105 53.5q-37 0 -64 -14.5t-45 -41.5t-28 -62.5
t-10 -78.5zM416 496q0 17 12 30t29 13q15 0 28 -12t13 -33v-455q0 -21 -13 -34q-11 -9 -28 -11q-15 0 -29 10q-12 11 -12 31v39q-60 -80 -141 -80q-36 0 -65 7t-57 24q-53 33 -85.5 95t-32.5 144q0 89 33.5 151t87.5 93t108 31q49 0 82 -17q34 -15 68 -55z" />
    <glyph glyph-name="uni1EB0" unicode="&#x1eb0;" horiz-adv-x="611" 
d="M174 966q-26 9 -32 37q0 15 13 28q13 11 30 13q13 0 16 -2l133 -56q33 -11 33 -39q0 -33 -43 -37l-13 3l-10 2zM218 875q16 -10 40 -17t47 -7v0v0q25 0 49.5 7t39.5 17q7 3 14.5 9.5t16.5 8.5q17 4 26 -12q11 -19 5 -41q-2 -11 -19 -25q-16 -15 -33 -23q-17 -9 -47 -13.5
t-52 -3.5v0v0q-20 -1 -50 3.5t-47 13.5q-17 8 -33 23q-16 14 -19 25q-6 22 5 41q9 16 26 12q9 -2 16.5 -8.5t14.5 -9.5zM168 230h277l-138 387zM141 154l-47 -129q-9 -31 -45 -31q-37 0 -41 35l3 12l3 12l230 615q9 26 25.5 39.5t35.5 13.5q41 0 62 -51l233 -617l4 -26
q0 -35 -41 -35q-34 0 -45 33l-47 129h-330z" />
    <glyph glyph-name="uni1EB1" unicode="&#x1eb1;" horiz-adv-x="557" 
d="M173 791q-26 9 -32 37q0 15 13 28q13 11 30 13q13 0 16 -2l133 -56q33 -11 33 -39q0 -33 -43 -37l-13 3l-10 2zM217 700q16 -10 40 -17t47 -7v0v0q25 0 49.5 7t39.5 17q7 3 14.5 9.5t16.5 8.5q17 4 26 -12q11 -19 5 -41q-2 -11 -19 -25q-16 -15 -33 -23q-17 -9 -47 -13.5
t-52 -3.5v0v0q-20 -1 -50 3.5t-47 13.5q-17 8 -33 23q-16 14 -19 25q-6 22 5 41q9 16 26 12q9 -2 16.5 -8.5t14.5 -9.5zM123 266q0 -41 8 -75t27 -63q38 -58 106 -58q80 0 115 57t35 139q0 90 -39 143.5t-105 53.5q-37 0 -64 -14.5t-45 -41.5t-28 -62.5t-10 -78.5zM416 496
q0 17 12 30t29 13q15 0 28 -12t13 -33v-455q0 -21 -13 -34q-11 -9 -28 -11q-15 0 -29 10q-12 11 -12 31v39q-60 -80 -141 -80q-36 0 -65 7t-57 24q-53 33 -85.5 95t-32.5 144q0 89 33.5 151t87.5 93t108 31q49 0 82 -17q34 -15 68 -55z" />
    <glyph glyph-name="uni1EB2" unicode="&#x1eb2;" horiz-adv-x="611" 
d="M218 875q16 -10 40 -17t47 -7v0v0q25 0 49.5 7t39.5 17q7 3 14.5 9.5t16.5 8.5q17 4 26 -12q11 -19 5 -41q-2 -11 -19 -25q-16 -15 -33 -23q-17 -9 -47 -13.5t-52 -3.5v0v0q-20 -1 -50 3.5t-47 13.5q-17 8 -33 23q-16 14 -19 25q-6 22 5 41q9 16 26 12q9 -2 16.5 -8.5
t14.5 -9.5zM168 230h277l-138 387zM141 154l-47 -129q-9 -31 -45 -31q-37 0 -41 35l3 12l3 12l230 615q9 26 25.5 39.5t35.5 13.5q41 0 62 -51l233 -617l4 -26q0 -35 -41 -35q-34 0 -45 33l-47 129h-330zM276 954q0 12 7 17t25 10l15 4q10 2 17.5 8.5t6.5 15.5
q-1 13 -10 18.5t-24 5.5q-12 0 -26 -3.5t-18 -12.5q-3 -12 -11 -17t-19 -3q-17 2 -24 6.5t-7 18.5l1 9q3 12 10.5 22.5t20.5 18.5q13 9 33 13t38 4q17 0 38.5 -4.5t35.5 -13.5q15 -11 23 -24.5t10 -35.5q0 -38 -21.5 -55t-56.5 -27v-9q0 -21 -31 -22q-14 -1 -23.5 6.5
t-9.5 18.5v31z" />
    <glyph glyph-name="uni1EB3" unicode="&#x1eb3;" horiz-adv-x="557" 
d="M275 779q0 12 7 17t25 10l15 4q10 2 17.5 8.5t6.5 15.5q-1 13 -10 18.5t-24 5.5q-12 0 -26 -3.5t-18 -12.5q-3 -12 -11 -17t-19 -3q-17 2 -24 6.5t-7 18.5l1 9q3 12 10.5 22.5t20.5 18.5q13 9 33 13t38 4q17 0 38.5 -4.5t35.5 -13.5q15 -11 23 -24.5t10 -35.5
q0 -38 -21.5 -55t-56.5 -27v-9q0 -21 -31 -22q-14 -1 -23.5 6.5t-9.5 18.5v31zM217 700q16 -10 40 -17t47 -7v0v0q25 0 49.5 7t39.5 17q7 3 14.5 9.5t16.5 8.5q17 4 26 -12q11 -19 5 -41q-2 -11 -19 -25q-16 -15 -33 -23q-17 -9 -47 -13.5t-52 -3.5v0v0q-20 -1 -50 3.5
t-47 13.5q-17 8 -33 23q-16 14 -19 25q-6 22 5 41q9 16 26 12q9 -2 16.5 -8.5t14.5 -9.5zM123 266q0 -41 8 -75t27 -63q38 -58 106 -58q80 0 115 57t35 139q0 90 -39 143.5t-105 53.5q-37 0 -64 -14.5t-45 -41.5t-28 -62.5t-10 -78.5zM416 496q0 17 12 30t29 13q15 0 28 -12
t13 -33v-455q0 -21 -13 -34q-11 -9 -28 -11q-15 0 -29 10q-12 11 -12 31v39q-60 -80 -141 -80q-36 0 -65 7t-57 24q-53 33 -85.5 95t-32.5 144q0 89 33.5 151t87.5 93t108 31q49 0 82 -17q34 -15 68 -55z" />
    <glyph glyph-name="uni1EB4" unicode="&#x1eb4;" horiz-adv-x="611" 
d="M169 990q26 29 78 29q17 0 55 -9l54 -11q12 0 31 9t34 11q13 0 22.5 -10.5t10.5 -26.5q0 -29 -31 -47q-18 -9 -32.5 -13.5t-32.5 -4.5l-9 2q-9 0 -42.5 9t-53.5 9l-18 -3l-24 -9l-21 -8q-31 16 -31 39q0 21 10 34zM218 875q16 -10 40 -17t47 -7v0v0q25 0 49.5 7t39.5 17
q7 3 14.5 9.5t16.5 8.5q17 4 26 -12q11 -19 5 -41q-2 -11 -19 -25q-16 -15 -33 -23q-17 -9 -47 -13.5t-52 -3.5v0v0q-20 -1 -50 3.5t-47 13.5q-17 8 -33 23q-16 14 -19 25q-6 22 5 41q9 16 26 12q9 -2 16.5 -8.5t14.5 -9.5zM168 230h277l-138 387zM141 154l-47 -129
q-9 -31 -45 -31q-37 0 -41 35l3 12l3 12l230 615q9 26 25.5 39.5t35.5 13.5q41 0 62 -51l233 -617l4 -26q0 -35 -41 -35q-34 0 -45 33l-47 129h-330z" />
    <glyph glyph-name="uni1EB5" unicode="&#x1eb5;" horiz-adv-x="557" 
d="M168 815q26 29 78 29q17 0 55 -9l54 -11q12 0 31 9t34 11q13 0 22.5 -10.5t10.5 -26.5q0 -29 -31 -47q-18 -9 -32.5 -13.5t-32.5 -4.5l-9 2q-9 0 -42.5 9t-53.5 9l-18 -3l-24 -9l-21 -8q-31 16 -31 39q0 21 10 34zM217 700q16 -10 40 -17t47 -7v0v0q25 0 49.5 7t39.5 17
q7 3 14.5 9.5t16.5 8.5q17 4 26 -12q11 -19 5 -41q-2 -11 -19 -25q-16 -15 -33 -23q-17 -9 -47 -13.5t-52 -3.5v0v0q-20 -1 -50 3.5t-47 13.5q-17 8 -33 23q-16 14 -19 25q-6 22 5 41q9 16 26 12q9 -2 16.5 -8.5t14.5 -9.5zM123 266q0 -41 8 -75t27 -63q38 -58 106 -58
q80 0 115 57t35 139q0 90 -39 143.5t-105 53.5q-37 0 -64 -14.5t-45 -41.5t-28 -62.5t-10 -78.5zM416 496q0 17 12 30t29 13q15 0 28 -12t13 -33v-455q0 -21 -13 -34q-11 -9 -28 -11q-15 0 -29 10q-12 11 -12 31v39q-60 -80 -141 -80q-36 0 -65 7t-57 24q-53 33 -85.5 95
t-32.5 144q0 89 33.5 151t87.5 93t108 31q49 0 82 -17q34 -15 68 -55z" />
    <glyph glyph-name="uni1EB6" unicode="&#x1eb6;" horiz-adv-x="611" 
d="M300 -206q-25 0 -44 18q-18 20 -18 44q0 23 17 42.5t45 19.5q25 0 43 -18.5t18 -43.5t-18.5 -43.5t-42.5 -18.5zM218 875q16 -10 40 -17t47 -7v0v0q25 0 49.5 7t39.5 17q7 3 14.5 9.5t16.5 8.5q17 4 26 -12q11 -19 5 -41q-2 -11 -19 -25q-16 -15 -33 -23
q-17 -9 -47 -13.5t-52 -3.5v0v0q-20 -1 -50 3.5t-47 13.5q-17 8 -33 23q-16 14 -19 25q-6 22 5 41q9 16 26 12q9 -2 16.5 -8.5t14.5 -9.5zM168 230h277l-138 387zM141 154l-47 -129q-9 -31 -45 -31q-37 0 -41 35l3 12l3 12l230 615q9 26 25.5 39.5t35.5 13.5q41 0 62 -51
l233 -617l4 -26q0 -35 -41 -35q-34 0 -45 33l-47 129h-330z" />
    <glyph glyph-name="uni1EB7" unicode="&#x1eb7;" horiz-adv-x="557" 
d="M268 -206q-25 0 -44 18q-18 20 -18 44q0 23 17 42.5t45 19.5q25 0 43 -18.5t18 -43.5t-18.5 -43.5t-42.5 -18.5zM217 700q16 -10 40 -17t47 -7v0v0q25 0 49.5 7t39.5 17q7 3 14.5 9.5t16.5 8.5q17 4 26 -12q11 -19 5 -41q-2 -11 -19 -25q-16 -15 -33 -23
q-17 -9 -47 -13.5t-52 -3.5v0v0q-20 -1 -50 3.5t-47 13.5q-17 8 -33 23q-16 14 -19 25q-6 22 5 41q9 16 26 12q9 -2 16.5 -8.5t14.5 -9.5zM123 266q0 -41 8 -75t27 -63q38 -58 106 -58q80 0 115 57t35 139q0 90 -39 143.5t-105 53.5q-37 0 -64 -14.5t-45 -41.5t-28 -62.5
t-10 -78.5zM416 496q0 17 12 30t29 13q15 0 28 -12t13 -33v-455q0 -21 -13 -34q-11 -9 -28 -11q-15 0 -29 10q-12 11 -12 31v39q-60 -80 -141 -80q-36 0 -65 7t-57 24q-53 33 -85.5 95t-32.5 144q0 89 33.5 151t87.5 93t108 31q49 0 82 -17q34 -15 68 -55z" />
    <glyph glyph-name="uni1EB8" unicode="&#x1eb8;" horiz-adv-x="443" 
d="M224 -206q-25 0 -44 18q-18 20 -18 44q0 23 17 42.5t45 19.5q25 0 43 -18.5t18 -43.5t-18.5 -43.5t-42.5 -18.5zM59 664q0 21 10.5 34.5t26.5 14.5h269q16 0 26.5 -12t10.5 -29q0 -19 -9.5 -30t-29.5 -11h-217v-235h198q16 0 27.5 -11.5t11.5 -29.5q0 -19 -11 -30
q-9 -11 -30 -11h-196v-232h219q37 0 37 -43q0 -39 -43 -39h-257q-43 0 -43 47v617z" />
    <glyph glyph-name="uni1EB9" unicode="&#x1eb9;" horiz-adv-x="520" 
d="M274 -206q-25 0 -44 18q-18 20 -18 44q0 23 17 42.5t45 19.5q25 0 43 -18.5t18 -43.5t-18.5 -43.5t-42.5 -18.5zM92 458q63 81 168 81q72 0 123 -38q52 -35 81.5 -97.5t29.5 -128.5q0 -43 -49 -43h-332q0 -77 46 -119.5t116 -42.5q78 0 143 55q20 14 33 16q15 0 22 -10
t9 -27q0 -15 -13 -32q-28 -30 -83 -55q-25 -11 -54.5 -17t-61.5 -6q-123 0 -185 84t-62 188l2 4q0 55 16.5 99.5t50.5 88.5zM113 299h293q0 73 -38.5 118.5t-103.5 45.5q-66 0 -108 -43q-20 -21 -31.5 -52t-11.5 -69z" />
    <glyph glyph-name="uni1EBA" unicode="&#x1eba;" horiz-adv-x="443" 
d="M206 819q0 12 7 17t25 10l15 4q10 2 17.5 8.5t6.5 15.5q-1 13 -10 18.5t-24 5.5q-12 0 -26 -3.5t-18 -12.5q-3 -12 -11 -17t-19 -3q-17 2 -24 6.5t-7 18.5l1 9q3 12 10.5 22.5t20.5 18.5q13 9 33 13t38 4q17 0 38.5 -4.5t35.5 -13.5q15 -11 23 -24.5t10 -35.5
q0 -38 -21.5 -55t-56.5 -27v-9q0 -21 -31 -22q-14 -1 -23.5 6.5t-9.5 18.5v31zM59 664q0 21 10.5 34.5t26.5 14.5h269q16 0 26.5 -12t10.5 -29q0 -19 -9.5 -30t-29.5 -11h-217v-235h198q16 0 27.5 -11.5t11.5 -29.5q0 -19 -11 -30q-9 -11 -30 -11h-196v-232h219q37 0 37 -43
q0 -39 -43 -39h-257q-43 0 -43 47v617z" />
    <glyph glyph-name="uni1EBB" unicode="&#x1ebb;" horiz-adv-x="520" 
d="M245 662q0 12 7 17t25 10l15 4q10 2 17.5 8.5t6.5 15.5q-1 13 -10 18.5t-24 5.5q-12 0 -26 -3.5t-18 -12.5q-3 -12 -11 -17t-19 -3q-17 2 -24 6.5t-7 18.5l1 9q3 12 10.5 22.5t20.5 18.5q13 9 33 13t38 4q17 0 38.5 -4.5t35.5 -13.5q15 -11 23 -24.5t10 -35.5
q0 -38 -21.5 -55t-56.5 -27v-9q0 -21 -31 -22q-14 -1 -23.5 6.5t-9.5 18.5v31zM92 458q63 81 168 81q72 0 123 -38q52 -35 81.5 -97.5t29.5 -128.5q0 -43 -49 -43h-332q0 -77 46 -119.5t116 -42.5q78 0 143 55q20 14 33 16q15 0 22 -10t9 -27q0 -15 -13 -32q-28 -30 -83 -55
q-25 -11 -54.5 -17t-61.5 -6q-123 0 -185 84t-62 188l2 4q0 55 16.5 99.5t50.5 88.5zM113 299h293q0 73 -38.5 118.5t-103.5 45.5q-66 0 -108 -43q-20 -21 -31.5 -52t-11.5 -69z" />
    <glyph glyph-name="uni1EBC" unicode="&#x1ebc;" horiz-adv-x="443" 
d="M59 664q0 21 10.5 34.5t26.5 14.5h269q16 0 26.5 -12t10.5 -29q0 -19 -9.5 -30t-29.5 -11h-217v-235h198q16 0 27.5 -11.5t11.5 -29.5q0 -19 -11 -30q-9 -11 -30 -11h-196v-232h219q37 0 37 -43q0 -39 -43 -39h-257q-43 0 -43 47v617zM89 862q26 29 78 29q17 0 55 -9
l54 -11q12 0 31 9t34 11q13 0 22.5 -10.5t10.5 -26.5q0 -29 -31 -47q-18 -9 -32.5 -13.5t-32.5 -4.5l-9 2q-9 0 -42.5 9t-53.5 9l-18 -3l-24 -9l-21 -8q-31 16 -31 39q0 21 10 34z" />
    <glyph glyph-name="uni1EBD" unicode="&#x1ebd;" horiz-adv-x="520" 
d="M92 458q63 81 168 81q72 0 123 -38q52 -35 81.5 -97.5t29.5 -128.5q0 -43 -49 -43h-332q0 -77 46 -119.5t116 -42.5q78 0 143 55q20 14 33 16q15 0 22 -10t9 -27q0 -15 -13 -32q-28 -30 -83 -55q-25 -11 -54.5 -17t-61.5 -6q-123 0 -185 84t-62 188l2 4q0 55 16.5 99.5
t50.5 88.5zM113 299h293q0 73 -38.5 118.5t-103.5 45.5q-66 0 -108 -43q-20 -21 -31.5 -52t-11.5 -69zM132 688q26 29 78 29q17 0 55 -9l54 -11q12 0 31 9t34 11q13 0 22.5 -10.5t10.5 -26.5q0 -29 -31 -47q-18 -9 -32.5 -13.5t-32.5 -4.5l-9 2q-9 0 -42.5 9t-53.5 9l-18 -3
l-24 -9l-21 -8q-31 16 -31 39q0 21 10 34z" />
    <glyph glyph-name="uni1EBE" unicode="&#x1ebe;" horiz-adv-x="443" 
d="M190 925l-10 -2l-13 -3q-43 4 -43 37q0 28 33 39l133 56q3 2 16 2q17 -2 30 -13q13 -13 13 -28q-6 -28 -32 -37zM59 664q0 21 10.5 34.5t26.5 14.5h269q16 0 26.5 -12t10.5 -29q0 -19 -9.5 -30t-29.5 -11h-217v-235h198q16 0 27.5 -11.5t11.5 -29.5q0 -19 -11 -30
q-9 -11 -30 -11h-196v-232h219q37 0 37 -43q0 -39 -43 -39h-257q-43 0 -43 47v617zM225 896l130 -56q26 -9 26 -39q0 -36 -37 -36l-12 3l-12 3l-95 39l-94 -37l-29 -8q-34 0 -34 36q0 30 24 39z" />
    <glyph glyph-name="uni1EBF" unicode="&#x1ebf;" horiz-adv-x="520" 
d="M223 767l-10 -2l-13 -3q-43 4 -43 37q0 28 33 39l133 56q3 2 16 2q17 -2 30 -13q13 -13 13 -28q-6 -28 -32 -37zM92 458q63 81 168 81q72 0 123 -38q52 -35 81.5 -97.5t29.5 -128.5q0 -43 -49 -43h-332q0 -77 46 -119.5t116 -42.5q78 0 143 55q20 14 33 16q15 0 22 -10
t9 -27q0 -15 -13 -32q-28 -30 -83 -55q-25 -11 -54.5 -17t-61.5 -6q-123 0 -185 84t-62 188l2 4q0 55 16.5 99.5t50.5 88.5zM113 299h293q0 73 -38.5 118.5t-103.5 45.5q-66 0 -108 -43q-20 -21 -31.5 -52t-11.5 -69zM258 738l130 -56q26 -9 26 -39q0 -36 -37 -36l-12 3
l-12 3l-95 39l-94 -37l-29 -8q-34 0 -34 36q0 30 24 39z" />
    <glyph glyph-name="uni1EC0" unicode="&#x1ec0;" horiz-adv-x="443" 
d="M161 976q-26 9 -32 37q0 15 13 28q13 11 30 13q13 0 16 -2l133 -56q33 -11 33 -39q0 -33 -43 -37l-13 3l-10 2zM59 664q0 21 10.5 34.5t26.5 14.5h269q16 0 26.5 -12t10.5 -29q0 -19 -9.5 -30t-29.5 -11h-217v-235h198q16 0 27.5 -11.5t11.5 -29.5q0 -19 -11 -30
q-9 -11 -30 -11h-196v-232h219q37 0 37 -43q0 -39 -43 -39h-257q-43 0 -43 47v617zM225 896l130 -56q26 -9 26 -39q0 -36 -37 -36l-12 3l-12 3l-95 39l-94 -37l-29 -8q-34 0 -34 36q0 30 24 39z" />
    <glyph glyph-name="uni1EC1" unicode="&#x1ec1;" horiz-adv-x="520" 
d="M195 818q-26 9 -32 37q0 15 13 28q13 11 30 13q13 0 16 -2l133 -56q33 -11 33 -39q0 -33 -43 -37l-13 3l-10 2zM92 458q63 81 168 81q72 0 123 -38q52 -35 81.5 -97.5t29.5 -128.5q0 -43 -49 -43h-332q0 -77 46 -119.5t116 -42.5q78 0 143 55q20 14 33 16q15 0 22 -10
t9 -27q0 -15 -13 -32q-28 -30 -83 -55q-25 -11 -54.5 -17t-61.5 -6q-123 0 -185 84t-62 188l2 4q0 55 16.5 99.5t50.5 88.5zM113 299h293q0 73 -38.5 118.5t-103.5 45.5q-66 0 -108 -43q-20 -21 -31.5 -52t-11.5 -69zM258 738l130 -56q26 -9 26 -39q0 -36 -37 -36l-12 3
l-12 3l-95 39l-94 -37l-29 -8q-34 0 -34 36q0 30 24 39z" />
    <glyph glyph-name="uni1EC2" unicode="&#x1ec2;" horiz-adv-x="443" 
d="M310 947q0 12 7 17t25 10l15 4q10 2 17.5 8.5t6.5 15.5q-1 13 -10 18.5t-24 5.5q-12 0 -26 -3.5t-18 -12.5q-3 -12 -11 -17t-19 -3q-17 2 -24 6.5t-7 18.5l1 9q3 12 10.5 22.5t20.5 18.5q13 9 33 13t38 4q17 0 38.5 -4.5t35.5 -13.5q15 -11 23 -24.5t10 -35.5
q0 -38 -21.5 -55t-56.5 -27v-9q0 -21 -31 -22q-14 -1 -23.5 6.5t-9.5 18.5v31zM59 664q0 21 10.5 34.5t26.5 14.5h269q16 0 26.5 -12t10.5 -29q0 -19 -9.5 -30t-29.5 -11h-217v-235h198q16 0 27.5 -11.5t11.5 -29.5q0 -19 -11 -30q-9 -11 -30 -11h-196v-232h219q37 0 37 -43
q0 -39 -43 -39h-257q-43 0 -43 47v617zM225 896l130 -56q26 -9 26 -39q0 -36 -37 -36l-12 3l-12 3l-95 39l-94 -37l-29 -8q-34 0 -34 36q0 30 24 39z" />
    <glyph glyph-name="uni1EC3" unicode="&#x1ec3;" horiz-adv-x="520" 
d="M343 789q0 12 7 17t25 10l15 4q10 2 17.5 8.5t6.5 15.5q-1 13 -10 18.5t-24 5.5q-12 0 -26 -3.5t-18 -12.5q-3 -12 -11 -17t-19 -3q-17 2 -24 6.5t-7 18.5l1 9q3 12 10.5 22.5t20.5 18.5q13 9 33 13t38 4q17 0 38.5 -4.5t35.5 -13.5q15 -11 23 -24.5t10 -35.5
q0 -38 -21.5 -55t-56.5 -27v-9q0 -21 -31 -22q-14 -1 -23.5 6.5t-9.5 18.5v31zM92 458q63 81 168 81q72 0 123 -38q52 -35 81.5 -97.5t29.5 -128.5q0 -43 -49 -43h-332q0 -77 46 -119.5t116 -42.5q78 0 143 55q20 14 33 16q15 0 22 -10t9 -27q0 -15 -13 -32q-28 -30 -83 -55
q-25 -11 -54.5 -17t-61.5 -6q-123 0 -185 84t-62 188l2 4q0 55 16.5 99.5t50.5 88.5zM113 299h293q0 73 -38.5 118.5t-103.5 45.5q-66 0 -108 -43q-20 -21 -31.5 -52t-11.5 -69zM258 738l130 -56q26 -9 26 -39q0 -36 -37 -36l-12 3l-12 3l-95 39l-94 -37l-29 -8
q-34 0 -34 36q0 30 24 39z" />
    <glyph glyph-name="uni1EC4" unicode="&#x1ec4;" horiz-adv-x="443" 
d="M78 989q26 29 78 29q17 0 55 -9l54 -11q12 0 31 9t34 11q13 0 22.5 -10.5t10.5 -26.5q0 -29 -31 -47q-18 -9 -32.5 -13.5t-32.5 -4.5l-9 2q-9 0 -42.5 9t-53.5 9l-18 -3l-24 -9l-21 -8q-31 16 -31 39q0 21 10 34zM59 664q0 21 10.5 34.5t26.5 14.5h269q16 0 26.5 -12
t10.5 -29q0 -19 -9.5 -30t-29.5 -11h-217v-235h198q16 0 27.5 -11.5t11.5 -29.5q0 -19 -11 -30q-9 -11 -30 -11h-196v-232h219q37 0 37 -43q0 -39 -43 -39h-257q-43 0 -43 47v617zM225 896l130 -56q26 -9 26 -39q0 -36 -37 -36l-12 3l-12 3l-95 39l-94 -37l-29 -8
q-34 0 -34 36q0 30 24 39z" />
    <glyph glyph-name="uni1EC5" unicode="&#x1ec5;" horiz-adv-x="520" 
d="M111 831q26 29 78 29q17 0 55 -9l54 -11q12 0 31 9t34 11q13 0 22.5 -10.5t10.5 -26.5q0 -29 -31 -47q-18 -9 -32.5 -13.5t-32.5 -4.5l-9 2q-9 0 -42.5 9t-53.5 9l-18 -3l-24 -9l-21 -8q-31 16 -31 39q0 21 10 34zM92 458q63 81 168 81q72 0 123 -38q52 -35 81.5 -97.5
t29.5 -128.5q0 -43 -49 -43h-332q0 -77 46 -119.5t116 -42.5q78 0 143 55q20 14 33 16q15 0 22 -10t9 -27q0 -15 -13 -32q-28 -30 -83 -55q-25 -11 -54.5 -17t-61.5 -6q-123 0 -185 84t-62 188l2 4q0 55 16.5 99.5t50.5 88.5zM113 299h293q0 73 -38.5 118.5t-103.5 45.5
q-66 0 -108 -43q-20 -21 -31.5 -52t-11.5 -69zM258 738l130 -56q26 -9 26 -39q0 -36 -37 -36l-12 3l-12 3l-95 39l-94 -37l-29 -8q-34 0 -34 36q0 30 24 39z" />
    <glyph glyph-name="uni1EC6" unicode="&#x1ec6;" horiz-adv-x="443" 
d="M224 -206q-25 0 -44 18q-18 20 -18 44q0 23 17 42.5t45 19.5q25 0 43 -18.5t18 -43.5t-18.5 -43.5t-42.5 -18.5zM59 664q0 21 10.5 34.5t26.5 14.5h269q16 0 26.5 -12t10.5 -29q0 -19 -9.5 -30t-29.5 -11h-217v-235h198q16 0 27.5 -11.5t11.5 -29.5q0 -19 -11 -30
q-9 -11 -30 -11h-196v-232h219q37 0 37 -43q0 -39 -43 -39h-257q-43 0 -43 47v617zM225 896l130 -56q26 -9 26 -39q0 -36 -37 -36l-12 3l-12 3l-95 39l-94 -37l-29 -8q-34 0 -34 36q0 30 24 39z" />
    <glyph glyph-name="uni1EC7" unicode="&#x1ec7;" horiz-adv-x="520" 
d="M274 -206q-25 0 -44 18q-18 20 -18 44q0 23 17 42.5t45 19.5q25 0 43 -18.5t18 -43.5t-18.5 -43.5t-42.5 -18.5zM92 458q63 81 168 81q72 0 123 -38q52 -35 81.5 -97.5t29.5 -128.5q0 -43 -49 -43h-332q0 -77 46 -119.5t116 -42.5q78 0 143 55q20 14 33 16q15 0 22 -10
t9 -27q0 -15 -13 -32q-28 -30 -83 -55q-25 -11 -54.5 -17t-61.5 -6q-123 0 -185 84t-62 188l2 4q0 55 16.5 99.5t50.5 88.5zM113 299h293q0 73 -38.5 118.5t-103.5 45.5q-66 0 -108 -43q-20 -21 -31.5 -52t-11.5 -69zM258 738l130 -56q26 -9 26 -39q0 -36 -37 -36l-12 3
l-12 3l-95 39l-94 -37l-29 -8q-34 0 -34 36q0 30 24 39z" />
    <glyph glyph-name="uni1EC8" unicode="&#x1ec8;" horiz-adv-x="203" 
d="M72 819q0 12 7 17t25 10l15 4q10 2 17.5 8.5t6.5 15.5q-1 13 -10 18.5t-24 5.5q-12 0 -26 -3.5t-18 -12.5q-3 -12 -11 -17t-19 -3q-17 2 -24 6.5t-7 18.5l1 9q3 12 10.5 22.5t20.5 18.5q13 9 33 13t38 4q17 0 38.5 -4.5t35.5 -13.5q15 -11 23 -24.5t10 -35.5
q0 -38 -21.5 -55t-56.5 -27v-9q0 -21 -31 -22q-14 -1 -23.5 6.5t-9.5 18.5v31zM59 672q0 47 45 47q18 0 30 -12t12 -35v-629q0 -29 -13.5 -38t-28.5 -11q-45 0 -45 47v631z" />
    <glyph glyph-name="uni1EC9" unicode="&#x1ec9;" horiz-adv-x="203" 
d="M59 492q0 20 12.5 33.5t30.5 13.5q17 0 30.5 -11.5t13.5 -33.5v-455q0 -21 -13 -34q-13 -11 -31 -11q-19 0 -31 11.5t-12 33.5v453zM68 662q0 12 7 17t25 10l15 4q10 2 17.5 8.5t6.5 15.5q-1 13 -10 18.5t-24 5.5q-12 0 -26 -3.5t-18 -12.5q-3 -12 -11 -17t-19 -3
q-17 2 -24 6.5t-7 18.5l1 9q3 12 10.5 22.5t20.5 18.5q13 9 33 13t38 4q17 0 38.5 -4.5t35.5 -13.5q15 -11 23 -24.5t10 -35.5q0 -38 -21.5 -55t-56.5 -27v-9q0 -21 -31 -22q-14 -1 -23.5 6.5t-9.5 18.5v31z" />
    <glyph glyph-name="uni1ECA" unicode="&#x1eca;" horiz-adv-x="203" 
d="M59 672q0 47 45 47q18 0 30 -12t12 -35v-629q0 -29 -13.5 -38t-28.5 -11q-45 0 -45 47v631zM105 -206q-25 0 -44 18q-18 20 -18 44q0 23 17 42.5t45 19.5q25 0 43 -18.5t18 -43.5t-18.5 -43.5t-42.5 -18.5z" />
    <glyph glyph-name="uni1ECB" unicode="&#x1ecb;" horiz-adv-x="203" 
d="M102 -206q-25 0 -44 18q-18 20 -18 44q0 23 17 42.5t45 19.5q25 0 43 -18.5t18 -43.5t-18.5 -43.5t-42.5 -18.5zM59 492q0 20 12.5 33.5t30.5 13.5q17 0 30.5 -11.5t13.5 -33.5v-455q0 -21 -13 -34q-13 -11 -31 -11q-19 0 -31 11.5t-12 33.5v453zM102 609q-25 0 -44 18
q-18 20 -18 44q0 23 17 42.5t45 19.5q25 0 43 -18.5t18 -43.5t-18.5 -43.5t-42.5 -18.5z" />
    <glyph glyph-name="uni1ECC" unicode="&#x1ecc;" horiz-adv-x="684" 
d="M335 -206q-25 0 -44 18q-18 20 -18 44q0 23 17 42.5t45 19.5q25 0 43 -18.5t18 -43.5t-18.5 -43.5t-42.5 -18.5zM31 355q0 149 84 256.5t229 107.5q97 0 166 -48.5t107 -134.5q18 -40 28.5 -87t10.5 -94q0 -96 -37.5 -180t-109 -132.5t-165.5 -48.5q-132 0 -222.5 101
t-90.5 260zM125 357q0 -107 50.5 -197t168.5 -90q94 0 156.5 74.5t62.5 212.5q0 141 -61.5 213.5t-157.5 72.5q-32 0 -58.5 -7t-52.5 -25q-49 -33 -78.5 -99.5t-29.5 -154.5z" />
    <glyph glyph-name="uni1ECD" unicode="&#x1ecd;" 
d="M264 -206q-25 0 -44 18q-18 20 -18 44q0 23 17 42.5t45 19.5q25 0 43 -18.5t18 -43.5t-18.5 -43.5t-42.5 -18.5zM123 266q0 -73 36.5 -134.5t108.5 -61.5t109 55q18 27 28.5 64t10.5 77q0 85 -38 141t-108 56q-69 0 -108 -55.5t-39 -141.5zM35 266q0 117 66 195t169 78
q73 0 124 -38q53 -36 81.5 -100t28.5 -135q0 -36 -7 -70t-22 -66q-27 -62 -80.5 -99t-124.5 -37q-106 0 -170.5 80.5t-64.5 191.5z" />
    <glyph glyph-name="uni1ECE" unicode="&#x1ece;" horiz-adv-x="684" 
d="M328 819q0 12 7 17t25 10l15 4q10 2 17.5 8.5t6.5 15.5q-1 13 -10 18.5t-24 5.5q-12 0 -26 -3.5t-18 -12.5q-3 -12 -11 -17t-19 -3q-17 2 -24 6.5t-7 18.5l1 9q3 12 10.5 22.5t20.5 18.5q13 9 33 13t38 4q17 0 38.5 -4.5t35.5 -13.5q15 -11 23 -24.5t10 -35.5
q0 -38 -21.5 -55t-56.5 -27v-9q0 -21 -31 -22q-14 -1 -23.5 6.5t-9.5 18.5v31zM31 355q0 149 84 256.5t229 107.5q97 0 166 -48.5t107 -134.5q18 -40 28.5 -87t10.5 -94q0 -96 -37.5 -180t-109 -132.5t-165.5 -48.5q-132 0 -222.5 101t-90.5 260zM125 357q0 -107 50.5 -197
t168.5 -90q94 0 156.5 74.5t62.5 212.5q0 141 -61.5 213.5t-157.5 72.5q-32 0 -58.5 -7t-52.5 -25q-49 -33 -78.5 -99.5t-29.5 -154.5z" />
    <glyph glyph-name="uni1ECF" unicode="&#x1ecf;" 
d="M254 662q0 12 7 17t25 10l15 4q10 2 17.5 8.5t6.5 15.5q-1 13 -10 18.5t-24 5.5q-12 0 -26 -3.5t-18 -12.5q-3 -12 -11 -17t-19 -3q-17 2 -24 6.5t-7 18.5l1 9q3 12 10.5 22.5t20.5 18.5q13 9 33 13t38 4q17 0 38.5 -4.5t35.5 -13.5q15 -11 23 -24.5t10 -35.5
q0 -38 -21.5 -55t-56.5 -27v-9q0 -21 -31 -22q-14 -1 -23.5 6.5t-9.5 18.5v31zM123 266q0 -73 36.5 -134.5t108.5 -61.5t109 55q18 27 28.5 64t10.5 77q0 85 -38 141t-108 56q-69 0 -108 -55.5t-39 -141.5zM35 266q0 117 66 195t169 78q73 0 124 -38q53 -36 81.5 -100
t28.5 -135q0 -36 -7 -70t-22 -66q-27 -62 -80.5 -99t-124.5 -37q-106 0 -170.5 80.5t-64.5 191.5z" />
    <glyph glyph-name="uni1ED0" unicode="&#x1ed0;" horiz-adv-x="684" 
d="M309 927l-10 -2l-13 -3q-43 4 -43 37q0 28 33 39l133 56q3 2 16 2q17 -2 30 -13q13 -13 13 -28q-6 -28 -32 -37zM31 355q0 149 84 256.5t229 107.5q97 0 166 -48.5t107 -134.5q18 -40 28.5 -87t10.5 -94q0 -96 -37.5 -180t-109 -132.5t-165.5 -48.5q-132 0 -222.5 101
t-90.5 260zM125 357q0 -107 50.5 -197t168.5 -90q94 0 156.5 74.5t62.5 212.5q0 141 -61.5 213.5t-157.5 72.5q-32 0 -58.5 -7t-52.5 -25q-49 -33 -78.5 -99.5t-29.5 -154.5zM344 898l130 -56q26 -9 26 -39q0 -36 -37 -36l-12 3l-12 3l-95 39l-94 -37l-29 -8q-34 0 -34 36
q0 30 24 39z" />
    <glyph glyph-name="uni1ED1" unicode="&#x1ed1;" 
d="M235 767l-10 -2l-13 -3q-43 4 -43 37q0 28 33 39l133 56q3 2 16 2q17 -2 30 -13q13 -13 13 -28q-6 -28 -32 -37zM123 266q0 -73 36.5 -134.5t108.5 -61.5t109 55q18 27 28.5 64t10.5 77q0 85 -38 141t-108 56q-69 0 -108 -55.5t-39 -141.5zM35 266q0 117 66 195t169 78
q73 0 124 -38q53 -36 81.5 -100t28.5 -135q0 -36 -7 -70t-22 -66q-27 -62 -80.5 -99t-124.5 -37q-106 0 -170.5 80.5t-64.5 191.5zM270 738l130 -56q26 -9 26 -39q0 -36 -37 -36l-12 3l-12 3l-95 39l-94 -37l-29 -8q-34 0 -34 36q0 30 24 39z" />
    <glyph glyph-name="uni1ED2" unicode="&#x1ed2;" horiz-adv-x="684" 
d="M282 978q-26 9 -32 37q0 15 13 28q13 11 30 13q13 0 16 -2l133 -56q33 -11 33 -39q0 -33 -43 -37l-13 3l-10 2zM31 355q0 149 84 256.5t229 107.5q97 0 166 -48.5t107 -134.5q18 -40 28.5 -87t10.5 -94q0 -96 -37.5 -180t-109 -132.5t-165.5 -48.5q-132 0 -222.5 101
t-90.5 260zM125 357q0 -107 50.5 -197t168.5 -90q94 0 156.5 74.5t62.5 212.5q0 141 -61.5 213.5t-157.5 72.5q-32 0 -58.5 -7t-52.5 -25q-49 -33 -78.5 -99.5t-29.5 -154.5zM344 898l130 -56q26 -9 26 -39q0 -36 -37 -36l-12 3l-12 3l-95 39l-94 -37l-29 -8q-34 0 -34 36
q0 30 24 39z" />
    <glyph glyph-name="uni1ED3" unicode="&#x1ed3;" 
d="M208 818q-26 9 -32 37q0 15 13 28q13 11 30 13q13 0 16 -2l133 -56q33 -11 33 -39q0 -33 -43 -37l-13 3l-10 2zM123 266q0 -73 36.5 -134.5t108.5 -61.5t109 55q18 27 28.5 64t10.5 77q0 85 -38 141t-108 56q-69 0 -108 -55.5t-39 -141.5zM35 266q0 117 66 195t169 78
q73 0 124 -38q53 -36 81.5 -100t28.5 -135q0 -36 -7 -70t-22 -66q-27 -62 -80.5 -99t-124.5 -37q-106 0 -170.5 80.5t-64.5 191.5zM270 738l130 -56q26 -9 26 -39q0 -36 -37 -36l-12 3l-12 3l-95 39l-94 -37l-29 -8q-34 0 -34 36q0 30 24 39z" />
    <glyph glyph-name="uni1ED4" unicode="&#x1ed4;" horiz-adv-x="684" 
d="M429 949q0 12 7 17t25 10l15 4q10 2 17.5 8.5t6.5 15.5q-1 13 -10 18.5t-24 5.5q-12 0 -26 -3.5t-18 -12.5q-3 -12 -11 -17t-19 -3q-17 2 -24 6.5t-7 18.5l1 9q3 12 10.5 22.5t20.5 18.5q13 9 33 13t38 4q17 0 38.5 -4.5t35.5 -13.5q15 -11 23 -24.5t10 -35.5
q0 -38 -21.5 -55t-56.5 -27v-9q0 -21 -31 -22q-14 -1 -23.5 6.5t-9.5 18.5v31zM31 355q0 149 84 256.5t229 107.5q97 0 166 -48.5t107 -134.5q18 -40 28.5 -87t10.5 -94q0 -96 -37.5 -180t-109 -132.5t-165.5 -48.5q-132 0 -222.5 101t-90.5 260zM125 357q0 -107 50.5 -197
t168.5 -90q94 0 156.5 74.5t62.5 212.5q0 141 -61.5 213.5t-157.5 72.5q-32 0 -58.5 -7t-52.5 -25q-49 -33 -78.5 -99.5t-29.5 -154.5zM344 898l130 -56q26 -9 26 -39q0 -36 -37 -36l-12 3l-12 3l-95 39l-94 -37l-29 -8q-34 0 -34 36q0 30 24 39z" />
    <glyph glyph-name="uni1ED5" unicode="&#x1ed5;" 
d="M355 789q0 12 7 17t25 10l15 4q10 2 17.5 8.5t6.5 15.5q-1 13 -10 18.5t-24 5.5q-12 0 -26 -3.5t-18 -12.5q-3 -12 -11 -17t-19 -3q-17 2 -24 6.5t-7 18.5l1 9q3 12 10.5 22.5t20.5 18.5q13 9 33 13t38 4q17 0 38.5 -4.5t35.5 -13.5q15 -11 23 -24.5t10 -35.5
q0 -38 -21.5 -55t-56.5 -27v-9q0 -21 -31 -22q-14 -1 -23.5 6.5t-9.5 18.5v31zM123 266q0 -73 36.5 -134.5t108.5 -61.5t109 55q18 27 28.5 64t10.5 77q0 85 -38 141t-108 56q-69 0 -108 -55.5t-39 -141.5zM35 266q0 117 66 195t169 78q73 0 124 -38q53 -36 81.5 -100
t28.5 -135q0 -36 -7 -70t-22 -66q-27 -62 -80.5 -99t-124.5 -37q-106 0 -170.5 80.5t-64.5 191.5zM270 738l130 -56q26 -9 26 -39q0 -36 -37 -36l-12 3l-12 3l-95 39l-94 -37l-29 -8q-34 0 -34 36q0 30 24 39z" />
    <glyph glyph-name="uni1ED6" unicode="&#x1ed6;" horiz-adv-x="684" 
d="M197 991q26 29 78 29q17 0 55 -9l54 -11q12 0 31 9t34 11q13 0 22.5 -10.5t10.5 -26.5q0 -29 -31 -47q-18 -9 -32.5 -13.5t-32.5 -4.5l-9 2q-9 0 -42.5 9t-53.5 9l-18 -3l-24 -9l-21 -8q-31 16 -31 39q0 21 10 34zM31 355q0 149 84 256.5t229 107.5q97 0 166 -48.5
t107 -134.5q18 -40 28.5 -87t10.5 -94q0 -96 -37.5 -180t-109 -132.5t-165.5 -48.5q-132 0 -222.5 101t-90.5 260zM125 357q0 -107 50.5 -197t168.5 -90q94 0 156.5 74.5t62.5 212.5q0 141 -61.5 213.5t-157.5 72.5q-32 0 -58.5 -7t-52.5 -25q-49 -33 -78.5 -99.5
t-29.5 -154.5zM344 898l130 -56q26 -9 26 -39q0 -36 -37 -36l-12 3l-12 3l-95 39l-94 -37l-29 -8q-34 0 -34 36q0 30 24 39z" />
    <glyph glyph-name="uni1ED7" unicode="&#x1ed7;" 
d="M123 831q26 29 78 29q17 0 55 -9l54 -11q12 0 31 9t34 11q13 0 22.5 -10.5t10.5 -26.5q0 -29 -31 -47q-18 -9 -32.5 -13.5t-32.5 -4.5l-9 2q-9 0 -42.5 9t-53.5 9l-18 -3l-24 -9l-21 -8q-31 16 -31 39q0 21 10 34zM123 266q0 -73 36.5 -134.5t108.5 -61.5t109 55
q18 27 28.5 64t10.5 77q0 85 -38 141t-108 56q-69 0 -108 -55.5t-39 -141.5zM35 266q0 117 66 195t169 78q73 0 124 -38q53 -36 81.5 -100t28.5 -135q0 -36 -7 -70t-22 -66q-27 -62 -80.5 -99t-124.5 -37q-106 0 -170.5 80.5t-64.5 191.5zM270 738l130 -56q26 -9 26 -39
q0 -36 -37 -36l-12 3l-12 3l-95 39l-94 -37l-29 -8q-34 0 -34 36q0 30 24 39z" />
    <glyph glyph-name="uni1ED8" unicode="&#x1ed8;" horiz-adv-x="684" 
d="M335 -206q-25 0 -44 18q-18 20 -18 44q0 23 17 42.5t45 19.5q25 0 43 -18.5t18 -43.5t-18.5 -43.5t-42.5 -18.5zM31 355q0 149 84 256.5t229 107.5q97 0 166 -48.5t107 -134.5q18 -40 28.5 -87t10.5 -94q0 -96 -37.5 -180t-109 -132.5t-165.5 -48.5q-132 0 -222.5 101
t-90.5 260zM125 357q0 -107 50.5 -197t168.5 -90q94 0 156.5 74.5t62.5 212.5q0 141 -61.5 213.5t-157.5 72.5q-32 0 -58.5 -7t-52.5 -25q-49 -33 -78.5 -99.5t-29.5 -154.5zM344 898l130 -56q26 -9 26 -39q0 -36 -37 -36l-12 3l-12 3l-95 39l-94 -37l-29 -8q-34 0 -34 36
q0 30 24 39z" />
    <glyph glyph-name="uni1ED9" unicode="&#x1ed9;" 
d="M264 -206q-25 0 -44 18q-18 20 -18 44q0 23 17 42.5t45 19.5q25 0 43 -18.5t18 -43.5t-18.5 -43.5t-42.5 -18.5zM123 266q0 -73 36.5 -134.5t108.5 -61.5t109 55q18 27 28.5 64t10.5 77q0 85 -38 141t-108 56q-69 0 -108 -55.5t-39 -141.5zM35 266q0 117 66 195t169 78
q73 0 124 -38q53 -36 81.5 -100t28.5 -135q0 -36 -7 -70t-22 -66q-27 -62 -80.5 -99t-124.5 -37q-106 0 -170.5 80.5t-64.5 191.5zM270 738l130 -56q26 -9 26 -39q0 -36 -37 -36l-12 3l-12 3l-95 39l-94 -37l-29 -8q-34 0 -34 36q0 30 24 39z" />
    <glyph glyph-name="uni1EDA" unicode="&#x1eda;" horiz-adv-x="684" 
d="M31 355q0 149 84 256.5t229 107.5q67 0 120 -23q20 -2 37 2.5t27 11.5q11 8 7 20t-10 24q-8 13 -3 30t25 22q14 5 28 -0.5t22 -15.5q8 -9 12 -26t3 -36t-7.5 -37t-19.5 -29q-16 -16 -38 -24q43 -42 70 -102q18 -40 28.5 -87t10.5 -94q0 -96 -37.5 -180t-109 -132.5
t-165.5 -48.5q-132 0 -222.5 101t-90.5 260zM125 357q0 -107 50.5 -197t168.5 -90q94 0 156.5 74.5t62.5 212.5q0 141 -61.5 213.5t-157.5 72.5q-32 0 -58.5 -7t-52.5 -25q-49 -33 -78.5 -99.5t-29.5 -154.5zM301 848l118 48q4 2 8.5 3t14.5 1q14 0 26.5 -11t14.5 -28
q0 -23 -33 -37l-117 -49l-30 -5q-35 0 -41 35q3 28 39 43z" />
    <glyph glyph-name="uni1EDB" unicode="&#x1edb;" 
d="M35 266q0 117 66 195t169 78q52 0 93 -20q23 -3 41.5 1t29.5 12t7 20t-10 24q-8 13 -3 30t25 22q14 5 28 -0.5t22 -15.5q8 -9 12 -26t3 -36t-7.5 -37t-19.5 -29q-21 -21 -50 -27q20 -25 34 -56q29 -64 29 -135q0 -36 -7 -70t-22 -66q-27 -62 -80.5 -99t-124.5 -37
q-106 0 -170.5 80.5t-64.5 191.5zM123 266q0 -73 36.5 -134.5t108.5 -61.5t109 55q18 27 28.5 64t10.5 77q0 85 -38 141t-108 56q-69 0 -108 -55.5t-39 -141.5zM230 691l118 48q4 2 8.5 3t14.5 1q14 0 26.5 -11t14.5 -28q0 -23 -33 -37l-117 -49l-30 -5q-35 0 -41 35
q3 28 39 43z" />
    <glyph glyph-name="uni1EDC" unicode="&#x1edc;" horiz-adv-x="684" 
d="M31 355q0 149 84 256.5t229 107.5q67 0 120 -23q20 -2 37 2.5t27 11.5q11 8 7 20t-10 24q-8 13 -3 30t25 22q14 5 28 -0.5t22 -15.5q8 -9 12 -26t3 -36t-7.5 -37t-19.5 -29q-16 -16 -38 -24q43 -42 70 -102q18 -40 28.5 -87t10.5 -94q0 -96 -37.5 -180t-109 -132.5
t-165.5 -48.5q-132 0 -222.5 101t-90.5 260zM125 357q0 -107 50.5 -197t168.5 -90q94 0 156.5 74.5t62.5 212.5q0 141 -61.5 213.5t-157.5 72.5q-32 0 -58.5 -7t-52.5 -25q-49 -33 -78.5 -99.5t-29.5 -154.5zM247 826q-26 9 -32 37q0 15 13 28q13 11 30 13q13 0 16 -2
l133 -56q33 -11 33 -39q0 -33 -43 -37l-13 3l-10 2z" />
    <glyph glyph-name="uni1EDD" unicode="&#x1edd;" 
d="M35 266q0 117 66 195t169 78q52 0 93 -20q23 -3 41.5 1t29.5 12t7 20t-10 24q-8 13 -3 30t25 22q14 5 28 -0.5t22 -15.5q8 -9 12 -26t3 -36t-7.5 -37t-19.5 -29q-21 -21 -50 -27q20 -25 34 -56q29 -64 29 -135q0 -36 -7 -70t-22 -66q-27 -62 -80.5 -99t-124.5 -37
q-106 0 -170.5 80.5t-64.5 191.5zM123 266q0 -73 36.5 -134.5t108.5 -61.5t109 55q18 27 28.5 64t10.5 77q0 85 -38 141t-108 56q-69 0 -108 -55.5t-39 -141.5zM173 663q-26 9 -32 37q0 15 13 28q13 11 30 13q13 0 16 -2l133 -56q33 -11 33 -39q0 -33 -43 -37l-13 3l-10 2z
" />
    <glyph glyph-name="uni1EDE" unicode="&#x1ede;" horiz-adv-x="684" 
d="M328 819q0 12 7 17t25 10l15 4q10 2 17.5 8.5t6.5 15.5q-1 13 -10 18.5t-24 5.5q-12 0 -26 -3.5t-18 -12.5q-3 -12 -11 -17t-19 -3q-17 2 -24 6.5t-7 18.5l1 9q3 12 10.5 22.5t20.5 18.5q13 9 33 13t38 4q17 0 38.5 -4.5t35.5 -13.5q15 -11 23 -24.5t10 -35.5
q0 -38 -21.5 -55t-56.5 -27v-9q0 -21 -31 -22q-14 -1 -23.5 6.5t-9.5 18.5v31zM31 355q0 149 84 256.5t229 107.5q67 0 120 -23q20 -2 37 2.5t27 11.5q11 8 7 20t-10 24q-8 13 -3 30t25 22q14 5 28 -0.5t22 -15.5q8 -9 12 -26t3 -36t-7.5 -37t-19.5 -29q-16 -16 -38 -24
q43 -42 70 -102q18 -40 28.5 -87t10.5 -94q0 -96 -37.5 -180t-109 -132.5t-165.5 -48.5q-132 0 -222.5 101t-90.5 260zM125 357q0 -107 50.5 -197t168.5 -90q94 0 156.5 74.5t62.5 212.5q0 141 -61.5 213.5t-157.5 72.5q-32 0 -58.5 -7t-52.5 -25q-49 -33 -78.5 -99.5
t-29.5 -154.5z" />
    <glyph glyph-name="uni1EDF" unicode="&#x1edf;" 
d="M254 662q0 12 7 17t25 10l15 4q10 2 17.5 8.5t6.5 15.5q-1 13 -10 18.5t-24 5.5q-12 0 -26 -3.5t-18 -12.5q-3 -12 -11 -17t-19 -3q-17 2 -24 6.5t-7 18.5l1 9q3 12 10.5 22.5t20.5 18.5q13 9 33 13t38 4q17 0 38.5 -4.5t35.5 -13.5q15 -11 23 -24.5t10 -35.5
q0 -38 -21.5 -55t-56.5 -27v-9q0 -21 -31 -22q-14 -1 -23.5 6.5t-9.5 18.5v31zM35 266q0 117 66 195t169 78q52 0 93 -20q23 -3 41.5 1t29.5 12t7 20t-10 24q-8 13 -3 30t25 22q14 5 28 -0.5t22 -15.5q8 -9 12 -26t3 -36t-7.5 -37t-19.5 -29q-21 -21 -50 -27q20 -25 34 -56
q29 -64 29 -135q0 -36 -7 -70t-22 -66q-27 -62 -80.5 -99t-124.5 -37q-106 0 -170.5 80.5t-64.5 191.5zM123 266q0 -73 36.5 -134.5t108.5 -61.5t109 55q18 27 28.5 64t10.5 77q0 85 -38 141t-108 56q-69 0 -108 -55.5t-39 -141.5z" />
    <glyph glyph-name="uni1EE0" unicode="&#x1ee0;" horiz-adv-x="684" 
d="M31 355q0 149 84 256.5t229 107.5q67 0 120 -23q20 -2 37 2.5t27 11.5q11 8 7 20t-10 24q-8 13 -3 30t25 22q14 5 28 -0.5t22 -15.5q8 -9 12 -26t3 -36t-7.5 -37t-19.5 -29q-16 -16 -38 -24q43 -42 70 -102q18 -40 28.5 -87t10.5 -94q0 -96 -37.5 -180t-109 -132.5
t-165.5 -48.5q-132 0 -222.5 101t-90.5 260zM125 357q0 -107 50.5 -197t168.5 -90q94 0 156.5 74.5t62.5 212.5q0 141 -61.5 213.5t-157.5 72.5q-32 0 -58.5 -7t-52.5 -25q-49 -33 -78.5 -99.5t-29.5 -154.5zM209 848q26 29 78 29q17 0 55 -9l54 -11q12 0 31 9t34 11
q13 0 22.5 -10.5t10.5 -26.5q0 -29 -31 -47q-18 -9 -32.5 -13.5t-32.5 -4.5l-9 2q-9 0 -42.5 9t-53.5 9l-18 -3l-24 -9l-21 -8q-31 16 -31 39q0 21 10 34z" />
    <glyph glyph-name="uni1EE1" unicode="&#x1ee1;" 
d="M35 266q0 117 66 195t169 78q52 0 93 -20q23 -3 41.5 1t29.5 12t7 20t-10 24q-8 13 -3 30t25 22q14 5 28 -0.5t22 -15.5q8 -9 12 -26t3 -36t-7.5 -37t-19.5 -29q-21 -21 -50 -27q20 -25 34 -56q29 -64 29 -135q0 -36 -7 -70t-22 -66q-27 -62 -80.5 -99t-124.5 -37
q-106 0 -170.5 80.5t-64.5 191.5zM123 266q0 -73 36.5 -134.5t108.5 -61.5t109 55q18 27 28.5 64t10.5 77q0 85 -38 141t-108 56q-69 0 -108 -55.5t-39 -141.5zM137 688q26 29 78 29q17 0 55 -9l54 -11q12 0 31 9t34 11q13 0 22.5 -10.5t10.5 -26.5q0 -29 -31 -47
q-18 -9 -32.5 -13.5t-32.5 -4.5l-9 2q-9 0 -42.5 9t-53.5 9l-18 -3l-24 -9l-21 -8q-31 16 -31 39q0 21 10 34z" />
    <glyph glyph-name="uni1EE2" unicode="&#x1ee2;" horiz-adv-x="684" 
d="M335 -206q-25 0 -44 18q-18 20 -18 44q0 23 17 42.5t45 19.5q25 0 43 -18.5t18 -43.5t-18.5 -43.5t-42.5 -18.5zM31 355q0 149 84 256.5t229 107.5q67 0 120 -23q20 -2 37 2.5t27 11.5q11 8 7 20t-10 24q-8 13 -3 30t25 22q14 5 28 -0.5t22 -15.5q8 -9 12 -26t3 -36
t-7.5 -37t-19.5 -29q-16 -16 -38 -24q43 -42 70 -102q18 -40 28.5 -87t10.5 -94q0 -96 -37.5 -180t-109 -132.5t-165.5 -48.5q-132 0 -222.5 101t-90.5 260zM125 357q0 -107 50.5 -197t168.5 -90q94 0 156.5 74.5t62.5 212.5q0 141 -61.5 213.5t-157.5 72.5q-32 0 -58.5 -7
t-52.5 -25q-49 -33 -78.5 -99.5t-29.5 -154.5z" />
    <glyph glyph-name="uni1EE3" unicode="&#x1ee3;" 
d="M264 -206q-25 0 -44 18q-18 20 -18 44q0 23 17 42.5t45 19.5q25 0 43 -18.5t18 -43.5t-18.5 -43.5t-42.5 -18.5zM35 266q0 117 66 195t169 78q52 0 93 -20q23 -3 41.5 1t29.5 12t7 20t-10 24q-8 13 -3 30t25 22q14 5 28 -0.5t22 -15.5q8 -9 12 -26t3 -36t-7.5 -37
t-19.5 -29q-21 -21 -50 -27q20 -25 34 -56q29 -64 29 -135q0 -36 -7 -70t-22 -66q-27 -62 -80.5 -99t-124.5 -37q-106 0 -170.5 80.5t-64.5 191.5zM123 266q0 -73 36.5 -134.5t108.5 -61.5t109 55q18 27 28.5 64t10.5 77q0 85 -38 141t-108 56q-69 0 -108 -55.5t-39 -141.5z
" />
    <glyph glyph-name="uni1EE4" unicode="&#x1ee4;" horiz-adv-x="666" 
d="M321 -206q-25 0 -44 18q-18 20 -18 44q0 23 17 42.5t45 19.5q25 0 43 -18.5t18 -43.5t-18.5 -43.5t-42.5 -18.5zM59 674q0 21 12 33t31 12q17 0 30.5 -11.5t13.5 -33.5v-428q0 -84 54 -130t140 -46q81 0 132 49t51 127v428q0 21 12 33t29 12t31 -11.5t14 -33.5v-399
q0 -87 -30 -149.5t-91 -97t-150 -34.5q-138 0 -208.5 75t-70.5 204v401z" />
    <glyph glyph-name="uni1EE5" unicode="&#x1ee5;" 
d="M263 -206q-25 0 -44 18q-18 20 -18 44q0 23 17 42.5t45 19.5q25 0 43 -18.5t18 -43.5t-18.5 -43.5t-42.5 -18.5zM59 494q0 21 12 33t31 12q17 0 30.5 -11.5t13.5 -33.5v-291q0 -60 30.5 -96.5t91.5 -36.5q125 0 125 133v291q0 21 12 33t31 12q17 0 30.5 -11.5t13.5 -33.5
v-293q0 -88 -52 -147.5t-162 -59.5q-102 0 -154.5 60t-52.5 147v293z" />
    <glyph glyph-name="uni1EE6" unicode="&#x1ee6;" horiz-adv-x="666" 
d="M313 819q0 12 7 17t25 10l15 4q10 2 17.5 8.5t6.5 15.5q-1 13 -10 18.5t-24 5.5q-12 0 -26 -3.5t-18 -12.5q-3 -12 -11 -17t-19 -3q-17 2 -24 6.5t-7 18.5l1 9q3 12 10.5 22.5t20.5 18.5q13 9 33 13t38 4q17 0 38.5 -4.5t35.5 -13.5q15 -11 23 -24.5t10 -35.5
q0 -38 -21.5 -55t-56.5 -27v-9q0 -21 -31 -22q-14 -1 -23.5 6.5t-9.5 18.5v31zM59 674q0 21 12 33t31 12q17 0 30.5 -11.5t13.5 -33.5v-428q0 -84 54 -130t140 -46q81 0 132 49t51 127v428q0 21 12 33t29 12t31 -11.5t14 -33.5v-399q0 -87 -30 -149.5t-91 -97t-150 -34.5
q-138 0 -208.5 75t-70.5 204v401z" />
    <glyph glyph-name="uni1EE7" unicode="&#x1ee7;" 
d="M241 662q0 12 7 17t25 10l15 4q10 2 17.5 8.5t6.5 15.5q-1 13 -10 18.5t-24 5.5q-12 0 -26 -3.5t-18 -12.5q-3 -12 -11 -17t-19 -3q-17 2 -24 6.5t-7 18.5l1 9q3 12 10.5 22.5t20.5 18.5q13 9 33 13t38 4q17 0 38.5 -4.5t35.5 -13.5q15 -11 23 -24.5t10 -35.5
q0 -38 -21.5 -55t-56.5 -27v-9q0 -21 -31 -22q-14 -1 -23.5 6.5t-9.5 18.5v31zM59 494q0 21 12 33t31 12q17 0 30.5 -11.5t13.5 -33.5v-291q0 -60 30.5 -96.5t91.5 -36.5q125 0 125 133v291q0 21 12 33t31 12q17 0 30.5 -11.5t13.5 -33.5v-293q0 -88 -52 -147.5t-162 -59.5
q-102 0 -154.5 60t-52.5 147v293z" />
    <glyph glyph-name="uni1EE8" unicode="&#x1ee8;" horiz-adv-x="666" 
d="M59 674q0 21 12 33t31 12q17 0 30.5 -11.5t13.5 -33.5v-428q0 -84 54 -130t140 -46q81 0 132 49t51 127v428q0 21 12 33t29 12t31 -12q1 -1 3 -2q7 1 18 9t7 20t-10 24q-8 13 -3 30t25 22q14 5 28 -0.5t22 -15.5q8 -9 12 -26t3 -36t-7.5 -37t-19.5 -29q-26 -26 -64 -29
v-362q0 -87 -30 -149.5t-91 -97t-150 -34.5q-138 0 -208.5 75t-70.5 204v401zM291 848l118 48q4 2 8.5 3t14.5 1q14 0 26.5 -11t14.5 -28q0 -23 -33 -37l-117 -49l-30 -5q-35 0 -41 35q3 28 39 43z" />
    <glyph glyph-name="uni1EE9" unicode="&#x1ee9;" 
d="M59 494q0 21 12 33t31 12q17 0 30.5 -11.5t13.5 -33.5v-291q0 -60 30.5 -96.5t91.5 -36.5q125 0 125 133v291q0 21 12 33t31 12q17 0 30 -12q2 -1 4 -3q6 1 17 9t7 20t-10 24q-8 13 -3 30t25 22q14 5 28 -0.5t22 -15.5q8 -9 12 -26t3 -36t-7.5 -37t-19.5 -29
q-26 -26 -64 -29v-255q0 -88 -52 -147.5t-162 -59.5q-102 0 -154.5 60t-52.5 147v293zM241 687l118 48q4 2 8.5 3t14.5 1q14 0 26.5 -11t14.5 -28q0 -23 -33 -37l-117 -49l-30 -5q-35 0 -41 35q3 28 39 43z" />
    <glyph glyph-name="uni1EEA" unicode="&#x1eea;" horiz-adv-x="666" 
d="M59 674q0 21 12 33t31 12q17 0 30.5 -11.5t13.5 -33.5v-428q0 -84 54 -130t140 -46q81 0 132 49t51 127v428q0 21 12 33t29 12t31 -12q1 -1 3 -2q7 1 18 9t7 20t-10 24q-8 13 -3 30t25 22q14 5 28 -0.5t22 -15.5q8 -9 12 -26t3 -36t-7.5 -37t-19.5 -29q-26 -26 -64 -29
v-362q0 -87 -30 -149.5t-91 -97t-150 -34.5q-138 0 -208.5 75t-70.5 204v401zM225 824q-26 9 -32 37q0 15 13 28q13 11 30 13q13 0 16 -2l133 -56q33 -11 33 -39q0 -33 -43 -37l-13 3l-10 2z" />
    <glyph glyph-name="uni1EEB" unicode="&#x1eeb;" 
d="M59 494q0 21 12 33t31 12q17 0 30.5 -11.5t13.5 -33.5v-291q0 -60 30.5 -96.5t91.5 -36.5q125 0 125 133v291q0 21 12 33t31 12q17 0 30 -12q2 -1 4 -3q6 1 17 9t7 20t-10 24q-8 13 -3 30t25 22q14 5 28 -0.5t22 -15.5q8 -9 12 -26t3 -36t-7.5 -37t-19.5 -29
q-26 -26 -64 -29v-255q0 -88 -52 -147.5t-162 -59.5q-102 0 -154.5 60t-52.5 147v293zM151 663q-26 9 -32 37q0 15 13 28q13 11 30 13q13 0 16 -2l133 -56q33 -11 33 -39q0 -33 -43 -37l-13 3l-10 2z" />
    <glyph glyph-name="uni1EEC" unicode="&#x1eec;" horiz-adv-x="666" 
d="M313 819q0 12 7 17t25 10l15 4q10 2 17.5 8.5t6.5 15.5q-1 13 -10 18.5t-24 5.5q-12 0 -26 -3.5t-18 -12.5q-3 -12 -11 -17t-19 -3q-17 2 -24 6.5t-7 18.5l1 9q3 12 10.5 22.5t20.5 18.5q13 9 33 13t38 4q17 0 38.5 -4.5t35.5 -13.5q15 -11 23 -24.5t10 -35.5
q0 -38 -21.5 -55t-56.5 -27v-9q0 -21 -31 -22q-14 -1 -23.5 6.5t-9.5 18.5v31zM59 674q0 21 12 33t31 12q17 0 30.5 -11.5t13.5 -33.5v-428q0 -84 54 -130t140 -46q81 0 132 49t51 127v428q0 21 12 33t29 12t31 -12q1 -1 3 -2q7 1 18 9t7 20t-10 24q-8 13 -3 30t25 22
q14 5 28 -0.5t22 -15.5q8 -9 12 -26t3 -36t-7.5 -37t-19.5 -29q-26 -26 -64 -29v-362q0 -87 -30 -149.5t-91 -97t-150 -34.5q-138 0 -208.5 75t-70.5 204v401z" />
    <glyph glyph-name="uni1EED" unicode="&#x1eed;" 
d="M241 662q0 12 7 17t25 10l15 4q10 2 17.5 8.5t6.5 15.5q-1 13 -10 18.5t-24 5.5q-12 0 -26 -3.5t-18 -12.5q-3 -12 -11 -17t-19 -3q-17 2 -24 6.5t-7 18.5l1 9q3 12 10.5 22.5t20.5 18.5q13 9 33 13t38 4q17 0 38.5 -4.5t35.5 -13.5q15 -11 23 -24.5t10 -35.5
q0 -38 -21.5 -55t-56.5 -27v-9q0 -21 -31 -22q-14 -1 -23.5 6.5t-9.5 18.5v31zM59 494q0 21 12 33t31 12q17 0 30.5 -11.5t13.5 -33.5v-291q0 -60 30.5 -96.5t91.5 -36.5q125 0 125 133v291q0 21 12 33t31 12q17 0 30 -12q2 -1 4 -3q6 1 17 9t7 20t-10 24q-8 13 -3 30t25 22
q14 5 28 -0.5t22 -15.5q8 -9 12 -26t3 -36t-7.5 -37t-19.5 -29q-26 -26 -64 -29v-255q0 -88 -52 -147.5t-162 -59.5q-102 0 -154.5 60t-52.5 147v293z" />
    <glyph glyph-name="uni1EEE" unicode="&#x1eee;" horiz-adv-x="666" 
d="M59 674q0 21 12 33t31 12q17 0 30.5 -11.5t13.5 -33.5v-428q0 -84 54 -130t140 -46q81 0 132 49t51 127v428q0 21 12 33t29 12t31 -12q1 -1 3 -2q7 1 18 9t7 20t-10 24q-8 13 -3 30t25 22q14 5 28 -0.5t22 -15.5q8 -9 12 -26t3 -36t-7.5 -37t-19.5 -29q-26 -26 -64 -29
v-362q0 -87 -30 -149.5t-91 -97t-150 -34.5q-138 0 -208.5 75t-70.5 204v401zM195 862q26 29 78 29q17 0 55 -9l54 -11q12 0 31 9t34 11q13 0 22.5 -10.5t10.5 -26.5q0 -29 -31 -47q-18 -9 -32.5 -13.5t-32.5 -4.5l-9 2q-9 0 -42.5 9t-53.5 9l-18 -3l-24 -9l-21 -8
q-31 16 -31 39q0 21 10 34z" />
    <glyph glyph-name="uni1EEF" unicode="&#x1eef;" 
d="M59 494q0 21 12 33t31 12q17 0 30.5 -11.5t13.5 -33.5v-291q0 -60 30.5 -96.5t91.5 -36.5q125 0 125 133v291q0 21 12 33t31 12q17 0 30 -12q2 -1 4 -3q6 1 17 9t7 20t-10 24q-8 13 -3 30t25 22q14 5 28 -0.5t22 -15.5q8 -9 12 -26t3 -36t-7.5 -37t-19.5 -29
q-26 -26 -64 -29v-255q0 -88 -52 -147.5t-162 -59.5q-102 0 -154.5 60t-52.5 147v293zM130 688q26 29 78 29q17 0 55 -9l54 -11q12 0 31 9t34 11q13 0 22.5 -10.5t10.5 -26.5q0 -29 -31 -47q-18 -9 -32.5 -13.5t-32.5 -4.5l-9 2q-9 0 -42.5 9t-53.5 9l-18 -3l-24 -9l-21 -8
q-31 16 -31 39q0 21 10 34z" />
    <glyph glyph-name="uni1EF0" unicode="&#x1ef0;" horiz-adv-x="666" 
d="M321 -206q-25 0 -44 18q-18 20 -18 44q0 23 17 42.5t45 19.5q25 0 43 -18.5t18 -43.5t-18.5 -43.5t-42.5 -18.5zM59 674q0 21 12 33t31 12q17 0 30.5 -11.5t13.5 -33.5v-428q0 -84 54 -130t140 -46q81 0 132 49t51 127v428q0 21 12 33t29 12t31 -12q1 -1 3 -2q7 1 18 9
t7 20t-10 24q-8 13 -3 30t25 22q14 5 28 -0.5t22 -15.5q8 -9 12 -26t3 -36t-7.5 -37t-19.5 -29q-26 -26 -64 -29v-362q0 -87 -30 -149.5t-91 -97t-150 -34.5q-138 0 -208.5 75t-70.5 204v401z" />
    <glyph glyph-name="uni1EF1" unicode="&#x1ef1;" 
d="M263 -206q-25 0 -44 18q-18 20 -18 44q0 23 17 42.5t45 19.5q25 0 43 -18.5t18 -43.5t-18.5 -43.5t-42.5 -18.5zM59 494q0 21 12 33t31 12q17 0 30.5 -11.5t13.5 -33.5v-291q0 -60 30.5 -96.5t91.5 -36.5q125 0 125 133v291q0 21 12 33t31 12q17 0 30 -12q2 -1 4 -3
q6 1 17 9t7 20t-10 24q-8 13 -3 30t25 22q14 5 28 -0.5t22 -15.5q8 -9 12 -26t3 -36t-7.5 -37t-19.5 -29q-26 -26 -64 -29v-255q0 -88 -52 -147.5t-162 -59.5q-102 0 -154.5 60t-52.5 147v293z" />
    <glyph glyph-name="uni1EF2" unicode="&#x1ef2;" horiz-adv-x="482" 
d="M207 336l-195 316q-9 19 -12 32q0 15 11 25q11 8 28 10q26 0 43 -24l168 -273l168 271q14 26 41 26q17 0 28 -9.5t11 -27.5q0 -16 -8 -28l-195 -318v-295q0 -24 -13 -36.5t-32 -12.5q-16 0 -30 13q-13 15 -13 36v295zM161 824q-26 9 -32 37q0 15 13 28q13 11 30 13
q13 0 16 -2l133 -56q33 -11 33 -39q0 -33 -43 -37l-13 3l-10 2z" />
    <glyph glyph-name="uni1EF3" unicode="&#x1ef3;" horiz-adv-x="426" 
d="M180 20l-159 455q0 8 -5 23q0 17 12 28t29 11q35 0 45 -31l121 -365l123 367q9 31 41 31q18 0 29.5 -11t11.5 -32l-4 -21l-231 -657q-11 -39 -48 -39q-36 0 -36 41l6 28zM114 663q-26 9 -32 37q0 15 13 28q13 11 30 13q13 0 16 -2l133 -56q33 -11 33 -39q0 -33 -43 -37
l-13 3l-10 2z" />
    <glyph glyph-name="uni1EF4" unicode="&#x1ef4;" horiz-adv-x="482" 
d="M249 -206q-25 0 -44 18q-18 20 -18 44q0 23 17 42.5t45 19.5q25 0 43 -18.5t18 -43.5t-18.5 -43.5t-42.5 -18.5zM207 336l-195 316q-9 19 -12 32q0 15 11 25q11 8 28 10q26 0 43 -24l168 -273l168 271q14 26 41 26q17 0 28 -9.5t11 -27.5q0 -16 -8 -28l-195 -318v-295
q0 -24 -13 -36.5t-32 -12.5q-16 0 -30 13q-13 15 -13 36v295z" />
    <glyph glyph-name="uni1EF5" unicode="&#x1ef5;" horiz-adv-x="426" 
d="M348 -206q-25 0 -44 18q-18 20 -18 44q0 23 17 42.5t45 19.5q25 0 43 -18.5t18 -43.5t-18.5 -43.5t-42.5 -18.5zM180 20l-159 455q0 8 -5 23q0 17 12 28t29 11q35 0 45 -31l121 -365l123 367q9 31 41 31q18 0 29.5 -11t11.5 -32l-4 -21l-231 -657q-11 -39 -48 -39
q-36 0 -36 41l6 28z" />
    <glyph glyph-name="uni1EF6" unicode="&#x1ef6;" horiz-adv-x="482" 
d="M218 819q0 12 7 17t25 10l15 4q10 2 17.5 8.5t6.5 15.5q-1 13 -10 18.5t-24 5.5q-12 0 -26 -3.5t-18 -12.5q-3 -12 -11 -17t-19 -3q-17 2 -24 6.5t-7 18.5l1 9q3 12 10.5 22.5t20.5 18.5q13 9 33 13t38 4q17 0 38.5 -4.5t35.5 -13.5q15 -11 23 -24.5t10 -35.5
q0 -38 -21.5 -55t-56.5 -27v-9q0 -21 -31 -22q-14 -1 -23.5 6.5t-9.5 18.5v31zM207 336l-195 316q-9 19 -12 32q0 15 11 25q11 8 28 10q26 0 43 -24l168 -273l168 271q14 26 41 26q17 0 28 -9.5t11 -27.5q0 -16 -8 -28l-195 -318v-295q0 -24 -13 -36.5t-32 -12.5
q-16 0 -30 13q-13 15 -13 36v295z" />
    <glyph glyph-name="uni1EF7" unicode="&#x1ef7;" horiz-adv-x="426" 
d="M199 662q0 12 7 17t25 10l15 4q10 2 17.5 8.5t6.5 15.5q-1 13 -10 18.5t-24 5.5q-12 0 -26 -3.5t-18 -12.5q-3 -12 -11 -17t-19 -3q-17 2 -24 6.5t-7 18.5l1 9q3 12 10.5 22.5t20.5 18.5q13 9 33 13t38 4q17 0 38.5 -4.5t35.5 -13.5q15 -11 23 -24.5t10 -35.5
q0 -38 -21.5 -55t-56.5 -27v-9q0 -21 -31 -22q-14 -1 -23.5 6.5t-9.5 18.5v31zM180 20l-159 455q0 8 -5 23q0 17 12 28t29 11q35 0 45 -31l121 -365l123 367q9 31 41 31q18 0 29.5 -11t11.5 -32l-4 -21l-231 -657q-11 -39 -48 -39q-36 0 -36 41l6 28z" />
    <glyph glyph-name="uni1EF8" unicode="&#x1ef8;" horiz-adv-x="482" 
d="M207 336l-195 316q-9 19 -12 32q0 15 11 25q11 8 28 10q26 0 43 -24l168 -273l168 271q14 26 41 26q17 0 28 -9.5t11 -27.5q0 -16 -8 -28l-195 -318v-295q0 -24 -13 -36.5t-32 -12.5q-16 0 -30 13q-13 15 -13 36v295zM122 862q26 29 78 29q17 0 55 -9l54 -11q12 0 31 9
t34 11q13 0 22.5 -10.5t10.5 -26.5q0 -29 -31 -47q-18 -9 -32.5 -13.5t-32.5 -4.5l-9 2q-9 0 -42.5 9t-53.5 9l-18 -3l-24 -9l-21 -8q-31 16 -31 39q0 21 10 34z" />
    <glyph glyph-name="uni1EF9" unicode="&#x1ef9;" horiz-adv-x="426" 
d="M180 20l-159 455q0 8 -5 23q0 17 12 28t29 11q35 0 45 -31l121 -365l123 367q9 31 41 31q18 0 29.5 -11t11.5 -32l-4 -21l-231 -657q-11 -39 -48 -39q-36 0 -36 41l6 28zM90 688q26 29 78 29q17 0 55 -9l54 -11q12 0 31 9t34 11q13 0 22.5 -10.5t10.5 -26.5
q0 -29 -31 -47q-18 -9 -32.5 -13.5t-32.5 -4.5l-9 2q-9 0 -42.5 9t-53.5 9l-18 -3l-24 -9l-21 -8q-31 16 -31 39q0 21 10 34z" />
    <glyph glyph-name="endash" unicode="&#x2013;" horiz-adv-x="500" 
d="M41 230q-18 0 -30 12q-9 11 -11 26q0 39 43 39h416q21 0 31 -11.5t10 -27.5t-11 -27t-30 -11h-418z" />
    <glyph glyph-name="emdash" unicode="&#x2014;" horiz-adv-x="1000" 
d="M0 307h998h4q19 0 28 -11.5t9 -27.5t-9.5 -27t-27.5 -11h-998h-4q-37 0 -37 38q0 39 37 39z" />
    <glyph glyph-name="quoteleft" unicode="&#x2018;" horiz-adv-x="186" 
d="M33 566l65 125q12 28 41 28q39 0 39 -39q0 -15 -6 -30l-65 -125q-12 -27 -44 -31q-15 0 -26.5 12.5t-11.5 28.5q3 23 8 31z" />
    <glyph glyph-name="quoteright" unicode="&#x2019;" horiz-adv-x="186" 
d="M33 564l61 122q16 31 43 31q16 0 30 -9q5 -4 9 -11.5t4 -16.5q0 -11 -1 -15.5t-7 -16.5l-63 -121q-13 -29 -41 -35q-39 6 -45 43q2 12 10 29z" />
    <glyph glyph-name="quotedblleft" unicode="&#x201c;" horiz-adv-x="314" 
d="M166 652l-62 -125q-15 -27 -47 -31q-15 0 -24.5 11t-12.5 28q2 17 7 29l61 124q16 31 45 31q16 0 27 -11q12 -9 12 -30q0 -12 -6 -26zM309 652l-65 -125q-15 -26 -45 -31q-14 0 -25 11.5t-12 27.5q3 21 8 29l60 124q16 31 43 31q18 0 29 -11q12 -9 12 -30q0 -16 -5 -26z
" />
    <glyph glyph-name="quotedblright" unicode="&#x201d;" horiz-adv-x="314" 
d="M166 652l-62 -125q-15 -27 -47 -31q-15 0 -24.5 11t-12.5 28q2 17 7 29l61 124q16 31 45 31q16 0 27 -11q12 -9 12 -30q0 -12 -6 -26zM309 652l-65 -125q-15 -26 -45 -31q-14 0 -25 11.5t-12 27.5q3 21 8 29l60 124q16 31 43 31q18 0 29 -11q12 -9 12 -30q0 -16 -5 -26z
" />
    <glyph glyph-name="quotedblbase" unicode="&#x201e;" horiz-adv-x="314" 
d="M166 29l-62 -125q-15 -29 -47 -29q-37 0 -37 39q2 16 7 27l61 123q15 32 45 32q16 0 27 -11q12 -9 12 -30q0 -12 -6 -26zM309 29l-65 -125q-15 -29 -45 -29q-32 0 -37 39q5 23 8 27l60 123q15 32 43 32q18 0 29 -11q12 -9 12 -30q0 -16 -5 -26z" />
    <glyph glyph-name="dagger" unicode="&#x2020;" horiz-adv-x="609" 
d="M266 471v209q0 17 12 28t29 11q18 0 29 -11q12 -9 12 -28v-209h199q17 0 28 -11.5t11 -29.5q0 -19 -11 -30t-30 -11h-197v-565q0 -18 -12 -27.5t-29 -11.5q-15 0 -28 11t-13 30v563h-202q-16 0 -27 12q-9 12 -12 29q0 15 10.5 28t28.5 13h202z" />
    <glyph glyph-name="daggerdbl" unicode="&#x2021;" horiz-adv-x="609" 
d="M266 408h-202q-17 0 -26.5 11.5t-12.5 29.5q1 15 11 28t28 13h202v190q0 17 12 28t29 11q18 0 29 -11q12 -9 12 -28v-190h199q16 0 27.5 -11.5t11.5 -29.5q0 -19 -11 -30q-9 -11 -30 -11h-197v-314h197q19 0 30 -12.5t11 -30.5q0 -17 -11 -28t-28 -11h-199v-190
q0 -18 -12 -27.5t-29 -11.5q-15 0 -28 11t-13 28v190h-202q-34 0 -39 39q0 43 39 43h202v314z" />
    <glyph glyph-name="bullet" unicode="&#x2022;" horiz-adv-x="500" 
d="M72 355q0 74 53 127t125 53q46 0 88 -24t66 -66t24 -90q0 -46 -23.5 -86.5t-65.5 -65.5t-89 -25q-72 0 -125 51.5t-53 125.5z" />
    <glyph glyph-name="ellipsis" unicode="&#x2026;" horiz-adv-x="1000" 
d="M115 45q0 18 15.5 34.5t37.5 16.5q18 0 34.5 -16t16.5 -35q0 -18 -16 -34.5t-35 -16.5q-20 0 -38 15q-15 15 -15 36zM449 45q0 18 16 34.5t35 16.5q21 0 36 -15t15 -36t-15 -36t-36 -15q-18 0 -34.5 16t-16.5 35zM783 45q0 18 16 34.5t35 16.5q18 0 34.5 -16t16.5 -35
q0 -18 -16 -34.5t-35 -16.5q-18 0 -34.5 16t-16.5 35z" />
    <glyph glyph-name="perthousand" unicode="&#x2030;" horiz-adv-x="1094" 
d="M459 160q0 -48 23 -79.5t63 -31.5q86 0 86 111q0 52 -21.5 84.5t-62.5 32.5q-45 0 -65 -32q-12 -18 -17.5 -37.5t-5.5 -47.5zM393 158q0 74 39 124t115 50q66 0 110 -47q40 -44 40 -127q0 -76 -43 -120t-109 -44t-109 47.5t-43 116.5zM811 160q0 -47 22.5 -80t59.5 -33
l3 2q86 0 86 111q0 54 -23.5 86.5t-62.5 32.5q-41 0 -63 -32.5t-22 -86.5zM744 158q0 74 39 124t115 50q41 0 76.5 -21t55 -61t19.5 -92q0 -37 -12 -67.5t-34 -53.5q-43 -43 -107 -43q-65 0 -110 46q-42 47 -42 118zM111 547q0 -46 23.5 -79.5t62.5 -33.5q42 0 64 29t22 84
q0 54 -22.5 85.5t-63.5 31.5q-86 0 -86 -117zM45 545q0 74 39 124t115 50q65 0 110 -48q41 -45 41 -126q0 -76 -44 -120t-109 -44q-66 0 -109 47.5t-43 116.5zM203 37l276 662q9 28 33 28q35 0 35 -28l-4 -19l-277 -670q-9 -24 -37 -24q-27 0 -34 28z" />
    <glyph glyph-name="guilsinglleft" unicode="&#x2039;" horiz-adv-x="240" 
d="M43 268l100 179q12 26 35 26q13 0 25 -11.5t12 -23.5t-10 -32l-84 -138l86 -143q8 -13 8 -29q0 -25 -39 -33q-20 0 -31 25z" />
    <glyph glyph-name="guilsinglright" unicode="&#x203a;" horiz-adv-x="240" 
d="M217 268l-100 -178q-12 -24 -35 -27q-33 5 -39 33q1 11 12 35l82 137l-86 142l-10 26q0 14 11 24.5t28 10.5q23 0 35 -22z" />
    <glyph glyph-name="trademark" unicode="&#x2122;" horiz-adv-x="990" 
d="M186 646h-100q-23 0 -29 32q3 35 29 35h279q14 0 21 -8.5t9 -24.5q0 -34 -28 -34h-99v-310q0 -35 -41 -39q-41 0 -41 39v310zM475 652q0 67 60 67q54 0 70 -43l100 -258l98 260q14 41 70 41q61 0 61 -65v-316q0 -35 -38 -41q-15 2 -27 11.5t-12 27.5v289l-113 -297
q-9 -27 -41 -31q-30 3 -39 31l-111 297l-2 -287q0 -35 -39 -41q-15 2 -27 12q-10 12 -10 29v314z" />
    <glyph glyph-name="fi" unicode="&#xf001;" horiz-adv-x="443" 
d="M86 457h-37q-43 0 -43 41q3 35 45 35h35v127q0 48 33 80q18 16 37.5 24.5t44.5 8.5q78 0 78 -41q0 -13 -12 -25q-13 -10 -33 -10h-27q-33 0 -33 -39v-125h56q39 0 43 -35q0 -41 -43 -41h-56v-418q0 -21 -13 -34q-13 -11 -32 -11t-31 11.5t-12 33.5v418zM318 492
q0 21 13 34t30 13t31 -11.5t14 -33.5v-455q0 -21 -13 -34q-13 -11 -32 -11q-16 0 -29.5 12.5t-13.5 32.5v453zM363 609q-21 0 -37.5 17.5t-16.5 37.5t15 37.5t39 17.5q22 0 37.5 -17t15.5 -38t-15.5 -38t-37.5 -17z" />
    <glyph glyph-name="fl" unicode="&#xf002;" horiz-adv-x="443" 
d="M86 457h-37q-43 0 -43 41q3 35 45 35h35v127q0 48 33 80q18 16 37.5 24.5t44.5 8.5q78 0 78 -41q0 -13 -12 -25q-13 -10 -33 -10h-27q-33 0 -33 -39v-125h56q39 0 43 -35q0 -41 -43 -41h-56v-418q0 -21 -13 -34q-13 -11 -32 -11t-31 11.5t-12 33.5v418zM316 725
q0 21 13 32.5t30 13.5q19 0 32 -11t13 -33v-686q0 -22 -12.5 -34.5t-32.5 -12.5q-17 0 -30 13t-13 34v684z" />
    <glyph glyph-name="NULL" horiz-adv-x="0" 
 />
    </font>
</defs>
</svg>
